<?xml version="1.0" encoding="utf-8"?>
<!-- Generator: Adobe Illustrator 16.0.0, SVG Export Plug-In . SVG Version: 6.00 Build 0)  -->
<!DOCTYPE svg PUBLIC "-//W3C//DTD SVG 1.1//EN" "http://www.w3.org/Graphics/SVG/1.1/DTD/svg11.dtd">
<svg version="1.1" id="Layer_1" xmlns="http://www.w3.org/2000/svg" xmlns:xlink="http://www.w3.org/1999/xlink" x="0px" y="0px"
	 width="70px" height="70px" viewBox="0 0 70 70" enable-background="new 0 0 70 70" xml:space="preserve">
<rect x="25.5" y="22.5" fill="none" stroke="#FFFFFF" stroke-miterlimit="10" width="14" height="24"/>
<path fill="none" stroke="#FFFFFF" stroke-miterlimit="10" d="M48.5,45.5c0,0.553-0.447,1-1,1h-5c-0.553,0-1-0.447-1-1v-9
	c0-0.553,0.447-1,1-1h5c0.553,0,1,0.447,1,1V45.5z"/>
<path fill="none" stroke="#FFFFFF" stroke-miterlimit="10" d="M23.5,46.5h-2v-17c0,0,0.441-2,1-2s1,2,1,2V46.5z"/>
<line fill="none" stroke="#FFFFFF" stroke-miterlimit="10" x1="25" y1="26.5" x2="39" y2="26.5"/>
<line fill="none" stroke="#FFFFFF" stroke-miterlimit="10" x1="32.5" y1="23" x2="32.5" y2="26"/>
<line fill="none" stroke="#FFFFFF" stroke-miterlimit="10" x1="42" y1="38.5" x2="48" y2="38.5"/>
<line fill="none" stroke="#FFFFFF" stroke-miterlimit="10" x1="45.5" y1="36" x2="45.5" y2="38"/>
</svg>
