<?xml version="1.0" encoding="utf-8"?>
<!-- Generator: Adobe Illustrator 16.0.0, SVG Export Plug-In . SVG Version: 6.00 Build 0)  -->
<!DOCTYPE svg PUBLIC "-//W3C//DTD SVG 1.1//EN" "http://www.w3.org/Graphics/SVG/1.1/DTD/svg11.dtd">
<svg version="1.1" id="Layer_1" xmlns="http://www.w3.org/2000/svg" xmlns:xlink="http://www.w3.org/1999/xlink" x="0px" y="0px"
	 width="70px" height="70px" viewBox="0 0 70 70" enable-background="new 0 0 70 70" xml:space="preserve">
<g>
	<path fill="#FFFFFF" stroke="#F77463" stroke-miterlimit="10" d="M22.304,29.525h5.95V48.66h-5.95V29.525z M25.279,20.014
		c1.901,0,3.446,1.545,3.446,3.446c0,1.905-1.545,3.449-3.446,3.449c-1.907,0-3.447-1.544-3.447-3.449
		C21.832,21.559,23.372,20.014,25.279,20.014"/>
	<path fill="#FFFFFF" stroke="#F77463" stroke-miterlimit="10" d="M31.984,29.525h5.704v2.613h0.082
		c0.794-1.504,2.733-3.09,5.627-3.09c6.019,0,7.129,3.961,7.129,9.116V48.66h-5.939v-9.305c0-2.221-0.044-5.074-3.091-5.074
		c-3.096,0-3.567,2.418-3.567,4.914v9.465h-5.944V29.525z"/>
</g>
</svg>
