<?xml version="1.0" encoding="utf-8"?>
<!-- Generator: Adobe Illustrator 16.0.4, SVG Export Plug-In . SVG Version: 6.00 Build 0)  -->
<!DOCTYPE svg PUBLIC "-//W3C//DTD SVG 1.1//EN" "http://www.w3.org/Graphics/SVG/1.1/DTD/svg11.dtd">
<svg version="1.1" id="Layer_1" xmlns="http://www.w3.org/2000/svg" xmlns:xlink="http://www.w3.org/1999/xlink" x="0px" y="0px"
	 width="41.821px" height="43.237px" viewBox="0 0 41.821 43.237" enable-background="new 0 0 41.821 43.237" xml:space="preserve">
<g>
	<path opacity="0.5" fill="#FFFFFF" d="M18.656,12.183C19.038,8.047,21.015,0.76,30.164,0.465
		C42.645,0.069,41.73,13.872,41.821,14.49l-4.647,0.372c0,0,0.795-10.126-7.023-9.876c-7.066,0.227-7.061,9.422-7.004,10.808
		c0.057,1.388,0.525,12.115,0.322,15.818c-0.203,3.701-2.394,11.336-11.503,11.625c-12.481,0.4-11.568-13.4-11.657-14.021
		l4.651-0.364c0,0-0.793,10.14,7.025,9.887c6.986-0.221,7.205-8.032,7.012-10.505C18.906,27.02,18.271,16.319,18.656,12.183z"/>
	<path fill="#FFFFFF" d="M18.685,22c0.119,3,0.271,5.567,0.313,6.117c0.192,2.473-0.026,10.342-7.012,10.562
		c-7.819,0.253-7.025-9.858-7.025-9.858l-4.651,0.38c0.088,0.62-0.824,14.428,11.657,14.027c9.109-0.289,11.3-8.036,11.503-11.736
		C23.577,29.527,23.496,26,23.387,22H18.685z"/>
</g>
</svg>
