<?xml version="1.0" encoding="utf-8"?>
<!-- Generator: Adobe Illustrator 16.0.0, SVG Export Plug-In . SVG Version: 6.00 Build 0)  -->
<!DOCTYPE svg PUBLIC "-//W3C//DTD SVG 1.1//EN" "http://www.w3.org/Graphics/SVG/1.1/DTD/svg11.dtd">
<svg version="1.1" id="Layer_1" xmlns="http://www.w3.org/2000/svg" xmlns:xlink="http://www.w3.org/1999/xlink" x="0px" y="0px"
	 width="70px" height="70px" viewBox="0 0 70 70" enable-background="new 0 0 70 70" xml:space="preserve">
<path fill="none" stroke="#FFFFFF" stroke-miterlimit="10" d="M44.44,35.566c0.577-0.577,0.81-1.373,0.81-2.254
	c0-0.941-0.479-1.778-1.127-2.361c0.042-0.207,0.033-0.42,0.033-0.639c0-1.405-0.932-2.585-2.194-3.009
	c-0.424-1.263-1.61-2.179-3.017-2.179c-0.821,0-1.565,0.318-2.131,0.829c-0.511-1.078-1.603-1.829-2.875-1.829
	c-1.071,0-2.014,0.532-2.592,1.342c-0.427-0.212-0.9-0.342-1.41-0.342c-1.342,0-2.484,0.831-2.955,2.004
	c-0.016,0-0.029-0.004-0.045-0.004c-1.761,0-3.188,1.428-3.188,3.188c0,0.219,0.022,0.432,0.064,0.639
	c-0.648,0.583-1.064,1.42-1.064,2.361c0,1.76,1.427,3.188,3.188,3.188H30"/>
<line fill="none" stroke="#FFFFFF" stroke-miterlimit="10" x1="23.814" y1="30.951" x2="26.375" y2="31.5"/>
<line fill="none" stroke="#FFFFFF" stroke-miterlimit="10" x1="30.5" y1="25" x2="30.5" y2="28"/>
<path fill="none" stroke="#FFFFFF" stroke-miterlimit="10" d="M32.348,28.883c0,0-2.051-2.697-2.931,1.617"/>
<circle fill="none" stroke="#FFFFFF" stroke-miterlimit="10" cx="37" cy="35.666" r="5.166"/>
<line fill="none" stroke="#FFFFFF" stroke-miterlimit="10" x1="39.75" y1="40.032" x2="45.25" y2="46"/>
<line fill="none" stroke="#FFFFFF" stroke-miterlimit="10" x1="42.165" y1="27.664" x2="40.25" y2="29.25"/>
</svg>
