<?xml version="1.0" encoding="utf-8"?>
<!-- Generator: Adobe Illustrator 16.0.0, SVG Export Plug-In . SVG Version: 6.00 Build 0)  -->
<!DOCTYPE svg PUBLIC "-//W3C//DTD SVG 1.1//EN" "http://www.w3.org/Graphics/SVG/1.1/DTD/svg11.dtd">
<svg version="1.1" id="Layer_1" xmlns="http://www.w3.org/2000/svg" xmlns:xlink="http://www.w3.org/1999/xlink" x="0px" y="0px"
	 width="466.483px" height="338.559px" viewBox="0 0 466.483 338.559" enable-background="new 0 0 466.483 338.559"
	 xml:space="preserve">
<path opacity="0.5" fill="#70C3D1" d="M272.628,139.487c0,75.283-61.031,136.314-136.312,136.314
	C61.031,275.801,0,214.771,0,139.487C0,64.202,61.031,3.171,136.316,3.171C211.597,3.171,272.628,64.202,272.628,139.487z"/>
<circle opacity="0.5" fill="#E25959" cx="330.167" cy="136.316" r="136.317"/>
<g>
	<path fill="#70C3D1" d="M62.14,329.905V308.49h6.83c1.315,0,2.448,0.129,3.4,0.389c0.951,0.259,1.733,0.627,2.346,1.105
		c0.613,0.479,1.066,1.064,1.36,1.756s0.441,1.472,0.441,2.339c0,0.528-0.082,1.036-0.247,1.524
		c-0.165,0.488-0.414,0.942-0.747,1.36c-0.334,0.418-0.752,0.792-1.255,1.121c-0.503,0.329-1.094,0.598-1.771,0.807
		c1.564,0.309,2.745,0.872,3.542,1.688c0.797,0.817,1.195,1.893,1.195,3.229c0,0.906-0.167,1.733-0.5,2.48
		c-0.334,0.748-0.822,1.39-1.465,1.928c-0.643,0.538-1.43,0.954-2.361,1.248c-0.932,0.294-1.995,0.441-3.191,0.441H62.14z
		 M65.039,318.084h3.826c0.816,0,1.524-0.089,2.122-0.269c0.598-0.179,1.093-0.428,1.487-0.747s0.685-0.705,0.874-1.158
		c0.189-0.453,0.284-0.949,0.284-1.487c0-1.255-0.379-2.177-1.136-2.765c-0.757-0.587-1.933-0.881-3.527-0.881h-3.931V318.084z
		 M65.039,320.146v7.458h4.633c0.827,0,1.537-0.095,2.13-0.284c0.592-0.189,1.081-0.456,1.464-0.799
		c0.383-0.344,0.665-0.752,0.844-1.226c0.18-0.473,0.269-0.994,0.269-1.562c0-1.105-0.391-1.98-1.173-2.623
		c-0.782-0.643-1.965-0.964-3.549-0.964H65.039z"/>
	<path fill="#70C3D1" d="M90.548,327.604c0.887,0,1.679-0.149,2.376-0.449c0.697-0.299,1.288-0.717,1.771-1.255
		c0.483-0.538,0.852-1.18,1.106-1.928c0.254-0.747,0.381-1.569,0.381-2.466V308.49h2.884v13.017c0,1.235-0.197,2.381-0.59,3.438
		s-0.957,1.97-1.688,2.742c-0.732,0.772-1.627,1.377-2.683,1.816c-1.056,0.438-2.242,0.657-3.557,0.657
		c-1.315,0-2.5-0.219-3.557-0.657c-1.056-0.438-1.953-1.044-2.69-1.816s-1.303-1.686-1.696-2.742s-0.59-2.202-0.59-3.438V308.49
		h2.884v13.001c0,0.897,0.127,1.719,0.381,2.466c0.254,0.747,0.623,1.39,1.105,1.928c0.483,0.538,1.076,0.959,1.779,1.263
		C88.867,327.452,89.662,327.604,90.548,327.604z"/>
	<path fill="#70C3D1" d="M115.76,311.837c-0.09,0.149-0.185,0.261-0.284,0.336s-0.229,0.112-0.389,0.112
		c-0.169,0-0.366-0.084-0.59-0.254c-0.225-0.169-0.508-0.356-0.852-0.561s-0.757-0.391-1.24-0.561
		c-0.483-0.169-1.069-0.254-1.756-0.254c-0.647,0-1.22,0.087-1.718,0.261c-0.499,0.175-0.915,0.411-1.248,0.71
		c-0.334,0.299-0.585,0.65-0.755,1.054s-0.254,0.839-0.254,1.308c0,0.598,0.147,1.094,0.441,1.487
		c0.293,0.394,0.682,0.73,1.166,1.009c0.483,0.279,1.031,0.521,1.644,0.725s1.24,0.416,1.883,0.635
		c0.643,0.22,1.271,0.466,1.883,0.74s1.161,0.62,1.644,1.039c0.483,0.418,0.872,0.932,1.166,1.539
		c0.293,0.608,0.441,1.355,0.441,2.242c0,0.937-0.16,1.816-0.479,2.638c-0.319,0.822-0.785,1.537-1.397,2.145
		c-0.613,0.608-1.365,1.086-2.257,1.435s-1.905,0.523-3.041,0.523c-1.385,0-2.648-0.251-3.789-0.755
		c-1.141-0.503-2.115-1.183-2.922-2.04l0.837-1.375c0.08-0.109,0.177-0.202,0.292-0.276c0.114-0.075,0.241-0.112,0.381-0.112
		c0.209,0,0.449,0.112,0.718,0.336c0.269,0.224,0.605,0.471,1.009,0.74c0.403,0.269,0.891,0.516,1.464,0.74
		c0.573,0.224,1.272,0.336,2.1,0.336c0.688,0,1.3-0.095,1.838-0.284c0.538-0.189,0.994-0.456,1.367-0.8s0.66-0.755,0.859-1.233
		s0.299-1.011,0.299-1.599c0-0.647-0.147-1.178-0.441-1.591c-0.294-0.414-0.68-0.76-1.158-1.039
		c-0.478-0.279-1.023-0.516-1.636-0.709c-0.613-0.194-1.24-0.394-1.883-0.598c-0.643-0.204-1.271-0.441-1.883-0.71
		c-0.613-0.269-1.158-0.617-1.636-1.046c-0.479-0.428-0.865-0.964-1.158-1.606c-0.294-0.643-0.441-1.437-0.441-2.384
		c0-0.757,0.147-1.489,0.441-2.197c0.293-0.708,0.72-1.335,1.278-1.883c0.558-0.547,1.248-0.986,2.07-1.315
		c0.822-0.329,1.766-0.493,2.832-0.493c1.195,0,2.286,0.189,3.272,0.568c0.986,0.379,1.848,0.927,2.585,1.644L115.76,311.837z"/>
	<path fill="#70C3D1" d="M124.816,329.905h-2.899V308.49h2.899V329.905z"/>
	<path fill="#70C3D1" d="M133.373,308.587c0.124,0.065,0.266,0.197,0.426,0.396l12.404,16.14c-0.03-0.259-0.05-0.511-0.06-0.755
		c-0.01-0.244-0.015-0.48-0.015-0.71V308.49h2.541v21.416h-1.464c-0.229,0-0.421-0.04-0.575-0.12
		c-0.155-0.08-0.307-0.214-0.456-0.403l-12.389-16.125c0.02,0.25,0.035,0.493,0.045,0.732c0.01,0.239,0.015,0.458,0.015,0.658
		v15.258h-2.541V308.49h1.494C133.056,308.49,133.248,308.522,133.373,308.587z"/>
	<path fill="#70C3D1" d="M167.842,308.49v2.361H157.56v7.113h8.324v2.272h-8.324v7.308h10.282v2.361h-13.196V308.49H167.842z"/>
	<path fill="#70C3D1" d="M183.728,311.837c-0.09,0.149-0.185,0.261-0.284,0.336s-0.229,0.112-0.389,0.112
		c-0.169,0-0.366-0.084-0.59-0.254c-0.225-0.169-0.508-0.356-0.852-0.561s-0.757-0.391-1.24-0.561
		c-0.483-0.169-1.069-0.254-1.756-0.254c-0.647,0-1.22,0.087-1.718,0.261c-0.499,0.175-0.915,0.411-1.248,0.71
		c-0.334,0.299-0.585,0.65-0.755,1.054s-0.254,0.839-0.254,1.308c0,0.598,0.147,1.094,0.441,1.487
		c0.293,0.394,0.682,0.73,1.166,1.009c0.483,0.279,1.031,0.521,1.644,0.725s1.24,0.416,1.883,0.635
		c0.643,0.22,1.271,0.466,1.883,0.74s1.161,0.62,1.644,1.039c0.483,0.418,0.872,0.932,1.166,1.539
		c0.293,0.608,0.441,1.355,0.441,2.242c0,0.937-0.16,1.816-0.479,2.638c-0.319,0.822-0.785,1.537-1.397,2.145
		c-0.613,0.608-1.365,1.086-2.257,1.435s-1.905,0.523-3.041,0.523c-1.385,0-2.648-0.251-3.789-0.755
		c-1.141-0.503-2.115-1.183-2.922-2.04l0.837-1.375c0.08-0.109,0.177-0.202,0.292-0.276c0.114-0.075,0.241-0.112,0.381-0.112
		c0.209,0,0.449,0.112,0.718,0.336c0.269,0.224,0.605,0.471,1.009,0.74c0.403,0.269,0.891,0.516,1.464,0.74
		c0.573,0.224,1.272,0.336,2.1,0.336c0.688,0,1.3-0.095,1.838-0.284c0.538-0.189,0.994-0.456,1.367-0.8s0.66-0.755,0.859-1.233
		s0.299-1.011,0.299-1.599c0-0.647-0.147-1.178-0.441-1.591c-0.294-0.414-0.68-0.76-1.158-1.039
		c-0.478-0.279-1.023-0.516-1.636-0.709c-0.613-0.194-1.24-0.394-1.883-0.598c-0.643-0.204-1.271-0.441-1.883-0.71
		c-0.613-0.269-1.158-0.617-1.636-1.046c-0.479-0.428-0.865-0.964-1.158-1.606c-0.294-0.643-0.441-1.437-0.441-2.384
		c0-0.757,0.147-1.489,0.441-2.197c0.293-0.708,0.72-1.335,1.278-1.883c0.558-0.547,1.248-0.986,2.07-1.315
		c0.822-0.329,1.766-0.493,2.832-0.493c1.195,0,2.286,0.189,3.272,0.568c0.986,0.379,1.848,0.927,2.585,1.644L183.728,311.837z"/>
	<path fill="#70C3D1" d="M200.316,311.837c-0.09,0.149-0.185,0.261-0.284,0.336s-0.229,0.112-0.389,0.112
		c-0.169,0-0.366-0.084-0.59-0.254c-0.225-0.169-0.508-0.356-0.852-0.561s-0.757-0.391-1.24-0.561
		c-0.483-0.169-1.069-0.254-1.756-0.254c-0.647,0-1.22,0.087-1.718,0.261c-0.499,0.175-0.915,0.411-1.248,0.71
		c-0.334,0.299-0.585,0.65-0.755,1.054s-0.254,0.839-0.254,1.308c0,0.598,0.147,1.094,0.441,1.487
		c0.293,0.394,0.682,0.73,1.166,1.009c0.483,0.279,1.031,0.521,1.644,0.725s1.24,0.416,1.883,0.635
		c0.643,0.22,1.271,0.466,1.883,0.74s1.161,0.62,1.644,1.039c0.483,0.418,0.872,0.932,1.166,1.539
		c0.293,0.608,0.441,1.355,0.441,2.242c0,0.937-0.16,1.816-0.479,2.638c-0.319,0.822-0.785,1.537-1.397,2.145
		c-0.613,0.608-1.365,1.086-2.257,1.435s-1.905,0.523-3.041,0.523c-1.385,0-2.648-0.251-3.789-0.755
		c-1.141-0.503-2.115-1.183-2.922-2.04l0.837-1.375c0.08-0.109,0.177-0.202,0.292-0.276c0.114-0.075,0.241-0.112,0.381-0.112
		c0.209,0,0.449,0.112,0.718,0.336c0.269,0.224,0.605,0.471,1.009,0.74c0.403,0.269,0.891,0.516,1.464,0.74
		c0.573,0.224,1.272,0.336,2.1,0.336c0.688,0,1.3-0.095,1.838-0.284c0.538-0.189,0.994-0.456,1.367-0.8s0.66-0.755,0.859-1.233
		s0.299-1.011,0.299-1.599c0-0.647-0.147-1.178-0.441-1.591c-0.294-0.414-0.68-0.76-1.158-1.039
		c-0.478-0.279-1.023-0.516-1.636-0.709c-0.613-0.194-1.24-0.394-1.883-0.598c-0.643-0.204-1.271-0.441-1.883-0.71
		c-0.613-0.269-1.158-0.617-1.636-1.046c-0.479-0.428-0.865-0.964-1.158-1.606c-0.294-0.643-0.441-1.437-0.441-2.384
		c0-0.757,0.147-1.489,0.441-2.197c0.293-0.708,0.72-1.335,1.278-1.883c0.558-0.547,1.248-0.986,2.07-1.315
		c0.822-0.329,1.766-0.493,2.832-0.493c1.195,0,2.286,0.189,3.272,0.568c0.986,0.379,1.848,0.927,2.585,1.644L200.316,311.837z"/>
</g>
<g>
	<path fill="#E25959" d="M304.921,327.604c0.887,0,1.679-0.149,2.376-0.449c0.697-0.299,1.288-0.717,1.771-1.255
		c0.483-0.538,0.852-1.18,1.106-1.928c0.254-0.747,0.381-1.569,0.381-2.466V308.49h2.884v13.017c0,1.235-0.197,2.381-0.59,3.438
		s-0.957,1.97-1.688,2.742c-0.732,0.772-1.627,1.377-2.683,1.816c-1.056,0.438-2.242,0.657-3.557,0.657
		c-1.315,0-2.5-0.219-3.557-0.657c-1.056-0.438-1.953-1.044-2.69-1.816s-1.303-1.686-1.696-2.742s-0.59-2.202-0.59-3.438V308.49
		h2.884v13.001c0,0.897,0.127,1.719,0.381,2.466c0.254,0.747,0.623,1.39,1.105,1.928c0.483,0.538,1.076,0.959,1.779,1.263
		C303.24,327.452,304.035,327.604,304.921,327.604z"/>
	<path fill="#E25959" d="M330.133,311.837c-0.09,0.149-0.185,0.261-0.284,0.336s-0.229,0.112-0.389,0.112
		c-0.169,0-0.366-0.084-0.59-0.254c-0.225-0.169-0.508-0.356-0.852-0.561s-0.757-0.391-1.24-0.561
		c-0.483-0.169-1.069-0.254-1.756-0.254c-0.647,0-1.22,0.087-1.718,0.261c-0.499,0.175-0.915,0.411-1.248,0.71
		c-0.334,0.299-0.585,0.65-0.755,1.054s-0.254,0.839-0.254,1.308c0,0.598,0.147,1.094,0.441,1.487
		c0.293,0.394,0.682,0.73,1.166,1.009c0.483,0.279,1.031,0.521,1.644,0.725s1.24,0.416,1.883,0.635
		c0.643,0.22,1.271,0.466,1.883,0.74s1.161,0.62,1.644,1.039c0.483,0.418,0.872,0.932,1.166,1.539
		c0.293,0.608,0.441,1.355,0.441,2.242c0,0.937-0.16,1.816-0.479,2.638c-0.319,0.822-0.785,1.537-1.397,2.145
		c-0.613,0.608-1.365,1.086-2.257,1.435s-1.905,0.523-3.041,0.523c-1.385,0-2.648-0.251-3.789-0.755
		c-1.141-0.503-2.115-1.183-2.922-2.04l0.837-1.375c0.08-0.109,0.177-0.202,0.292-0.276c0.114-0.075,0.241-0.112,0.381-0.112
		c0.209,0,0.449,0.112,0.718,0.336c0.269,0.224,0.605,0.471,1.009,0.74c0.403,0.269,0.891,0.516,1.464,0.74
		c0.573,0.224,1.272,0.336,2.1,0.336c0.688,0,1.3-0.095,1.838-0.284c0.538-0.189,0.994-0.456,1.367-0.8s0.66-0.755,0.859-1.233
		s0.299-1.011,0.299-1.599c0-0.647-0.147-1.178-0.441-1.591c-0.294-0.414-0.68-0.76-1.158-1.039
		c-0.478-0.279-1.023-0.516-1.636-0.709c-0.613-0.194-1.24-0.394-1.883-0.598c-0.643-0.204-1.271-0.441-1.883-0.71
		c-0.613-0.269-1.158-0.617-1.636-1.046c-0.479-0.428-0.865-0.964-1.158-1.606c-0.294-0.643-0.441-1.437-0.441-2.384
		c0-0.757,0.147-1.489,0.441-2.197c0.293-0.708,0.72-1.335,1.278-1.883c0.558-0.547,1.248-0.986,2.07-1.315
		c0.822-0.329,1.766-0.493,2.832-0.493c1.195,0,2.286,0.189,3.272,0.568c0.986,0.379,1.848,0.927,2.585,1.644L330.133,311.837z"/>
	<path fill="#E25959" d="M348.948,308.49v2.361h-10.282v7.113h8.324v2.272h-8.324v7.308h10.282v2.361h-13.196V308.49H348.948z"/>
	<path fill="#E25959" d="M357.048,320.968v8.937h-2.884V308.49h6.052c1.355,0,2.526,0.137,3.512,0.411
		c0.986,0.274,1.801,0.67,2.443,1.188s1.118,1.143,1.427,1.875c0.309,0.732,0.463,1.552,0.463,2.458c0,0.757-0.12,1.464-0.359,2.122
		c-0.239,0.657-0.585,1.248-1.039,1.771c-0.454,0.523-1.006,0.969-1.659,1.337c-0.653,0.369-1.393,0.647-2.219,0.837
		c0.358,0.209,0.677,0.513,0.956,0.912l6.247,8.503h-2.57c-0.528,0-0.917-0.204-1.166-0.613l-5.559-7.651
		c-0.169-0.239-0.354-0.411-0.553-0.516c-0.199-0.105-0.498-0.157-0.896-0.157H357.048z M357.048,318.861h3.034
		c0.847,0,1.591-0.102,2.234-0.307c0.643-0.204,1.18-0.493,1.614-0.867s0.76-0.819,0.979-1.337c0.219-0.518,0.329-1.091,0.329-1.719
		c0-1.275-0.421-2.236-1.263-2.884c-0.842-0.647-2.095-0.971-3.759-0.971h-3.168V318.861z"/>
</g>
<g>
	<path fill="#606161" d="M103.389,115.789c0.105,0.25,0.208,0.501,0.31,0.755c0.101-0.261,0.207-0.518,0.315-0.772
		c0.109-0.253,0.225-0.496,0.348-0.728l4.652-8.706c0.058-0.108,0.118-0.196,0.179-0.261c0.062-0.065,0.13-0.112,0.207-0.141
		c0.076-0.029,0.161-0.047,0.255-0.055c0.094-0.007,0.207-0.011,0.337-0.011h2.206v15.716h-2.576v-10.151
		c0-0.188,0.005-0.395,0.016-0.62c0.011-0.225,0.027-0.453,0.049-0.685l-4.75,8.912c-0.108,0.203-0.25,0.361-0.424,0.473
		s-0.377,0.168-0.608,0.168h-0.402c-0.232,0-0.435-0.056-0.608-0.168c-0.174-0.112-0.315-0.27-0.424-0.473l-4.814-8.945
		c0.029,0.239,0.049,0.473,0.06,0.701c0.011,0.228,0.016,0.44,0.016,0.636v10.151h-2.576v-15.716h2.207
		c0.13,0,0.243,0.004,0.337,0.011c0.094,0.007,0.179,0.025,0.255,0.055c0.076,0.029,0.146,0.076,0.212,0.141
		c0.065,0.065,0.126,0.152,0.185,0.261l4.695,8.728C103.169,115.297,103.284,115.539,103.389,115.789z"/>
	<path fill="#606161" d="M132.077,113.729c0,1.152-0.192,2.219-0.576,3.201c-0.384,0.982-0.924,1.832-1.62,2.549
		c-0.695,0.717-1.532,1.277-2.511,1.679c-0.978,0.402-2.062,0.603-3.25,0.603c-1.188,0-2.273-0.201-3.255-0.603
		c-0.982-0.402-1.822-0.962-2.521-1.679s-1.241-1.567-1.625-2.549s-0.576-2.049-0.576-3.201c0-1.152,0.192-2.219,0.576-3.201
		s0.926-1.832,1.625-2.549s1.54-1.277,2.521-1.679c0.982-0.402,2.067-0.603,3.255-0.603c1.188,0,2.271,0.203,3.25,0.608
		c0.979,0.406,1.815,0.966,2.511,1.679c0.696,0.714,1.235,1.562,1.62,2.543C131.885,111.51,132.077,112.577,132.077,113.729z
		 M129.077,113.729c0-0.862-0.114-1.636-0.342-2.321c-0.229-0.685-0.556-1.266-0.984-1.744c-0.427-0.479-0.947-0.844-1.56-1.098
		c-0.612-0.253-1.303-0.38-2.07-0.38c-0.768,0-1.46,0.127-2.076,0.38c-0.616,0.254-1.14,0.62-1.57,1.098
		c-0.431,0.478-0.763,1.06-0.995,1.744s-0.348,1.458-0.348,2.321s0.116,1.636,0.348,2.32s0.563,1.265,0.995,1.739
		c0.431,0.475,0.955,0.839,1.57,1.092c0.616,0.254,1.308,0.381,2.076,0.381c0.768,0,1.458-0.127,2.07-0.381
		c0.612-0.253,1.132-0.618,1.56-1.092c0.428-0.474,0.755-1.054,0.984-1.739C128.963,115.365,129.077,114.591,129.077,113.729z"/>
	<path fill="#606161" d="M139.033,115.446v6.141h-2.924v-15.716h4.793c1.072,0,1.991,0.11,2.755,0.332
		c0.765,0.221,1.391,0.531,1.88,0.929s0.848,0.875,1.076,1.429c0.228,0.554,0.342,1.165,0.342,1.832c0,0.529-0.078,1.029-0.234,1.5
		c-0.156,0.471-0.38,0.898-0.674,1.282c-0.293,0.384-0.656,0.721-1.087,1.011c-0.431,0.29-0.922,0.522-1.473,0.696
		c0.37,0.21,0.688,0.511,0.957,0.902l3.935,5.804h-2.63c-0.253,0-0.469-0.051-0.646-0.152c-0.178-0.101-0.328-0.246-0.451-0.435
		l-3.304-5.032c-0.123-0.188-0.259-0.322-0.408-0.402c-0.148-0.08-0.368-0.12-0.657-0.12H139.033z M139.033,113.348h1.826
		c0.55,0,1.03-0.068,1.44-0.207c0.409-0.137,0.746-0.328,1.011-0.57s0.462-0.531,0.592-0.864c0.13-0.333,0.196-0.699,0.196-1.098
		c0-0.797-0.263-1.409-0.788-1.837c-0.525-0.427-1.328-0.641-2.407-0.641h-1.87V113.348z"/>
	<path fill="#606161" d="M161.792,105.871v2.326h-6.967v4.358h5.489v2.25h-5.489v4.445h6.967v2.337h-9.912v-15.716H161.792z"/>
	<path fill="#606161" d="M106.536,145.313c0.565,0,1.07-0.094,1.516-0.283s0.822-0.453,1.13-0.793
		c0.308-0.34,0.543-0.753,0.707-1.239c0.163-0.485,0.245-1.028,0.245-1.63v-9.413h2.923v9.413c0,0.935-0.15,1.799-0.451,2.592
		c-0.301,0.793-0.734,1.479-1.299,2.054c-0.565,0.576-1.25,1.025-2.054,1.348c-0.805,0.322-1.71,0.483-2.717,0.483
		c-1.007,0-1.913-0.161-2.717-0.483c-0.804-0.323-1.487-0.772-2.049-1.348c-0.562-0.576-0.993-1.261-1.293-2.054
		c-0.301-0.793-0.451-1.657-0.451-2.592v-9.413h2.924v9.401c0,0.602,0.082,1.145,0.245,1.63c0.163,0.486,0.397,0.9,0.701,1.245
		s0.679,0.61,1.125,0.799C105.465,145.219,105.97,145.313,106.536,145.313z"/>
	<path fill="#606161" d="M126.088,134.814c-0.08,0.16-0.172,0.272-0.277,0.337c-0.105,0.065-0.23,0.098-0.375,0.098
		s-0.308-0.056-0.489-0.168c-0.181-0.112-0.395-0.237-0.642-0.375c-0.246-0.138-0.534-0.263-0.864-0.375
		c-0.33-0.112-0.719-0.168-1.168-0.168c-0.406,0-0.759,0.049-1.06,0.146c-0.301,0.098-0.555,0.234-0.761,0.408
		s-0.36,0.382-0.462,0.625s-0.152,0.509-0.152,0.799c0,0.37,0.103,0.678,0.31,0.924c0.207,0.247,0.48,0.457,0.821,0.63
		c0.34,0.174,0.728,0.33,1.163,0.467c0.435,0.138,0.879,0.285,1.332,0.44s0.897,0.337,1.332,0.543
		c0.435,0.206,0.822,0.467,1.163,0.782c0.34,0.315,0.614,0.701,0.82,1.158s0.31,1.011,0.31,1.663c0,0.71-0.122,1.375-0.364,1.994
		s-0.598,1.16-1.065,1.62c-0.468,0.46-1.038,0.822-1.712,1.087c-0.674,0.264-1.446,0.396-2.315,0.396
		c-0.5,0-0.993-0.049-1.479-0.146c-0.485-0.098-0.951-0.237-1.396-0.418s-0.862-0.398-1.25-0.652
		c-0.388-0.253-0.733-0.536-1.038-0.848l0.848-1.402c0.08-0.101,0.175-0.186,0.288-0.255c0.112-0.069,0.237-0.103,0.375-0.103
		c0.181,0,0.377,0.074,0.587,0.223c0.21,0.149,0.458,0.313,0.745,0.495s0.623,0.346,1.011,0.495s0.854,0.223,1.397,0.223
		c0.833,0,1.478-0.197,1.935-0.592s0.685-0.962,0.685-1.701c0-0.413-0.103-0.75-0.31-1.011s-0.48-0.48-0.821-0.657
		c-0.341-0.178-0.728-0.328-1.163-0.451c-0.435-0.123-0.876-0.257-1.326-0.402c-0.45-0.145-0.892-0.319-1.326-0.521
		c-0.435-0.203-0.822-0.467-1.163-0.793c-0.34-0.326-0.614-0.734-0.82-1.223c-0.207-0.489-0.31-1.092-0.31-1.81
		c0-0.572,0.114-1.13,0.343-1.673c0.228-0.543,0.561-1.025,1-1.446c0.438-0.42,0.977-0.757,1.614-1.011
		c0.638-0.253,1.366-0.38,2.185-0.38c0.927,0,1.783,0.145,2.565,0.435c0.783,0.29,1.449,0.696,2,1.217L126.088,134.814z"/>
	<path fill="#606161" d="M140.87,131.956v2.326h-6.967v4.358h5.489v2.25h-5.489v4.445h6.967v2.337h-9.912v-15.716H140.87z"/>
	<path fill="#606161" d="M148.054,141.531v6.141h-2.924v-15.716h4.793c1.072,0,1.991,0.11,2.755,0.332
		c0.765,0.221,1.391,0.531,1.88,0.929s0.848,0.875,1.076,1.429c0.228,0.554,0.342,1.165,0.342,1.832c0,0.529-0.078,1.029-0.234,1.5
		c-0.156,0.471-0.38,0.898-0.674,1.282c-0.293,0.384-0.656,0.721-1.087,1.011c-0.431,0.29-0.922,0.522-1.473,0.696
		c0.37,0.21,0.688,0.511,0.957,0.902l3.935,5.804h-2.63c-0.253,0-0.469-0.051-0.646-0.152c-0.178-0.101-0.328-0.246-0.451-0.435
		l-3.304-5.032c-0.123-0.188-0.259-0.322-0.408-0.402c-0.148-0.08-0.368-0.12-0.657-0.12H148.054z M148.054,139.433h1.826
		c0.55,0,1.03-0.068,1.44-0.207c0.409-0.137,0.746-0.328,1.011-0.57s0.462-0.531,0.592-0.864c0.13-0.333,0.196-0.699,0.196-1.098
		c0-0.797-0.263-1.409-0.788-1.837c-0.525-0.427-1.328-0.641-2.407-0.641h-1.87V139.433z"/>
	<path fill="#606161" d="M95.433,160.899c-0.08,0.16-0.172,0.272-0.277,0.337c-0.105,0.065-0.23,0.098-0.375,0.098
		s-0.308-0.056-0.489-0.168c-0.181-0.112-0.395-0.237-0.642-0.375c-0.246-0.138-0.534-0.263-0.864-0.375
		c-0.33-0.112-0.719-0.168-1.168-0.168c-0.406,0-0.759,0.049-1.06,0.146c-0.301,0.098-0.555,0.234-0.761,0.408
		s-0.36,0.382-0.462,0.625s-0.152,0.509-0.152,0.799c0,0.37,0.103,0.678,0.31,0.924c0.207,0.247,0.48,0.457,0.821,0.63
		c0.34,0.174,0.728,0.33,1.163,0.467c0.435,0.138,0.879,0.285,1.332,0.44s0.897,0.337,1.332,0.543
		c0.435,0.206,0.822,0.467,1.163,0.782c0.34,0.315,0.614,0.701,0.82,1.158s0.31,1.011,0.31,1.663c0,0.71-0.122,1.375-0.364,1.994
		s-0.598,1.16-1.065,1.62c-0.468,0.46-1.038,0.822-1.712,1.087c-0.674,0.264-1.446,0.396-2.315,0.396
		c-0.5,0-0.993-0.049-1.479-0.146c-0.485-0.098-0.951-0.237-1.396-0.418s-0.862-0.398-1.25-0.652
		c-0.388-0.253-0.733-0.536-1.038-0.848l0.848-1.402c0.08-0.101,0.175-0.186,0.288-0.255c0.112-0.069,0.237-0.103,0.375-0.103
		c0.181,0,0.377,0.074,0.587,0.223c0.21,0.149,0.458,0.313,0.745,0.495s0.623,0.346,1.011,0.495s0.854,0.223,1.397,0.223
		c0.833,0,1.478-0.197,1.935-0.592s0.685-0.962,0.685-1.701c0-0.413-0.103-0.75-0.31-1.011s-0.48-0.48-0.821-0.657
		c-0.341-0.178-0.728-0.328-1.163-0.451c-0.435-0.123-0.876-0.257-1.326-0.402c-0.45-0.145-0.892-0.319-1.326-0.521
		c-0.435-0.203-0.822-0.467-1.163-0.793c-0.34-0.326-0.614-0.734-0.82-1.223c-0.207-0.489-0.31-1.092-0.31-1.81
		c0-0.572,0.114-1.13,0.343-1.673c0.228-0.543,0.561-1.025,1-1.446c0.438-0.42,0.977-0.757,1.614-1.011
		c0.638-0.253,1.366-0.38,2.185-0.38c0.927,0,1.783,0.145,2.565,0.435c0.783,0.29,1.449,0.696,2,1.217L95.433,160.899z"/>
	<path fill="#606161" d="M103.595,173.757h-2.935v-15.716h2.935V173.757z"/>
	<path fill="#606161" d="M115.975,171.605c0.659,0,1.233-0.06,1.723-0.18c0.489-0.119,0.955-0.284,1.396-0.494v-2.859h-1.967
		c-0.189,0-0.337-0.052-0.446-0.157s-0.163-0.234-0.163-0.386v-1.652h5.228v6.358c-0.399,0.29-0.813,0.542-1.245,0.755
		s-0.891,0.39-1.38,0.527c-0.489,0.138-1.013,0.241-1.57,0.31c-0.558,0.069-1.16,0.103-1.804,0.103
		c-1.145,0-2.199-0.199-3.163-0.598s-1.797-0.953-2.5-1.663c-0.703-0.71-1.252-1.558-1.647-2.543s-0.592-2.062-0.592-3.228
		c0-1.181,0.192-2.265,0.576-3.25c0.384-0.985,0.929-1.833,1.636-2.543c0.707-0.71,1.563-1.261,2.57-1.652s2.138-0.587,3.391-0.587
		c1.283,0,2.393,0.19,3.332,0.57c0.938,0.381,1.733,0.875,2.386,1.484l-0.848,1.326c-0.167,0.268-0.388,0.402-0.663,0.402
		c-0.174,0-0.351-0.058-0.532-0.174c-0.232-0.138-0.469-0.275-0.712-0.413c-0.243-0.138-0.511-0.257-0.804-0.358
		s-0.624-0.185-0.989-0.25c-0.366-0.065-0.788-0.098-1.266-0.098c-0.775,0-1.477,0.13-2.103,0.392
		c-0.627,0.261-1.162,0.634-1.604,1.119c-0.442,0.486-0.782,1.069-1.021,1.75s-0.359,1.442-0.359,2.283
		c0,0.906,0.127,1.711,0.38,2.418c0.254,0.707,0.609,1.303,1.065,1.788s1,0.857,1.63,1.114
		C114.541,171.477,115.229,171.605,115.975,171.605z"/>
	<path fill="#606161" d="M127.963,158.057c0.087,0.011,0.165,0.033,0.234,0.065s0.136,0.08,0.201,0.141
		c0.065,0.062,0.137,0.144,0.217,0.245l8.25,10.51c-0.029-0.253-0.049-0.501-0.06-0.745c-0.011-0.243-0.016-0.469-0.016-0.679
		v-9.554h2.576v15.716h-1.511c-0.232,0-0.424-0.036-0.576-0.109c-0.152-0.072-0.3-0.203-0.445-0.391l-8.217-10.467
		c0.021,0.232,0.038,0.462,0.049,0.69c0.011,0.228,0.016,0.437,0.016,0.625v9.651h-2.576v-15.716h1.532
		C127.768,158.041,127.876,158.046,127.963,158.057z"/>
	<path fill="#606161" d="M157.982,173.757h-2.26c-0.254,0-0.462-0.063-0.625-0.19c-0.163-0.126-0.281-0.284-0.354-0.473
		l-1.174-3.206h-6.51l-1.174,3.206c-0.058,0.167-0.172,0.319-0.342,0.457c-0.17,0.138-0.379,0.207-0.625,0.207h-2.271l6.173-15.716
		h2.989L157.982,173.757z M147.81,167.823h5.01l-1.913-5.228c-0.087-0.232-0.183-0.505-0.288-0.821
		c-0.105-0.315-0.208-0.658-0.31-1.027c-0.102,0.369-0.201,0.713-0.299,1.032c-0.098,0.319-0.194,0.598-0.288,0.837L147.81,167.823z
		"/>
	<path fill="#606161" d="M164.156,171.344h6.293v2.413h-9.217v-15.716h2.924V171.344z"/>
</g>
<g>
	<path fill="#606161" d="M308.722,128.44h6.293v2.413h-9.217v-15.716h2.924V128.44z"/>
	<path fill="#606161" d="M328.579,115.137v2.326h-6.967v4.358h5.489v2.25h-5.489v4.445h6.967v2.337h-9.912v-15.716H328.579z"/>
	<path fill="#606161" d="M341.165,117.996c-0.08,0.16-0.172,0.272-0.277,0.337c-0.105,0.065-0.23,0.098-0.375,0.098
		s-0.308-0.056-0.489-0.168c-0.181-0.112-0.395-0.237-0.642-0.375c-0.246-0.138-0.534-0.263-0.864-0.375
		c-0.33-0.112-0.719-0.168-1.168-0.168c-0.406,0-0.759,0.049-1.06,0.146c-0.301,0.098-0.555,0.234-0.761,0.408
		s-0.36,0.382-0.462,0.625s-0.152,0.509-0.152,0.799c0,0.37,0.103,0.678,0.31,0.924c0.207,0.247,0.48,0.457,0.821,0.63
		c0.34,0.174,0.728,0.33,1.163,0.467c0.435,0.138,0.879,0.285,1.332,0.44s0.897,0.337,1.332,0.543
		c0.435,0.206,0.822,0.467,1.163,0.782c0.34,0.315,0.614,0.701,0.82,1.158s0.31,1.011,0.31,1.663c0,0.71-0.122,1.375-0.364,1.994
		s-0.598,1.16-1.065,1.62c-0.468,0.46-1.038,0.822-1.712,1.087c-0.674,0.264-1.446,0.396-2.315,0.396
		c-0.5,0-0.993-0.049-1.479-0.146c-0.485-0.098-0.951-0.237-1.396-0.418s-0.862-0.398-1.25-0.652
		c-0.388-0.253-0.733-0.536-1.038-0.848l0.848-1.402c0.08-0.101,0.175-0.186,0.288-0.255c0.112-0.069,0.237-0.103,0.375-0.103
		c0.181,0,0.377,0.074,0.587,0.223c0.21,0.149,0.458,0.313,0.745,0.495s0.623,0.346,1.011,0.495s0.854,0.223,1.397,0.223
		c0.833,0,1.478-0.197,1.935-0.592s0.685-0.962,0.685-1.701c0-0.413-0.103-0.75-0.31-1.011s-0.48-0.48-0.821-0.657
		c-0.341-0.178-0.728-0.328-1.163-0.451c-0.435-0.123-0.876-0.257-1.326-0.402c-0.45-0.145-0.892-0.319-1.326-0.521
		c-0.435-0.203-0.822-0.467-1.163-0.793c-0.34-0.326-0.614-0.734-0.82-1.223c-0.207-0.489-0.31-1.092-0.31-1.81
		c0-0.572,0.114-1.13,0.343-1.673c0.228-0.543,0.561-1.025,1-1.446c0.438-0.42,0.977-0.757,1.614-1.011
		c0.638-0.253,1.366-0.38,2.185-0.38c0.927,0,1.783,0.145,2.565,0.435c0.783,0.29,1.449,0.696,2,1.217L341.165,117.996z"/>
	<path fill="#606161" d="M354.458,117.996c-0.08,0.16-0.172,0.272-0.277,0.337c-0.105,0.065-0.23,0.098-0.375,0.098
		s-0.308-0.056-0.489-0.168c-0.181-0.112-0.395-0.237-0.642-0.375c-0.246-0.138-0.534-0.263-0.864-0.375
		c-0.33-0.112-0.719-0.168-1.168-0.168c-0.406,0-0.759,0.049-1.06,0.146c-0.301,0.098-0.555,0.234-0.761,0.408
		s-0.36,0.382-0.462,0.625s-0.152,0.509-0.152,0.799c0,0.37,0.103,0.678,0.31,0.924c0.207,0.247,0.48,0.457,0.821,0.63
		c0.34,0.174,0.728,0.33,1.163,0.467c0.435,0.138,0.879,0.285,1.332,0.44s0.897,0.337,1.332,0.543
		c0.435,0.206,0.822,0.467,1.163,0.782c0.34,0.315,0.614,0.701,0.82,1.158s0.31,1.011,0.31,1.663c0,0.71-0.122,1.375-0.364,1.994
		s-0.598,1.16-1.065,1.62c-0.468,0.46-1.038,0.822-1.712,1.087c-0.674,0.264-1.446,0.396-2.315,0.396
		c-0.5,0-0.993-0.049-1.479-0.146c-0.485-0.098-0.951-0.237-1.396-0.418s-0.862-0.398-1.25-0.652
		c-0.388-0.253-0.733-0.536-1.038-0.848l0.848-1.402c0.08-0.101,0.175-0.186,0.288-0.255c0.112-0.069,0.237-0.103,0.375-0.103
		c0.181,0,0.377,0.074,0.587,0.223c0.21,0.149,0.458,0.313,0.745,0.495s0.623,0.346,1.011,0.495s0.854,0.223,1.397,0.223
		c0.833,0,1.478-0.197,1.935-0.592s0.685-0.962,0.685-1.701c0-0.413-0.103-0.75-0.31-1.011s-0.48-0.48-0.821-0.657
		c-0.341-0.178-0.728-0.328-1.163-0.451c-0.435-0.123-0.876-0.257-1.326-0.402c-0.45-0.145-0.892-0.319-1.326-0.521
		c-0.435-0.203-0.822-0.467-1.163-0.793c-0.34-0.326-0.614-0.734-0.82-1.223c-0.207-0.489-0.31-1.092-0.31-1.81
		c0-0.572,0.114-1.13,0.343-1.673c0.228-0.543,0.561-1.025,1-1.446c0.438-0.42,0.977-0.757,1.614-1.011
		c0.638-0.253,1.366-0.38,2.185-0.38c0.927,0,1.783,0.145,2.565,0.435c0.783,0.29,1.449,0.696,2,1.217L354.458,117.996z"/>
	<path fill="#606161" d="M293.076,141.222h2.457c0.253,0,0.465,0.06,0.636,0.179c0.17,0.12,0.284,0.281,0.342,0.484l2.674,9.401
		c0.065,0.232,0.125,0.484,0.179,0.755c0.054,0.272,0.107,0.56,0.158,0.864c0.058-0.304,0.121-0.592,0.19-0.864
		c0.069-0.271,0.143-0.523,0.223-0.755l3.086-9.401c0.058-0.167,0.172-0.319,0.343-0.457c0.17-0.138,0.378-0.207,0.625-0.207h0.859
		c0.253,0,0.463,0.06,0.63,0.179c0.167,0.12,0.283,0.281,0.348,0.484l3.065,9.401c0.16,0.464,0.297,0.978,0.413,1.543
		c0.051-0.283,0.104-0.554,0.158-0.815c0.054-0.261,0.11-0.504,0.168-0.729l2.674-9.401c0.051-0.181,0.163-0.337,0.337-0.467
		s0.384-0.196,0.63-0.196h2.293l-4.88,15.716h-2.641l-3.435-10.738c-0.043-0.138-0.089-0.286-0.136-0.446
		c-0.047-0.159-0.092-0.33-0.136-0.511c-0.043,0.181-0.089,0.352-0.136,0.511c-0.047,0.16-0.093,0.308-0.136,0.446l-3.467,10.738
		h-2.641L293.076,141.222z"/>
	<path fill="#606161" d="M333.986,149.081c0,1.152-0.192,2.219-0.576,3.201c-0.384,0.982-0.924,1.832-1.62,2.549
		c-0.695,0.717-1.532,1.277-2.511,1.679c-0.978,0.402-2.062,0.603-3.25,0.603c-1.188,0-2.273-0.201-3.255-0.603
		c-0.982-0.402-1.822-0.962-2.521-1.679s-1.241-1.567-1.625-2.549s-0.576-2.049-0.576-3.201c0-1.152,0.192-2.219,0.576-3.201
		s0.926-1.832,1.625-2.549s1.54-1.277,2.521-1.679c0.982-0.402,2.067-0.603,3.255-0.603c1.188,0,2.271,0.203,3.25,0.608
		c0.979,0.406,1.815,0.966,2.511,1.679c0.696,0.714,1.235,1.562,1.62,2.543C333.793,146.861,333.986,147.928,333.986,149.081z
		 M330.986,149.081c0-0.862-0.114-1.636-0.342-2.321c-0.229-0.685-0.556-1.266-0.984-1.744c-0.427-0.479-0.947-0.844-1.56-1.098
		c-0.612-0.253-1.303-0.38-2.07-0.38c-0.768,0-1.46,0.127-2.076,0.38c-0.616,0.254-1.14,0.62-1.57,1.098
		c-0.431,0.478-0.763,1.06-0.995,1.744s-0.348,1.458-0.348,2.321s0.116,1.636,0.348,2.32s0.563,1.265,0.995,1.739
		c0.431,0.475,0.955,0.839,1.57,1.092c0.616,0.254,1.308,0.381,2.076,0.381c0.768,0,1.458-0.127,2.07-0.381
		c0.612-0.253,1.132-0.618,1.56-1.092c0.428-0.474,0.755-1.054,0.984-1.739C330.872,150.716,330.986,149.943,330.986,149.081z"/>
	<path fill="#606161" d="M340.942,150.797v6.141h-2.924v-15.716h4.793c1.072,0,1.991,0.11,2.755,0.332
		c0.765,0.221,1.391,0.531,1.88,0.929s0.848,0.875,1.076,1.429c0.228,0.554,0.342,1.165,0.342,1.832c0,0.529-0.078,1.029-0.234,1.5
		c-0.156,0.471-0.38,0.898-0.674,1.282c-0.293,0.384-0.656,0.721-1.087,1.011c-0.431,0.29-0.922,0.522-1.473,0.696
		c0.37,0.21,0.688,0.511,0.957,0.902l3.935,5.804h-2.63c-0.253,0-0.469-0.051-0.646-0.152c-0.178-0.101-0.328-0.246-0.451-0.435
		l-3.304-5.032c-0.123-0.188-0.259-0.322-0.408-0.402c-0.148-0.08-0.368-0.12-0.657-0.12H340.942z M340.942,148.7h1.826
		c0.55,0,1.03-0.068,1.44-0.207c0.409-0.137,0.746-0.328,1.011-0.57s0.462-0.531,0.592-0.864c0.13-0.333,0.196-0.699,0.196-1.098
		c0-0.797-0.263-1.409-0.788-1.837c-0.525-0.427-1.328-0.641-2.407-0.641h-1.87V148.7z"/>
	<path fill="#606161" d="M356.81,147.809h0.685c0.275,0,0.504-0.038,0.685-0.114c0.181-0.076,0.337-0.197,0.467-0.364l4.336-5.489
		c0.181-0.232,0.372-0.393,0.571-0.484c0.199-0.09,0.451-0.136,0.755-0.136h2.521l-5.293,6.532
		c-0.167,0.203-0.326,0.373-0.479,0.511c-0.152,0.138-0.315,0.25-0.489,0.337c0.239,0.087,0.455,0.21,0.646,0.37
		s0.378,0.362,0.56,0.608l5.457,7.358h-2.587c-0.348,0-0.607-0.049-0.777-0.147c-0.17-0.098-0.313-0.241-0.429-0.429l-4.445-5.804
		c-0.145-0.188-0.308-0.324-0.489-0.408c-0.181-0.083-0.438-0.125-0.771-0.125h-0.924v6.913h-2.924v-15.727h2.924V147.809z"/>
</g>
</svg>
