<?xml version="1.0" encoding="utf-8"?>
<!-- Generator: Adobe Illustrator 16.0.4, SVG Export Plug-In . SVG Version: 6.00 Build 0)  -->
<!DOCTYPE svg PUBLIC "-//W3C//DTD SVG 1.1//EN" "http://www.w3.org/Graphics/SVG/1.1/DTD/svg11.dtd">
<svg version="1.1" id="Layer_1" xmlns="http://www.w3.org/2000/svg" xmlns:xlink="http://www.w3.org/1999/xlink" x="0px" y="0px"
	 width="349px" height="102.273px" viewBox="0 0 349 102.273" enable-background="new 0 0 349 102.273" xml:space="preserve">
<g>
	<defs>
		<rect id="SVGID_1_" x="4.681" y="-6.006" width="338.772" height="114.609"/>
	</defs>
	<clipPath id="SVGID_2_">
		<use xlink:href="#SVGID_1_"  overflow="visible"/>
	</clipPath>
	<path clip-path="url(#SVGID_2_)" fill="#FFFFFF" d="M52.917,77.532c-3.249-6.397-7.062-12.849-14.497-12.849
		c-1.42,0-2.84,0.232-4.141,0.829l-2.524-5.054c3.077-2.64,8.047-4.739,14.443-4.739c9.943,0,15.045,4.794,19.097,10.907
		c2.41-5.221,3.551-12.273,3.551-21.009c0-21.82-6.824-33.028-22.766-33.028c-15.708,0-22.495,11.208-22.495,33.028
		c0,21.709,6.787,32.796,22.495,32.796C48.576,78.413,50.84,78.135,52.917,77.532 M56.81,85.149c-3.441,0.922-7.102,1.43-10.73,1.43
		c-20.92,0-41.399-16.686-41.399-40.963C4.681,21.111,25.16,4.42,46.08,4.42c21.267,0,41.554,16.575,41.554,41.196
		c0,13.7-6.393,24.828-15.683,32.023c3.003,4.496,6.091,7.483,10.395,7.483c4.695,0,6.591-3.629,6.905-6.473h6.115
		c0.359,3.788-1.537,19.537-18.627,19.537C66.39,98.186,60.914,92.185,56.81,85.149"/>
	<path clip-path="url(#SVGID_2_)" fill="#FFFFFF" d="M101.079,64.328V36.268c0-3.197-1.181-4.619-4.851-4.619h-3.91v-7.455h25.533
		v39.781c0,6.702,3.635,9.658,9.158,9.658c4.541,0,9.075-2.005,11.524-6.591V36.268c0-3.197-1.188-4.619-4.854-4.619h-4.145v-7.455
		h25.768v41.668c0,4.149,1.542,6.043,6.275,6.043h0.831v7.694l-23.046,3.67v-7.931h-0.475c-4.459,5.439-10.731,9.114-19.692,9.114
		C109.131,84.453,101.079,79.366,101.079,64.328"/>
	<path clip-path="url(#SVGID_2_)" fill="#FFFFFF" d="M195.926,76.994c9.078,0,12.527-7.898,12.708-23.797
		c0.18-15.554-3.629-23.083-12.708-23.083c-7.926,0-12.901,7.535-12.901,23.083C183.024,69.102,187.916,76.994,195.926,76.994
		 M195.926,84.453c-16.412,0-31.217-12.555-31.217-31.256c0-18.351,14.445-30.547,31.217-30.547
		c17.487,0,31.495,12.43,31.495,30.547C227.421,71.898,213.413,84.453,195.926,84.453"/>
	<path clip-path="url(#SVGID_2_)" fill="#FFFFFF" d="M227.948,83.27v-7.459h2.488c6.157,0,6.747-1.775,6.747-7.104V36.268
		c0-3.197-1.659-4.619-5.443-4.619h-3.316v-7.455h23.398l1.186,12.193h0.473c2.608-8.766,9.595-13.38,16.145-13.38
		c5.405,0,9.623,3.076,9.623,9.314c0,4.338-2.088,8.96-7.93,8.96c-5.252,0-6.272-3.557-10.615-3.557
		c-3.865,0-6.869,3.675-6.869,9.079v21.903c0,5.329,1.304,7.104,7.347,7.104h3.431v7.459H227.948z"/>
	<path clip-path="url(#SVGID_2_)" fill="#FFFFFF" d="M305.846,74.586c7.461,0,10.538-7.066,10.538-14.164v-9.476
		c-5.443,5.639-18.111,5.84-18.111,15.903C298.272,71.78,301.189,74.586,305.846,74.586 M316.741,74.545
		c-3.08,5.918-9.395,9.908-18.24,9.908c-10.254,0-16.887-5.454-16.887-15.038c0-19.295,26.879-14.168,34.77-26.947v-1.384
		c0-9.827-3.868-11.369-8.135-11.369c-11.954,0-6.507,12.861-17.518,12.861c-5.287,0-7.34-3.189-7.34-6.781
		c0-7.263,8.682-13.145,24.983-13.145c15.423,0,24.897,4.27,24.897,19.616v24.505c0,3.789,1.384,5.842,4.7,5.842
		c1.419,0,2.602-0.392,3.504-1.023l1.978,4.812c-1.617,2.484-5.919,6.869-14.091,6.869c-7.098,0-11.56-3.316-12.152-8.725H316.741z"
		/>
</g>
</svg>
