<?xml version="1.0" encoding="utf-8"?>
<!-- Generator: Adobe Illustrator 16.0.0, SVG Export Plug-In . SVG Version: 6.00 Build 0)  -->
<!DOCTYPE svg PUBLIC "-//W3C//DTD SVG 1.1//EN" "http://www.w3.org/Graphics/SVG/1.1/DTD/svg11.dtd">
<svg version="1.1" id="Layer_1" xmlns="http://www.w3.org/2000/svg" xmlns:xlink="http://www.w3.org/1999/xlink" x="0px" y="0px"
	 width="70px" height="70px" viewBox="0 0 70 70" enable-background="new 0 0 70 70" xml:space="preserve">
<path fill="#FFFFFF" stroke="#F77463" stroke-miterlimit="10" d="M50.525,27.609c-1.088,0.482-2.256,0.809-3.481,0.955
	c1.252-0.75,2.214-1.939,2.667-3.354c-1.172,0.694-2.47,1.2-3.852,1.472c-1.104-1.179-2.682-1.915-4.426-1.915
	c-3.349,0-6.063,2.714-6.063,6.063c0,0.475,0.054,0.938,0.156,1.381c-5.04-0.253-9.507-2.666-12.496-6.335
	c-0.522,0.896-0.821,1.938-0.821,3.049c0,2.103,1.07,3.958,2.698,5.046c-0.995-0.031-1.93-0.304-2.747-0.758
	c0,0.025,0,0.051,0,0.076c0,2.938,2.089,5.388,4.863,5.945c-0.509,0.138-1.045,0.211-1.598,0.211c-0.391,0-0.771-0.037-1.141-0.107
	c0.771,2.408,3.011,4.162,5.664,4.211c-2.075,1.625-4.69,2.596-7.53,2.596c-0.489,0-0.972-0.028-1.446-0.086
	c2.684,1.722,5.87,2.726,9.294,2.726c11.151,0,17.249-9.239,17.249-17.25c0-0.264-0.004-0.525-0.016-0.785
	C48.686,29.893,49.714,28.825,50.525,27.609z"/>
</svg>
