<?xml version="1.0" encoding="utf-8"?>
<!-- Generator: Adobe Illustrator 16.0.0, SVG Export Plug-In . SVG Version: 6.00 Build 0)  -->
<!DOCTYPE svg PUBLIC "-//W3C//DTD SVG 1.1//EN" "http://www.w3.org/Graphics/SVG/1.1/DTD/svg11.dtd">
<svg version="1.1" id="master_signature" xmlns="http://www.w3.org/2000/svg" xmlns:xlink="http://www.w3.org/1999/xlink" x="0px"
	 y="0px" width="69px" height="67px" viewBox="0 0 69 67" enable-background="new 0 0 69 67" xml:space="preserve">
<g>
	<g id="Shape_66_">
		<g>
			<circle fill="#4CA0D8" cx="97.42" cy="-80.836" r="28.419"/>
		</g>
	</g>
	<g id="Linked_IN_logo">
		<g>
			<path fill-rule="evenodd" clip-rule="evenodd" fill="#FFFFFF" d="M85.014-70.207h5.321v-17.738h-5.321V-70.207z M105.744-88.559
				c-2.582,0-4.895,0.943-6.53,3.025V-88h-5.343v17.793h5.343v-9.623c0-2.033,1.862-4.018,4.196-4.018s2.908,1.985,2.908,3.973
				v9.668h5.322v-10.067C111.641-87.268,108.33-88.559,105.744-88.559z M87.65-89.718c1.471,0,2.665-1.192,2.665-2.664
				c0-1.47-1.194-2.664-2.665-2.664s-2.664,1.193-2.664,2.664C84.986-90.911,86.18-89.718,87.65-89.718z"/>
		</g>
	</g>
</g>
<g>
	<g id="Bubble_7_">
		<g>
			<path fill-rule="evenodd" clip-rule="evenodd" fill="#CDCCCC" d="M59.367,9.943H9.634c-1.962,0-3.553,1.591-3.553,3.554V59.68
				l7.104-7.104h46.182c1.961,0,3.552-1.592,3.552-3.552V13.497C62.919,11.534,61.328,9.943,59.367,9.943z"/>
		</g>
	</g>
	<g id="Container_78_">
		<g>
			<path fill-rule="evenodd" clip-rule="evenodd" fill="#FFFFFF" d="M57.591,13.497H11.41c-0.982,0-1.776,0.794-1.776,1.774v37.304
				l3.552-3.552h44.405c0.982,0,1.776-0.798,1.776-1.78V15.271C59.367,14.292,58.573,13.497,57.591,13.497z"/>
		</g>
	</g>
	<g id="Dots_5_">
		<g>
			<path fill-rule="evenodd" clip-rule="evenodd" fill="#989898" d="M23.843,27.704c-1.962,0-3.553,1.592-3.553,3.552
				c0,1.964,1.591,3.557,3.553,3.557s3.552-1.593,3.552-3.557C27.395,29.296,25.805,27.704,23.843,27.704z M34.5,27.704
				c-1.962,0-3.553,1.592-3.553,3.552c0,1.964,1.591,3.557,3.553,3.557c1.961,0,3.553-1.593,3.553-3.557
				C38.053,29.296,36.461,27.704,34.5,27.704z M45.158,27.704c-1.963,0-3.554,1.592-3.554,3.552c0,1.964,1.591,3.557,3.554,3.557
				c1.961,0,3.552-1.593,3.552-3.557C48.71,29.296,47.119,27.704,45.158,27.704z"/>
		</g>
	</g>
</g>
<g>
	<g id="Envelope_9_">
		<g>
			<path fill="#CDCCCC" d="M-124.89-98.92h-49.734c-1.962,0-3.553,1.591-3.553,3.553v31.969c0,1.964,1.591,3.552,3.553,3.552h49.734
				c1.962,0,3.552-1.588,3.552-3.552v-31.969C-121.338-97.329-122.928-98.92-124.89-98.92z"/>
		</g>
	</g>
	<g id="Container_16_">
		<g>
			<path fill-rule="evenodd" clip-rule="evenodd" fill="#FFFFFF" d="M-126.071-95.257c-0.187-0.067-0.385-0.11-0.595-0.11h-46.181
				c-0.21,0-0.409,0.043-0.596,0.11l23.687,20.57L-126.071-95.257z M-148.498-70.916c-0.34,0.284-0.752,0.417-1.164,0.421
				c-0.032,0.003-0.063,0-0.095,0.001c-0.032-0.001-0.063,0.002-0.095-0.001c-0.412-0.005-0.824-0.138-1.165-0.421l-23.607-20.499
				v26.243c0,0.978,0.794,1.773,1.776,1.773h46.181c0.981,0,1.776-0.795,1.776-1.773v-26.243L-148.498-70.916z"/>
		</g>
	</g>
</g>
<g id="Shape_73_">
	<g>
		<circle fill="#4CA0D8" cx="151.427" cy="33.922" r="28.42"/>
	</g>
</g>
<g id="Twitter_Logo">
	<g>
		<path fill="#FFFFFF" d="M163.863,27.359c-0.915,0.392-1.897,0.655-2.931,0.774c1.055-0.607,1.863-1.576,2.245-2.728
			c-0.987,0.565-2.078,0.974-3.24,1.196c-0.933-0.957-2.26-1.553-3.727-1.553c-2.816,0-5.104,2.206-5.104,4.926
			c0,0.388,0.046,0.764,0.134,1.125c-4.24-0.205-8-2.168-10.52-5.152c-0.438,0.729-0.69,1.579-0.69,2.48
			c0,1.71,0.902,3.219,2.271,4.104c-0.835-0.027-1.624-0.25-2.312-0.617v0.062c0,2.387,1.758,4.378,4.094,4.833
			c-0.426,0.111-0.878,0.174-1.346,0.174c-0.329,0-0.647-0.031-0.959-0.091c0.649,1.96,2.533,3.386,4.769,3.425
			c-1.75,1.321-3.95,2.108-6.339,2.108c-0.413,0-0.819-0.024-1.219-0.068c2.26,1.401,4.94,2.217,7.823,2.217
			c9.388,0,14.518-7.511,14.518-14.026c0-0.212-0.002-0.427-0.013-0.639C162.313,29.215,163.179,28.348,163.863,27.359z"/>
	</g>
</g>
</svg>
