<?xml version="1.0" encoding="utf-8"?>
<!-- Generator: Adobe Illustrator 16.0.4, SVG Export Plug-In . SVG Version: 6.00 Build 0)  -->
<!DOCTYPE svg PUBLIC "-//W3C//DTD SVG 1.1//EN" "http://www.w3.org/Graphics/SVG/1.1/DTD/svg11.dtd">
<svg version="1.1" id="Layer_1" xmlns="http://www.w3.org/2000/svg" xmlns:xlink="http://www.w3.org/1999/xlink" x="0px" y="0px"
	 width="443.871px" height="86.39px" viewBox="0 0 443.871 86.39" enable-background="new 0 0 443.871 86.39" xml:space="preserve">
<g>
	<g>
		<g>
			<path fill="#779FBA" d="M92.713,67.012h13.255V28.876c0-1.479,0.046-3.031,0.136-4.66l-9.41,7.871
				c-0.393,0.332-0.791,0.559-1.199,0.68c-0.406,0.12-0.807,0.181-1.198,0.181c-0.604,0-1.153-0.127-1.651-0.385
				c-0.498-0.256-0.867-0.55-1.108-0.882l-3.528-4.842l19.951-16.965h9.184v57.139h11.762v8.369H92.713V67.012z"/>
		</g>
	</g>
	<g>
		<g>
			<path fill="#858485" d="M228.33,9.242c3.016,0,5.774,0.444,8.278,1.334c2.504,0.891,4.646,2.148,6.426,3.777
				c1.777,1.629,3.168,3.59,4.16,5.882c0.996,2.292,1.492,4.841,1.492,7.646c0,2.414-0.354,4.646-1.062,6.695
				c-0.709,2.052-1.658,4.012-2.85,5.881c-1.191,1.871-2.586,3.681-4.186,5.43c-1.598,1.749-3.271,3.528-5.021,5.338l-14.75,15.065
				c1.447-0.423,2.865-0.747,4.254-0.973c1.388-0.228,2.714-0.341,3.98-0.341h16.783c1.207,0,2.164,0.341,2.873,1.019
				c0.709,0.679,1.062,1.577,1.062,2.691v6.695h-44.876v-3.71c0-0.753,0.158-1.538,0.475-2.353c0.316-0.813,0.822-1.567,1.516-2.263
				l19.861-19.904c1.658-1.688,3.143-3.304,4.456-4.842c1.312-1.537,2.412-3.061,3.303-4.568c0.889-1.508,1.568-3.038,2.035-4.592
				c0.469-1.554,0.701-3.189,0.701-4.908c0-1.567-0.227-2.948-0.678-4.141c-0.453-1.19-1.102-2.193-1.945-3.008
				c-0.846-0.813-1.848-1.426-3.008-1.833c-1.162-0.407-2.467-0.609-3.915-0.609c-2.686,0-4.895,0.678-6.627,2.034
				c-1.736,1.357-2.949,3.184-3.643,5.476c-0.332,1.146-0.83,1.968-1.492,2.465c-0.664,0.498-1.51,0.747-2.535,0.747
				c-0.451,0-0.949-0.046-1.492-0.136l-5.881-1.041c0.451-3.137,1.326-5.889,2.623-8.256s2.918-4.344,4.863-5.927
				c1.945-1.584,4.178-2.774,6.697-3.573C222.727,9.641,225.435,9.242,228.33,9.242z"/>
		</g>
	</g>
	<g>
		<g>
			<path fill="#779FBA" d="M347.43,9.242c3.016,0,5.738,0.43,8.166,1.289c2.428,0.858,4.502,2.052,6.221,3.574
				s3.039,3.311,3.959,5.36s1.379,4.269,1.379,6.65c0,2.08-0.232,3.912-0.701,5.496c-0.467,1.584-1.146,2.963-2.035,4.14
				c-0.891,1.177-1.975,2.171-3.258,2.985c-1.281,0.813-2.736,1.492-4.365,2.036c3.92,1.236,6.846,3.121,8.777,5.654
				c1.93,2.533,2.895,5.715,2.895,9.545c0,3.259-0.604,6.139-1.809,8.643c-1.207,2.503-2.836,4.605-4.887,6.311
				s-4.426,2.993-7.125,3.868c-2.699,0.874-5.557,1.312-8.572,1.312c-3.289,0-6.154-0.378-8.596-1.132
				c-2.443-0.754-4.57-1.868-6.379-3.348c-1.811-1.478-3.348-3.287-4.615-5.429c-1.266-2.143-2.352-4.614-3.258-7.419l4.932-2.036
				c0.844-0.361,1.703-0.543,2.578-0.543c0.785,0,1.486,0.166,2.104,0.498c0.619,0.332,1.094,0.813,1.426,1.446
				c0.543,1.057,1.139,2.098,1.787,3.121c0.648,1.026,1.426,1.938,2.33,2.737c0.904,0.8,1.969,1.448,3.189,1.945
				c1.221,0.498,2.676,0.746,4.365,0.746c1.9,0,3.559-0.31,4.977-0.928c1.418-0.617,2.602-1.425,3.551-2.421
				c0.951-0.995,1.658-2.104,2.127-3.325c0.467-1.222,0.701-2.448,0.701-3.687c0-1.567-0.166-2.993-0.498-4.275
				c-0.332-1.28-1.025-2.375-2.08-3.279c-1.057-0.904-2.572-1.612-4.547-2.125c-1.977-0.515-4.623-0.771-7.939-0.771v-8.008
				c2.744,0,5.021-0.24,6.83-0.724c1.811-0.482,3.25-1.153,4.32-2.014c1.07-0.859,1.818-1.893,2.24-3.1
				c0.422-1.206,0.633-2.533,0.633-3.98c0-3.105-0.844-5.451-2.533-7.034c-1.689-1.584-3.996-2.375-6.922-2.375
				c-2.654,0-4.855,0.699-6.605,2.102c-1.748,1.4-2.971,3.2-3.664,5.398c-0.359,1.146-0.857,1.967-1.492,2.464
				c-0.633,0.497-1.463,0.745-2.486,0.745c-0.482,0-0.996-0.046-1.539-0.135l-5.881-1.023c0.453-3.138,1.328-5.892,2.625-8.258
				c1.295-2.368,2.918-4.346,4.861-5.93c1.945-1.583,4.178-2.774,6.695-3.575C341.826,9.641,344.533,9.242,347.43,9.242z"/>
		</g>
	</g>
	<polygon fill="#779FBA" points="8.119,41.755 18.02,30.371 27.916,18.975 27.916,41.755 27.916,64.544 18.02,53.149 	"/>
	<polygon fill="#779FBA" points="437.336,41.762 427.434,53.149 417.543,64.544 417.543,41.762 417.543,18.975 427.434,30.371 	"/>
</g>
</svg>
