<?xml version="1.0" encoding="utf-8"?>
<!-- Generator: Adobe Illustrator 16.0.4, SVG Export Plug-In . SVG Version: 6.00 Build 0)  -->
<!DOCTYPE svg PUBLIC "-//W3C//DTD SVG 1.1//EN" "http://www.w3.org/Graphics/SVG/1.1/DTD/svg11.dtd">
<svg version="1.1" id="Layer_1" xmlns="http://www.w3.org/2000/svg" xmlns:xlink="http://www.w3.org/1999/xlink" x="0px" y="0px"
	 width="379.742px" height="338.559px" viewBox="0 0 379.742 338.559" enable-background="new 0 0 379.742 338.559"
	 xml:space="preserve">
<path opacity="0.5" fill="#CEAA70" enable-background="new    " d="M279.014,140.639c0,75.297-61.042,136.339-136.339,136.339
	c-75.3,0-136.342-61.042-136.342-136.339c0-75.3,61.042-136.342,136.342-136.342C217.971,4.297,279.014,65.34,279.014,140.639z"/>
<circle opacity="0.5" fill="#73C27F" enable-background="new    " cx="236.911" cy="140.639" r="136.342"/>
<g>
	<path fill="#CEAA70" d="M88.977,309.677h2.406c0.259,0,0.473,0.065,0.643,0.194c0.169,0.13,0.284,0.294,0.344,0.493l4.424,14.888
		c0.08,0.27,0.152,0.559,0.217,0.867c0.064,0.309,0.127,0.633,0.187,0.972c0.07-0.339,0.14-0.665,0.209-0.979
		c0.069-0.312,0.149-0.6,0.239-0.858l5.037-14.888c0.06-0.17,0.177-0.326,0.351-0.472c0.174-0.145,0.386-0.217,0.636-0.217h0.837
		c0.259,0,0.471,0.065,0.635,0.194c0.165,0.13,0.281,0.294,0.351,0.492l5.007,14.889c0.18,0.519,0.339,1.11,0.479,1.778
		c0.06-0.328,0.114-0.643,0.165-0.941c0.05-0.299,0.114-0.577,0.194-0.837l4.439-14.889c0.049-0.179,0.162-0.338,0.336-0.478
		c0.174-0.14,0.386-0.21,0.635-0.21h2.257l-6.682,21.42h-2.601l-5.426-16.338c-0.11-0.309-0.209-0.667-0.299-1.076
		c-0.05,0.2-0.097,0.393-0.142,0.576s-0.092,0.351-0.142,0.5l-5.456,16.338h-2.601L88.977,309.677z"/>
	<path fill="#CEAA70" d="M142.473,320.395c0,1.604-0.254,3.076-0.763,4.417c-0.508,1.34-1.226,2.493-2.152,3.46
		c-0.926,0.967-2.04,1.717-3.341,2.25c-1.3,0.533-2.738,0.8-4.312,0.8c-1.575,0-3.01-0.267-4.305-0.8s-2.406-1.283-3.333-2.25
		c-0.927-0.967-1.645-2.12-2.152-3.46c-0.508-1.341-0.763-2.812-0.763-4.417c0-1.604,0.254-3.077,0.763-4.417
		c0.508-1.34,1.226-2.496,2.152-3.468c0.926-0.972,2.038-1.727,3.333-2.265s2.73-0.809,4.305-0.809c1.574,0,3.012,0.271,4.312,0.809
		c1.301,0.538,2.414,1.293,3.341,2.265c0.927,0.972,1.645,2.128,2.152,3.468C142.219,317.318,142.473,318.79,142.473,320.395z
		 M139.499,320.395c0-1.314-0.18-2.496-0.538-3.543c-0.359-1.046-0.867-1.931-1.525-2.652c-0.658-0.723-1.455-1.277-2.392-1.666
		c-0.937-0.39-1.983-0.583-3.139-0.583c-1.146,0-2.188,0.193-3.124,0.583c-0.937,0.389-1.737,0.943-2.399,1.666
		c-0.663,0.723-1.173,1.606-1.532,2.652c-0.359,1.047-0.538,2.229-0.538,3.543c0,1.315,0.179,2.494,0.538,3.535
		c0.358,1.041,0.869,1.923,1.532,2.646c0.663,0.723,1.462,1.274,2.399,1.658c0.937,0.385,1.978,0.575,3.124,0.575
		c1.156,0,2.202-0.19,3.139-0.575c0.937-0.384,1.734-0.937,2.392-1.658c0.658-0.723,1.166-1.604,1.525-2.646
		C139.319,322.889,139.499,321.71,139.499,320.395z"/>
	<path fill="#CEAA70" d="M150.365,322.158v8.938h-2.885v-21.42h6.054c1.355,0,2.526,0.138,3.513,0.411
		c0.986,0.273,1.801,0.671,2.444,1.188c0.643,0.52,1.118,1.145,1.427,1.876c0.309,0.732,0.463,1.553,0.463,2.459
		c0,0.758-0.12,1.466-0.358,2.122c-0.239,0.658-0.586,1.248-1.039,1.771c-0.454,0.522-1.007,0.97-1.659,1.338
		c-0.653,0.369-1.393,0.646-2.22,0.837c0.359,0.209,0.678,0.514,0.957,0.912l6.248,8.505h-2.571c-0.528,0-0.917-0.204-1.166-0.613
		l-5.561-7.651c-0.169-0.239-0.354-0.411-0.553-0.517c-0.2-0.104-0.499-0.156-0.897-0.156L150.365,322.158L150.365,322.158z
		 M150.365,320.051h3.034c0.847,0,1.592-0.103,2.235-0.307c0.643-0.204,1.181-0.493,1.614-0.867c0.434-0.373,0.76-0.819,0.979-1.338
		c0.219-0.519,0.329-1.092,0.329-1.72c0-1.274-0.421-2.236-1.263-2.885c-0.842-0.646-2.095-0.972-3.759-0.972h-3.169V320.051
		L150.365,320.051z"/>
	<path fill="#CEAA70" d="M170.365,319.065h1.091c0.378,0,0.68-0.048,0.904-0.143c0.224-0.095,0.436-0.256,0.635-0.485l7.13-8.071
		c0.219-0.249,0.431-0.427,0.635-0.53c0.204-0.104,0.466-0.157,0.785-0.157h2.466l-8.161,9.223c-0.209,0.229-0.406,0.425-0.59,0.583
		c-0.185,0.159-0.381,0.289-0.591,0.39c0.279,0.09,0.523,0.225,0.732,0.402c0.209,0.181,0.429,0.404,0.658,0.674l8.52,10.148h-2.511
		c-0.189,0-0.349-0.015-0.478-0.045c-0.13-0.03-0.242-0.069-0.336-0.119c-0.094-0.05-0.182-0.115-0.262-0.193
		c-0.08-0.08-0.159-0.165-0.239-0.256l-7.399-8.505c-0.109-0.119-0.211-0.222-0.306-0.307c-0.095-0.084-0.205-0.156-0.329-0.216
		c-0.125-0.062-0.269-0.104-0.433-0.128c-0.165-0.024-0.366-0.037-0.605-0.037h-1.315v9.806h-2.885v-21.42h2.885L170.365,319.065
		L170.365,319.065z"/>
</g>
<g>
	<path fill="#73C27F" d="M193.936,328.66h9.268v2.437h-12.167v-21.42h2.899V328.66L193.936,328.66z"/>
	<path fill="#73C27F" d="M220.348,309.677v2.362h-10.284v7.113h8.326v2.272h-8.326v7.31h10.284v2.361H207.15v-21.42L220.348,309.677
		L220.348,309.677z"/>
	<path fill="#73C27F" d="M228.703,331.097h-2.899v-21.42h2.899V331.097z"/>
	<path fill="#73C27F" d="M246.162,313.026c-0.09,0.149-0.186,0.263-0.284,0.336c-0.101,0.075-0.229,0.112-0.39,0.112
		c-0.168,0-0.365-0.085-0.59-0.254c-0.225-0.17-0.508-0.355-0.853-0.561c-0.344-0.205-0.757-0.393-1.239-0.562
		c-0.483-0.17-1.07-0.254-1.758-0.254c-0.646,0-1.221,0.087-1.719,0.262c-0.498,0.174-0.914,0.41-1.248,0.71
		s-0.586,0.649-0.755,1.055c-0.17,0.402-0.254,0.839-0.254,1.308c0,0.598,0.146,1.094,0.44,1.487
		c0.293,0.393,0.682,0.729,1.166,1.009c0.482,0.28,1.03,0.521,1.645,0.725c0.611,0.205,1.24,0.417,1.884,0.637
		c0.644,0.219,1.271,0.466,1.883,0.739c0.613,0.273,1.161,0.62,1.646,1.038c0.482,0.419,0.871,0.934,1.166,1.54
		c0.293,0.607,0.439,1.355,0.439,2.242c0,0.938-0.158,1.816-0.479,2.638c-0.318,0.822-0.784,1.537-1.397,2.146
		c-0.612,0.606-1.364,1.086-2.257,1.435c-0.893,0.35-1.904,0.523-3.042,0.523c-1.385,0-2.647-0.252-3.789-0.755
		s-2.114-1.185-2.922-2.04l0.837-1.376c0.079-0.109,0.178-0.201,0.292-0.276c0.114-0.074,0.241-0.111,0.381-0.111
		c0.209,0,0.448,0.111,0.718,0.336s0.604,0.472,1.01,0.74c0.402,0.27,0.892,0.517,1.465,0.739c0.572,0.225,1.271,0.337,2.1,0.337
		c0.688,0,1.301-0.095,1.84-0.284c0.537-0.188,0.993-0.456,1.366-0.8c0.374-0.344,0.66-0.755,0.859-1.233
		c0.198-0.478,0.299-1.011,0.299-1.6c0-0.646-0.146-1.178-0.44-1.592c-0.293-0.413-0.68-0.76-1.158-1.039
		c-0.479-0.278-1.023-0.516-1.637-0.71s-1.24-0.395-1.884-0.598c-0.644-0.204-1.271-0.44-1.883-0.71
		c-0.613-0.27-1.159-0.617-1.638-1.047c-0.479-0.429-0.864-0.965-1.158-1.606c-0.295-0.643-0.441-1.438-0.441-2.384
		c0-0.758,0.146-1.489,0.441-2.197c0.294-0.707,0.72-1.335,1.277-1.884c0.559-0.548,1.248-0.986,2.07-1.315
		c0.822-0.328,1.766-0.493,2.832-0.493c1.196,0,2.287,0.189,3.273,0.568s1.849,0.927,2.586,1.645L246.162,313.026z"/>
	<path fill="#73C27F" d="M260.107,328.795c0.888,0,1.68-0.149,2.377-0.448s1.287-0.718,1.771-1.256s0.853-1.181,1.106-1.929
		c0.254-0.747,0.381-1.569,0.381-2.467v-13.02h2.885v13.02c0,1.235-0.195,2.383-0.59,3.438c-0.395,1.057-0.957,1.971-1.689,2.743
		c-0.731,0.771-1.627,1.378-2.683,1.815c-1.058,0.438-2.242,0.657-3.558,0.657c-1.316,0-2.502-0.219-3.559-0.657
		c-1.057-0.438-1.953-1.044-2.689-1.815c-0.737-0.772-1.303-1.688-1.696-2.743c-0.396-1.056-0.591-2.202-0.591-3.438v-13.02h2.885
		v13.005c0,0.896,0.127,1.719,0.381,2.466c0.255,0.747,0.623,1.392,1.105,1.93c0.483,0.538,1.076,0.959,1.779,1.263
		S259.221,328.795,260.107,328.795z"/>
	<path fill="#73C27F" d="M277.536,322.158v8.938h-2.886v-21.42h6.055c1.355,0,2.525,0.138,3.513,0.411s1.802,0.671,2.444,1.188
		c0.643,0.52,1.117,1.145,1.428,1.876c0.309,0.732,0.463,1.553,0.463,2.459c0,0.758-0.119,1.466-0.357,2.122
		c-0.239,0.658-0.586,1.248-1.039,1.771c-0.453,0.522-1.008,0.97-1.659,1.338c-0.651,0.369-1.394,0.646-2.22,0.837
		c0.357,0.209,0.678,0.514,0.957,0.912l6.248,8.505h-2.571c-0.528,0-0.917-0.204-1.166-0.613l-5.562-7.651
		c-0.168-0.239-0.354-0.411-0.553-0.517c-0.199-0.104-0.498-0.156-0.896-0.156L277.536,322.158L277.536,322.158z M277.536,320.051
		h3.034c0.848,0,1.593-0.103,2.234-0.307c0.643-0.204,1.182-0.493,1.614-0.867c0.435-0.373,0.761-0.819,0.979-1.338
		s0.328-1.092,0.328-1.72c0-1.274-0.422-2.236-1.264-2.885c-0.843-0.646-2.096-0.972-3.76-0.972h-3.169v8.088H277.536z"/>
	<path fill="#73C27F" d="M307.55,309.677v2.362h-10.284v7.113h8.326v2.272h-8.326v7.31h10.284v2.361h-13.198v-21.42L307.55,309.677
		L307.55,309.677z"/>
</g>
<g>
	<path fill="#606161" d="M160.166,143.305c0.565,0,1.071-0.094,1.517-0.283c0.445-0.188,0.822-0.453,1.13-0.793
		s0.543-0.754,0.707-1.238c0.163-0.486,0.245-1.029,0.245-1.632v-9.414h2.924v9.414c0,0.936-0.15,1.8-0.451,2.594
		c-0.301,0.794-0.734,1.479-1.299,2.055s-1.25,1.025-2.055,1.348c-0.805,0.323-1.71,0.484-2.718,0.484s-1.914-0.161-2.718-0.484
		c-0.805-0.321-1.488-0.771-2.049-1.348s-0.993-1.261-1.293-2.055c-0.3-0.794-0.451-1.658-0.451-2.594v-9.414h2.924v9.403
		c0,0.603,0.082,1.146,0.245,1.63c0.163,0.486,0.396,0.901,0.701,1.245c0.304,0.344,0.679,0.61,1.125,0.799
		C159.096,143.211,159.6,143.305,160.166,143.305z"/>
	<path fill="#606161" d="M179.722,132.804c-0.08,0.16-0.172,0.272-0.277,0.337c-0.105,0.065-0.23,0.099-0.375,0.099
		s-0.308-0.057-0.489-0.168c-0.181-0.112-0.395-0.237-0.642-0.375c-0.246-0.139-0.534-0.264-0.864-0.375
		c-0.33-0.112-0.72-0.17-1.169-0.17c-0.406,0-0.759,0.05-1.06,0.147c-0.301,0.098-0.555,0.234-0.761,0.408s-0.36,0.382-0.462,0.625
		s-0.152,0.509-0.152,0.799c0,0.37,0.104,0.678,0.31,0.924c0.206,0.246,0.48,0.457,0.821,0.63c0.34,0.174,0.728,0.33,1.163,0.467
		c0.435,0.139,0.878,0.285,1.332,0.44c0.453,0.156,0.897,0.337,1.332,0.543c0.435,0.207,0.823,0.468,1.164,0.783
		c0.34,0.314,0.614,0.701,0.82,1.158s0.31,1.011,0.31,1.664c0,0.71-0.122,1.375-0.364,1.994c-0.242,0.62-0.598,1.16-1.065,1.62
		c-0.467,0.46-1.038,0.823-1.712,1.087c-0.674,0.265-1.446,0.396-2.315,0.396c-0.5,0-0.993-0.049-1.479-0.146
		c-0.486-0.098-0.951-0.236-1.397-0.418c-0.446-0.181-0.863-0.398-1.25-0.651c-0.388-0.254-0.734-0.537-1.039-0.849l0.848-1.401
		c0.08-0.103,0.176-0.188,0.288-0.255c0.112-0.068,0.237-0.104,0.375-0.104c0.181,0,0.377,0.075,0.587,0.223
		c0.21,0.148,0.458,0.313,0.745,0.495c0.287,0.182,0.624,0.347,1.011,0.495c0.387,0.149,0.854,0.224,1.397,0.224
		c0.833,0,1.479-0.197,1.935-0.593c0.456-0.395,0.685-0.962,0.685-1.7c0-0.413-0.103-0.75-0.31-1.012
		c-0.207-0.261-0.48-0.479-0.821-0.658c-0.341-0.177-0.729-0.327-1.163-0.45c-0.435-0.123-0.877-0.258-1.326-0.402
		c-0.45-0.145-0.892-0.318-1.327-0.521c-0.435-0.203-0.822-0.468-1.163-0.794c-0.341-0.325-0.614-0.733-0.821-1.223
		s-0.31-1.093-0.31-1.81c0-0.572,0.114-1.13,0.342-1.674c0.229-0.545,0.562-1.026,1-1.446s0.977-0.757,1.614-1.011
		c0.638-0.254,1.366-0.381,2.185-0.381c0.928,0,1.783,0.146,2.566,0.436c0.783,0.29,1.449,0.696,2,1.218L179.722,132.804z"/>
	<path fill="#606161" d="M194.506,129.945v2.326h-6.968v4.359h5.49v2.25h-5.49v4.446h6.968v2.337h-9.915v-15.72L194.506,129.945
		L194.506,129.945z"/>
	<path fill="#606161" d="M201.692,139.522v6.143h-2.924v-15.72h4.794c1.072,0,1.991,0.11,2.756,0.332
		c0.765,0.223,1.392,0.531,1.88,0.931c0.489,0.397,0.848,0.875,1.077,1.429c0.228,0.555,0.342,1.165,0.342,1.832
		c0,0.529-0.078,1.029-0.234,1.5c-0.156,0.471-0.38,0.899-0.674,1.283c-0.293,0.384-0.656,0.721-1.087,1.011
		s-0.922,0.521-1.473,0.695c0.37,0.21,0.688,0.511,0.957,0.901l3.935,5.806h-2.63c-0.254,0-0.47-0.051-0.647-0.152
		c-0.178-0.101-0.328-0.246-0.451-0.435l-3.305-5.033c-0.124-0.188-0.259-0.322-0.408-0.402c-0.148-0.08-0.368-0.12-0.658-0.12
		H201.692L201.692,139.522z M201.692,137.424h1.826c0.551,0,1.031-0.069,1.44-0.207s0.746-0.328,1.011-0.571
		c0.265-0.243,0.462-0.53,0.593-0.863c0.13-0.333,0.196-0.699,0.196-1.099c0-0.797-0.263-1.41-0.789-1.837
		c-0.525-0.427-1.328-0.641-2.408-0.641h-1.87L201.692,137.424L201.692,137.424z"/>
	<path fill="#606161" d="M222.966,132.804c-0.08,0.16-0.172,0.272-0.277,0.337c-0.105,0.065-0.23,0.099-0.375,0.099
		s-0.308-0.057-0.489-0.168c-0.181-0.112-0.395-0.237-0.642-0.375c-0.246-0.139-0.534-0.264-0.864-0.375
		c-0.33-0.112-0.72-0.17-1.169-0.17c-0.406,0-0.759,0.05-1.06,0.147c-0.301,0.098-0.555,0.234-0.761,0.408s-0.36,0.382-0.462,0.625
		s-0.152,0.509-0.152,0.799c0,0.37,0.104,0.678,0.31,0.924s0.48,0.457,0.821,0.63c0.34,0.174,0.728,0.33,1.163,0.467
		c0.435,0.139,0.878,0.285,1.332,0.44c0.453,0.156,0.897,0.337,1.332,0.543c0.435,0.207,0.823,0.468,1.164,0.783
		c0.34,0.314,0.614,0.701,0.82,1.158c0.206,0.457,0.31,1.011,0.31,1.664c0,0.71-0.122,1.375-0.364,1.994
		c-0.242,0.62-0.598,1.16-1.065,1.62c-0.467,0.46-1.038,0.823-1.712,1.087c-0.674,0.265-1.446,0.396-2.315,0.396
		c-0.5,0-0.993-0.049-1.479-0.146c-0.486-0.098-0.951-0.236-1.397-0.418c-0.446-0.181-0.863-0.398-1.25-0.651
		c-0.388-0.254-0.734-0.537-1.039-0.849l0.848-1.401c0.08-0.103,0.176-0.188,0.288-0.255c0.112-0.068,0.237-0.104,0.375-0.104
		c0.181,0,0.377,0.075,0.587,0.223c0.21,0.148,0.458,0.313,0.745,0.495s0.624,0.347,1.011,0.495
		c0.387,0.149,0.854,0.224,1.397,0.224c0.833,0,1.479-0.197,1.935-0.593c0.456-0.395,0.685-0.962,0.685-1.7
		c0-0.413-0.103-0.75-0.31-1.012c-0.207-0.261-0.48-0.479-0.821-0.658c-0.341-0.177-0.729-0.327-1.163-0.45
		c-0.435-0.123-0.877-0.258-1.326-0.402c-0.45-0.145-0.892-0.318-1.327-0.521c-0.435-0.203-0.822-0.468-1.163-0.794
		c-0.341-0.325-0.614-0.733-0.821-1.223s-0.31-1.093-0.31-1.81c0-0.572,0.114-1.13,0.342-1.674c0.229-0.545,0.562-1.026,1-1.446
		s0.977-0.757,1.614-1.011c0.638-0.254,1.366-0.381,2.185-0.381c0.928,0,1.783,0.146,2.566,0.436c0.783,0.29,1.449,0.696,2,1.218
		L222.966,132.804z"/>
</g>
</svg>
