<?xml version="1.0" encoding="utf-8"?>
<!-- Generator: Adobe Illustrator 16.0.0, SVG Export Plug-In . SVG Version: 6.00 Build 0)  -->
<!DOCTYPE svg PUBLIC "-//W3C//DTD SVG 1.1//EN" "http://www.w3.org/Graphics/SVG/1.1/DTD/svg11.dtd">
<svg version="1.1" id="Layer_1" xmlns="http://www.w3.org/2000/svg" xmlns:xlink="http://www.w3.org/1999/xlink" x="0px" y="0px"
	 width="466.484px" height="338.559px" viewBox="0 0 466.484 338.559" enable-background="new 0 0 466.484 338.559"
	 xml:space="preserve">
<path opacity="0.5" fill="#CEAA70" d="M279.013,140.639c0,75.297-61.042,136.339-136.338,136.339
	c-75.3,0-136.342-61.042-136.342-136.339c0-75.3,61.042-136.342,136.342-136.342C217.971,4.297,279.013,65.34,279.013,140.639z"/>
<circle opacity="0.5" fill="#73C27F" cx="236.911" cy="140.639" r="136.342"/>
<g>
	<path fill="#CEAA70" d="M88.977,309.677h2.406c0.259,0,0.473,0.065,0.643,0.194c0.169,0.13,0.284,0.294,0.344,0.493l4.424,14.888
		c0.08,0.27,0.152,0.559,0.217,0.867c0.064,0.309,0.127,0.633,0.187,0.972c0.07-0.339,0.14-0.665,0.209-0.979
		c0.069-0.313,0.149-0.6,0.239-0.859l5.037-14.888c0.06-0.169,0.177-0.326,0.351-0.471s0.386-0.217,0.636-0.217h0.837
		c0.259,0,0.471,0.065,0.635,0.194c0.165,0.13,0.281,0.294,0.351,0.493l5.007,14.888c0.18,0.519,0.339,1.111,0.479,1.779
		c0.06-0.329,0.114-0.643,0.165-0.942c0.05-0.299,0.114-0.577,0.194-0.837l4.439-14.888c0.049-0.179,0.162-0.338,0.336-0.478
		s0.386-0.21,0.635-0.21h2.257l-6.682,21.42h-2.601l-5.426-16.338c-0.11-0.309-0.209-0.667-0.299-1.076
		c-0.05,0.2-0.097,0.392-0.142,0.576s-0.092,0.351-0.142,0.5l-5.456,16.338h-2.601L88.977,309.677z"/>
	<path fill="#CEAA70" d="M142.473,320.395c0,1.604-0.254,3.076-0.763,4.417c-0.508,1.34-1.226,2.493-2.152,3.46
		s-2.04,1.717-3.341,2.25c-1.3,0.533-2.738,0.8-4.312,0.8c-1.575,0-3.01-0.267-4.305-0.8s-2.406-1.283-3.333-2.25
		s-1.645-2.12-2.152-3.46c-0.508-1.341-0.763-2.813-0.763-4.417s0.254-3.077,0.763-4.417c0.508-1.34,1.226-2.496,2.152-3.468
		s2.038-1.727,3.333-2.265s2.73-0.808,4.305-0.808c1.574,0,3.012,0.27,4.312,0.808c1.301,0.538,2.414,1.293,3.341,2.265
		s1.645,2.128,2.152,3.468C142.219,317.318,142.473,318.79,142.473,320.395z M139.499,320.395c0-1.315-0.18-2.496-0.538-3.543
		c-0.359-1.046-0.867-1.931-1.525-2.653c-0.658-0.722-1.455-1.277-2.392-1.666s-1.983-0.583-3.139-0.583
		c-1.146,0-2.188,0.194-3.124,0.583c-0.937,0.389-1.737,0.944-2.399,1.666c-0.663,0.723-1.173,1.607-1.532,2.653
		c-0.359,1.047-0.538,2.228-0.538,3.543s0.179,2.494,0.538,3.535c0.358,1.041,0.869,1.923,1.532,2.646s1.462,1.275,2.399,1.659
		c0.937,0.384,1.978,0.575,3.124,0.575c1.156,0,2.202-0.191,3.139-0.575s1.734-0.937,2.392-1.659s1.166-1.604,1.525-2.646
		C139.319,322.889,139.499,321.71,139.499,320.395z"/>
	<path fill="#CEAA70" d="M150.365,322.158v8.938h-2.885v-21.42h6.054c1.355,0,2.526,0.138,3.513,0.411
		c0.986,0.274,1.801,0.671,2.444,1.188c0.643,0.519,1.118,1.144,1.427,1.876s0.463,1.552,0.463,2.459
		c0,0.757-0.12,1.465-0.358,2.122c-0.239,0.658-0.586,1.248-1.039,1.771c-0.454,0.523-1.007,0.97-1.659,1.338
		c-0.653,0.369-1.393,0.647-2.22,0.837c0.359,0.209,0.678,0.514,0.957,0.912l6.248,8.505h-2.571c-0.528,0-0.917-0.204-1.166-0.613
		l-5.561-7.652c-0.169-0.239-0.354-0.411-0.553-0.516c-0.2-0.105-0.499-0.157-0.897-0.157H150.365z M150.365,320.051h3.034
		c0.847,0,1.592-0.103,2.235-0.307s1.181-0.493,1.614-0.867c0.434-0.373,0.76-0.819,0.979-1.338
		c0.219-0.518,0.329-1.091,0.329-1.719c0-1.275-0.421-2.237-1.263-2.885c-0.842-0.647-2.095-0.972-3.759-0.972h-3.169V320.051z"/>
	<path fill="#CEAA70" d="M170.365,319.065h1.091c0.378,0,0.68-0.048,0.904-0.143s0.436-0.256,0.635-0.485l7.13-8.072
		c0.219-0.249,0.431-0.426,0.635-0.53c0.204-0.104,0.466-0.157,0.785-0.157h2.466l-8.161,9.223c-0.209,0.229-0.406,0.424-0.59,0.583
		c-0.185,0.159-0.381,0.289-0.591,0.389c0.279,0.09,0.523,0.225,0.732,0.403c0.209,0.18,0.429,0.404,0.658,0.673l8.52,10.149h-2.511
		c-0.189,0-0.349-0.015-0.478-0.045c-0.13-0.03-0.242-0.069-0.336-0.119s-0.182-0.115-0.262-0.194
		c-0.08-0.08-0.159-0.165-0.239-0.255l-7.399-8.505c-0.109-0.119-0.211-0.222-0.306-0.307c-0.095-0.084-0.205-0.156-0.329-0.216
		c-0.125-0.061-0.269-0.103-0.433-0.128c-0.165-0.024-0.366-0.037-0.605-0.037h-1.315v9.806h-2.885v-21.42h2.885V319.065z"/>
</g>
<g>
	<path fill="#73C27F" d="M193.936,328.66h9.268v2.437h-12.167v-21.42h2.899V328.66z"/>
	<path fill="#73C27F" d="M220.348,309.677v2.362h-10.284v7.114h8.326v2.272h-8.326v7.31h10.284v2.361h-13.198v-21.42H220.348z"/>
	<path fill="#73C27F" d="M228.703,331.097h-2.899v-21.42h2.899V331.097z"/>
	<path fill="#73C27F" d="M246.162,313.026c-0.09,0.149-0.185,0.262-0.284,0.336c-0.1,0.075-0.229,0.112-0.389,0.112
		c-0.169,0-0.366-0.085-0.59-0.254c-0.225-0.17-0.509-0.356-0.853-0.561s-0.757-0.392-1.24-0.561
		c-0.483-0.17-1.069-0.254-1.757-0.254c-0.647,0-1.221,0.087-1.719,0.262c-0.498,0.174-0.914,0.41-1.248,0.71
		c-0.334,0.299-0.586,0.649-0.755,1.054c-0.17,0.403-0.254,0.839-0.254,1.308c0,0.598,0.146,1.094,0.44,1.487
		s0.683,0.729,1.166,1.009s1.031,0.521,1.645,0.725c0.612,0.205,1.24,0.417,1.884,0.636c0.643,0.219,1.271,0.466,1.883,0.74
		c0.613,0.273,1.161,0.62,1.645,1.038c0.483,0.419,0.872,0.933,1.166,1.54s0.44,1.355,0.44,2.242c0,0.937-0.159,1.816-0.479,2.638
		c-0.318,0.822-0.784,1.537-1.397,2.146c-0.612,0.607-1.365,1.086-2.257,1.435s-1.905,0.523-3.042,0.523
		c-1.385,0-2.648-0.252-3.789-0.755s-2.115-1.184-2.922-2.04l0.837-1.376c0.079-0.109,0.177-0.201,0.292-0.276
		c0.114-0.074,0.241-0.111,0.381-0.111c0.209,0,0.448,0.111,0.717,0.336c0.27,0.224,0.605,0.471,1.01,0.74
		c0.403,0.269,0.892,0.516,1.465,0.739c0.572,0.225,1.272,0.337,2.1,0.337c0.688,0,1.301-0.095,1.839-0.284s0.994-0.456,1.367-0.8
		c0.374-0.344,0.66-0.755,0.859-1.233s0.299-1.011,0.299-1.6c0-0.647-0.146-1.178-0.44-1.592c-0.294-0.413-0.68-0.76-1.158-1.039
		c-0.479-0.278-1.024-0.516-1.637-0.71c-0.613-0.194-1.241-0.394-1.884-0.598s-1.271-0.44-1.883-0.71
		c-0.613-0.269-1.159-0.617-1.637-1.046c-0.479-0.429-0.865-0.965-1.159-1.607s-0.441-1.437-0.441-2.384
		c0-0.757,0.147-1.489,0.441-2.197c0.294-0.707,0.72-1.335,1.278-1.884c0.558-0.548,1.248-0.986,2.07-1.315
		c0.822-0.328,1.766-0.493,2.832-0.493c1.196,0,2.287,0.189,3.273,0.568c0.987,0.379,1.849,0.927,2.586,1.645L246.162,313.026z"/>
	<path fill="#73C27F" d="M260.108,328.795c0.887,0,1.679-0.149,2.376-0.448c0.698-0.299,1.288-0.718,1.771-1.256
		s0.853-1.181,1.106-1.929c0.254-0.747,0.381-1.569,0.381-2.466v-13.02h2.885v13.02c0,1.235-0.196,2.382-0.59,3.438
		c-0.394,1.057-0.957,1.971-1.689,2.743s-1.627,1.378-2.683,1.816c-1.057,0.438-2.242,0.657-3.558,0.657s-2.502-0.219-3.558-0.657
		c-1.057-0.438-1.953-1.044-2.69-1.816s-1.303-1.687-1.696-2.743c-0.395-1.056-0.591-2.202-0.591-3.438v-13.02h2.885v13.005
		c0,0.896,0.127,1.719,0.381,2.466c0.255,0.747,0.623,1.391,1.106,1.929s1.076,0.959,1.778,1.263
		C258.426,328.643,259.22,328.795,260.108,328.795z"/>
	<path fill="#73C27F" d="M277.536,322.158v8.938h-2.885v-21.42h6.054c1.355,0,2.526,0.138,3.513,0.411
		c0.987,0.274,1.802,0.671,2.444,1.188c0.643,0.519,1.118,1.144,1.428,1.876c0.309,0.732,0.463,1.552,0.463,2.459
		c0,0.757-0.119,1.465-0.358,2.122c-0.239,0.658-0.586,1.248-1.039,1.771s-1.007,0.97-1.659,1.338
		c-0.652,0.369-1.393,0.647-2.22,0.837c0.358,0.209,0.678,0.514,0.957,0.912l6.248,8.505h-2.571c-0.528,0-0.917-0.204-1.166-0.613
		l-5.561-7.652c-0.169-0.239-0.354-0.411-0.553-0.516c-0.199-0.105-0.498-0.157-0.897-0.157H277.536z M277.536,320.051h3.035
		c0.847,0,1.592-0.103,2.234-0.307s1.181-0.493,1.614-0.867c0.434-0.373,0.76-0.819,0.979-1.338
		c0.219-0.518,0.328-1.091,0.328-1.719c0-1.275-0.421-2.237-1.263-2.885c-0.843-0.647-2.096-0.972-3.76-0.972h-3.169V320.051z"/>
	<path fill="#73C27F" d="M307.55,309.677v2.362h-10.284v7.114h8.326v2.272h-8.326v7.31h10.284v2.361h-13.199v-21.42H307.55z"/>
</g>
<g>
	<path fill="#606161" d="M160.166,143.305c0.565,0,1.071-0.094,1.517-0.283c0.445-0.188,0.822-0.453,1.13-0.793
		s0.543-0.754,0.707-1.239c0.163-0.486,0.245-1.029,0.245-1.631v-9.414h2.924v9.414c0,0.935-0.15,1.799-0.451,2.593
		s-0.734,1.479-1.299,2.055c-0.565,0.576-1.25,1.025-2.055,1.348c-0.805,0.323-1.71,0.484-2.718,0.484s-1.914-0.161-2.718-0.484
		c-0.805-0.322-1.488-0.771-2.049-1.348s-0.993-1.261-1.293-2.055s-0.451-1.658-0.451-2.593v-9.414h2.924v9.403
		c0,0.602,0.082,1.145,0.245,1.63c0.163,0.486,0.396,0.901,0.701,1.245c0.304,0.344,0.679,0.61,1.125,0.799
		S159.6,143.305,160.166,143.305z"/>
	<path fill="#606161" d="M179.722,132.804c-0.08,0.16-0.172,0.272-0.277,0.337c-0.105,0.065-0.23,0.098-0.375,0.098
		s-0.308-0.056-0.489-0.168s-0.395-0.237-0.642-0.375c-0.246-0.138-0.534-0.263-0.864-0.375c-0.33-0.112-0.72-0.169-1.169-0.169
		c-0.406,0-0.759,0.049-1.06,0.147c-0.301,0.098-0.555,0.234-0.761,0.408s-0.36,0.382-0.462,0.625s-0.152,0.509-0.152,0.799
		c0,0.37,0.104,0.678,0.31,0.924s0.48,0.457,0.821,0.63c0.34,0.174,0.728,0.33,1.163,0.467c0.435,0.138,0.878,0.285,1.332,0.44
		c0.453,0.156,0.897,0.337,1.332,0.543c0.435,0.207,0.823,0.468,1.164,0.783c0.34,0.315,0.614,0.701,0.82,1.158
		s0.31,1.011,0.31,1.664c0,0.71-0.122,1.375-0.364,1.995s-0.598,1.16-1.065,1.62c-0.467,0.46-1.038,0.823-1.712,1.087
		c-0.674,0.264-1.446,0.396-2.315,0.396c-0.5,0-0.993-0.049-1.479-0.146c-0.486-0.098-0.951-0.237-1.397-0.418
		s-0.863-0.399-1.25-0.652c-0.388-0.254-0.734-0.537-1.039-0.848l0.848-1.402c0.08-0.102,0.176-0.187,0.288-0.255
		s0.237-0.104,0.375-0.104c0.181,0,0.377,0.075,0.587,0.223c0.21,0.148,0.458,0.313,0.745,0.495
		c0.287,0.181,0.624,0.346,1.011,0.495s0.854,0.223,1.397,0.223c0.833,0,1.479-0.197,1.935-0.592s0.685-0.962,0.685-1.701
		c0-0.413-0.103-0.75-0.31-1.011s-0.48-0.48-0.821-0.658c-0.341-0.177-0.729-0.328-1.163-0.451
		c-0.435-0.123-0.877-0.257-1.326-0.402c-0.45-0.145-0.892-0.318-1.327-0.521c-0.435-0.203-0.822-0.467-1.163-0.793
		s-0.614-0.734-0.821-1.223s-0.31-1.093-0.31-1.81c0-0.572,0.114-1.13,0.342-1.674c0.229-0.544,0.562-1.026,1-1.446
		c0.438-0.42,0.977-0.757,1.614-1.011c0.638-0.253,1.366-0.38,2.185-0.38c0.928,0,1.783,0.145,2.566,0.435
		c0.783,0.29,1.449,0.696,2,1.218L179.722,132.804z"/>
	<path fill="#606161" d="M194.506,129.945v2.326h-6.968v4.359h5.49v2.25h-5.49v4.446h6.968v2.337h-9.915v-15.719H194.506z"/>
	<path fill="#606161" d="M201.692,139.522v6.142h-2.924v-15.719h4.794c1.072,0,1.991,0.11,2.756,0.332s1.392,0.531,1.88,0.93
		c0.489,0.398,0.848,0.875,1.077,1.429c0.228,0.555,0.342,1.165,0.342,1.832c0,0.529-0.078,1.029-0.234,1.5s-0.38,0.899-0.674,1.283
		c-0.293,0.384-0.656,0.721-1.087,1.011c-0.431,0.29-0.922,0.521-1.473,0.695c0.37,0.21,0.688,0.511,0.957,0.902l3.935,5.805h-2.63
		c-0.254,0-0.47-0.051-0.647-0.152c-0.178-0.101-0.328-0.246-0.451-0.435l-3.305-5.033c-0.124-0.188-0.259-0.322-0.408-0.402
		c-0.148-0.08-0.368-0.12-0.658-0.12H201.692z M201.692,137.424h1.826c0.551,0,1.031-0.069,1.44-0.207
		c0.409-0.138,0.746-0.328,1.011-0.571c0.265-0.243,0.462-0.531,0.593-0.864c0.13-0.333,0.196-0.699,0.196-1.098
		c0-0.797-0.263-1.41-0.789-1.837c-0.525-0.427-1.328-0.641-2.408-0.641h-1.87V137.424z"/>
	<path fill="#606161" d="M222.966,132.804c-0.08,0.16-0.172,0.272-0.277,0.337c-0.105,0.065-0.23,0.098-0.375,0.098
		s-0.308-0.056-0.489-0.168s-0.395-0.237-0.642-0.375c-0.246-0.138-0.534-0.263-0.864-0.375c-0.33-0.112-0.72-0.169-1.169-0.169
		c-0.406,0-0.759,0.049-1.06,0.147c-0.301,0.098-0.555,0.234-0.761,0.408s-0.36,0.382-0.462,0.625s-0.152,0.509-0.152,0.799
		c0,0.37,0.104,0.678,0.31,0.924s0.48,0.457,0.821,0.63c0.34,0.174,0.728,0.33,1.163,0.467c0.435,0.138,0.878,0.285,1.332,0.44
		c0.453,0.156,0.897,0.337,1.332,0.543c0.435,0.207,0.823,0.468,1.164,0.783c0.34,0.315,0.614,0.701,0.82,1.158
		s0.31,1.011,0.31,1.664c0,0.71-0.122,1.375-0.364,1.995s-0.598,1.16-1.065,1.62c-0.467,0.46-1.038,0.823-1.712,1.087
		c-0.674,0.264-1.446,0.396-2.315,0.396c-0.5,0-0.993-0.049-1.479-0.146c-0.486-0.098-0.951-0.237-1.397-0.418
		s-0.863-0.399-1.25-0.652c-0.388-0.254-0.734-0.537-1.039-0.848l0.848-1.402c0.08-0.102,0.176-0.187,0.288-0.255
		s0.237-0.104,0.375-0.104c0.181,0,0.377,0.075,0.587,0.223c0.21,0.148,0.458,0.313,0.745,0.495
		c0.287,0.181,0.624,0.346,1.011,0.495s0.854,0.223,1.397,0.223c0.833,0,1.479-0.197,1.935-0.592s0.685-0.962,0.685-1.701
		c0-0.413-0.103-0.75-0.31-1.011s-0.48-0.48-0.821-0.658c-0.341-0.177-0.729-0.328-1.163-0.451
		c-0.435-0.123-0.877-0.257-1.326-0.402c-0.45-0.145-0.892-0.318-1.327-0.521c-0.435-0.203-0.822-0.467-1.163-0.793
		s-0.614-0.734-0.821-1.223s-0.31-1.093-0.31-1.81c0-0.572,0.114-1.13,0.342-1.674c0.229-0.544,0.562-1.026,1-1.446
		c0.438-0.42,0.977-0.757,1.614-1.011c0.638-0.253,1.366-0.38,2.185-0.38c0.928,0,1.783,0.145,2.566,0.435
		c0.783,0.29,1.449,0.696,2,1.218L222.966,132.804z"/>
</g>
</svg>
