<?xml version="1.0" encoding="utf-8"?>
<!-- Generator: Adobe Illustrator 16.0.4, SVG Export Plug-In . SVG Version: 6.00 Build 0)  -->
<!DOCTYPE svg PUBLIC "-//W3C//DTD SVG 1.1//EN" "http://www.w3.org/Graphics/SVG/1.1/DTD/svg11.dtd">
<svg version="1.1" id="Layer_1" xmlns="http://www.w3.org/2000/svg" xmlns:xlink="http://www.w3.org/1999/xlink" x="0px" y="0px"
	 width="456.742px" height="315.779px" viewBox="0 0 456.742 315.779" enable-background="new 0 0 456.742 315.779"
	 xml:space="preserve">
<g>
	<g>
		<path fill="#868686" d="M260.262,26.723c-36.229,0-65.596,29.368-65.596,65.595c0,36.231,29.369,65.598,65.596,65.598
			c36.226,0,65.598-29.368,65.598-65.598C325.86,56.091,296.487,26.723,260.262,26.723z M260.262,137.788
			c-25.098,0-45.44-20.344-45.44-45.44c0-25.094,20.342-45.439,45.44-45.439c25.094,0,45.438,20.345,45.438,45.439
			C305.7,117.442,285.355,137.788,260.262,137.788z"/>
		
			<rect x="312.554" y="124.957" transform="matrix(-0.7071 0.7071 -0.7071 -0.7071 659.0155 42.2627)" fill="#868686" width="16.402" height="65.322"/>
	</g>
	<rect x="113.231" y="42.851" fill="#868686" width="73.299" height="11.712"/>
	<rect x="113.231" y="80.364" fill="#868686" width="91.828" height="11.714"/>
	<rect x="113.231" y="119.354" fill="#868686" width="73.299" height="11.714"/>
	<rect x="202.46" y="72.928" fill="#868686" width="73.303" height="28.918"/>
</g>
</svg>
