<?xml version="1.0" encoding="utf-8"?>
<!-- Generator: Adobe Illustrator 16.0.4, SVG Export Plug-In . SVG Version: 6.00 Build 0)  -->
<!DOCTYPE svg PUBLIC "-//W3C//DTD SVG 1.1//EN" "http://www.w3.org/Graphics/SVG/1.1/DTD/svg11.dtd">
<svg version="1.1" id="Layer_1" xmlns="http://www.w3.org/2000/svg" xmlns:xlink="http://www.w3.org/1999/xlink" x="0px" y="0px"
	 width="207.871px" height="142.39px" viewBox="0 0 207.871 142.39" enable-background="new 0 0 207.871 142.39"
	 xml:space="preserve">
<g>
	<g>
		<path fill="#868686" d="M130.438,6.337c-29.619,0-53.629,24.01-53.629,53.628c0,29.621,24.011,53.631,53.629,53.631
			c29.617,0,53.63-24.01,53.63-53.631C184.069,30.347,160.055,6.337,130.438,6.337z M130.438,97.139
			c-20.519,0-37.15-16.632-37.15-37.15c0-20.516,16.631-37.149,37.15-37.149c20.516,0,37.149,16.633,37.149,37.149
			C167.587,80.506,150.954,97.139,130.438,97.139z"/>
		
			<rect x="173.191" y="86.65" transform="matrix(-0.7071 0.7071 -0.7071 -0.7071 387.2524 66.2989)" fill="#868686" width="13.409" height="53.405"/>
	</g>
	<rect x="10.231" y="19.523" fill="#868686" width="59.927" height="9.576"/>
	<rect x="10.231" y="50.192" fill="#868686" width="75.075" height="9.577"/>
	<rect x="10.231" y="82.069" fill="#868686" width="59.927" height="9.577"/>
	<rect x="83.182" y="44.113" fill="#868686" width="59.93" height="23.642"/>
</g>
</svg>
