<?xml version="1.0" encoding="utf-8"?>
<!-- Generator: Adobe Illustrator 16.0.0, SVG Export Plug-In . SVG Version: 6.00 Build 0)  -->
<!DOCTYPE svg PUBLIC "-//W3C//DTD SVG 1.1//EN" "http://www.w3.org/Graphics/SVG/1.1/DTD/svg11.dtd">
<svg version="1.1" id="Layer_1" xmlns="http://www.w3.org/2000/svg" xmlns:xlink="http://www.w3.org/1999/xlink" x="0px" y="0px"
	 width="441.594px" height="348.599px" viewBox="0 0 441.594 348.599" enable-background="new 0 0 441.594 348.599"
	 xml:space="preserve">
<rect x="65.542" y="9.941" fill="#6B9B70" width="274.306" height="122.583"/>
<g>
	<g>
		<circle fill="#588D93" cx="71.442" cy="148.824" r="22.23"/>
		<path fill="#588D93" d="M37.869,196.655h67.146c-2.018-16.757-16.274-29.747-33.574-29.747
			C54.143,166.908,39.886,179.897,37.869,196.655z"/>
	</g>
	<path fill="#63A3A8" d="M71.441,196.653h33.574c-1.598-13.272-10.879-24.173-23.265-28.135c7.085-3.717,11.92-11.139,11.92-19.693
		c0-12.277-9.953-22.23-22.23-22.23V196.653z"/>
</g>
<g>
	<g>
		<ellipse fill="#8A3483" cx="361.061" cy="180.761" rx="22.229" ry="19.258"/>
		<path fill="#8A3483" d="M327.488,222.195h67.146c-2.017-14.516-16.273-25.769-33.573-25.769
			C343.762,196.426,329.505,207.68,327.488,222.195z"/>
	</g>
	<g>
		<path fill="#9B4399" d="M360.696,222.148h33.573c-1.598-11.499-10.878-20.941-23.264-24.375c7.084-3.22,11.92-9.649,11.92-17.061
			c0-10.636-9.952-19.256-22.229-19.256V222.148z"/>
	</g>
</g>
<g>
	<g>
		<circle fill="#4C5870" cx="88.228" cy="200.525" r="22.23"/>
		<path fill="#4C5870" d="M54.654,248.356h67.148c-2.018-16.757-16.274-29.747-33.574-29.747S56.672,231.6,54.654,248.356z"/>
	</g>
	<path fill="#5B697F" d="M88.228,248.356h33.575c-1.598-13.274-10.879-24.175-23.265-28.138c7.084-3.717,11.92-11.139,11.92-19.693
		c0-12.277-9.953-22.229-22.23-22.229V248.356z"/>
</g>
<g>
	<g>
		<circle fill="#3AA047" cx="163.221" cy="162.207" r="22.229"/>
		<path fill="#3AA047" d="M129.647,210.036h67.146c-2.018-16.757-16.273-29.746-33.572-29.746
			C145.922,180.29,131.665,193.279,129.647,210.036z"/>
	</g>
	<path fill="#55B65D" d="M163.236,210.036h33.571c-1.598-13.273-10.877-24.175-23.264-28.137c7.084-3.716,11.92-11.138,11.92-19.693
		c0-12.277-9.951-22.229-22.228-22.229V210.036z"/>
</g>
<g>
	<g>
		<circle fill="#DC3B74" cx="299.729" cy="139.395" r="22.229"/>
		<path fill="#DC3B74" d="M266.155,187.224h67.146c-2.017-16.755-16.273-29.746-33.572-29.746
			C282.429,157.478,268.172,170.468,266.155,187.224z"/>
	</g>
	<path fill="#E74C8B" d="M299.729,187.226h33.573c-1.598-13.274-10.878-24.174-23.264-28.137c7.084-3.717,11.92-11.139,11.92-19.693
		c0-12.277-9.952-22.229-22.229-22.229V187.226z"/>
</g>
<g>
	<g>
		<circle fill="#F7D02F" cx="220.956" cy="126.595" r="22.229"/>
		<path fill="#F7D02F" d="M187.383,174.424h67.146c-2.018-16.755-16.274-29.746-33.573-29.746
			C203.656,144.678,189.4,157.668,187.383,174.424z"/>
	</g>
	<path fill="#F9DC62" d="M221.028,174.424h33.572c-1.597-13.273-10.877-24.174-23.264-28.136
		c7.085-3.716,11.921-11.138,11.921-19.693c0-12.277-9.952-22.229-22.229-22.229V174.424z"/>
</g>
<g>
	<g>
		<circle fill="#4A68B1" cx="267.837" cy="191.183" r="22.23"/>
		<path fill="#4A68B1" d="M234.265,239.012h67.146c-2.018-16.755-16.274-29.745-33.574-29.745
			C250.538,209.267,236.281,222.257,234.265,239.012z"/>
	</g>
	<path fill="#5F80C0" d="M267.838,239.014h33.572c-1.597-13.274-10.877-24.175-23.264-28.138
		c7.085-3.717,11.921-11.138,11.921-19.693c0-12.277-9.952-22.229-22.229-22.229V239.014z"/>
</g>
<g>
	<g>
		<circle fill="#EA9C4E" cx="234.265" cy="226.295" r="22.229"/>
		<path fill="#EA9C4E" d="M200.691,274.125h67.146c-2.017-16.758-16.273-29.746-33.572-29.746
			C216.965,244.379,202.709,257.367,200.691,274.125z"/>
	</g>
	<path fill="#F6AA66" d="M234.265,274.125h33.572c-1.597-13.273-10.877-24.174-23.264-28.137
		c7.085-3.717,11.921-11.139,11.921-19.693c0-12.277-9.952-22.23-22.229-22.23V274.125z"/>
</g>
<line fill="#FFFFFF" fill-opacity="0.3" stroke="#49A7B7" stroke-width="6" stroke-miterlimit="10" x1="82.329" y1="131.65" x2="82.329" y2="153.88"/>
<line fill="#FFFFFF" fill-opacity="0.3" stroke="#49A7B7" stroke-width="6" stroke-miterlimit="10" x1="321.958" y1="133.335" x2="321.958" y2="155.564"/>
<line fill="none" stroke="#FFFFFF" stroke-width="5" stroke-miterlimit="10" x1="88.228" y1="39.333" x2="181.235" y2="39.333"/>
<line fill="none" stroke="#FFFFFF" stroke-width="5" stroke-miterlimit="10" x1="209.99" y1="39.334" x2="302.998" y2="39.334"/>
<g>
	<g>
		<circle fill="#588D93" cx="300.214" cy="225.974" r="22.23"/>
		<path fill="#588D93" d="M333.787,273.806h-67.146c2.018-16.758,16.274-29.748,33.574-29.748
			C317.514,244.058,331.771,257.048,333.787,273.806z"/>
	</g>
	<path fill="#63A3A8" d="M300.215,273.804h-33.574c1.598-13.273,10.879-24.174,23.265-28.137
		c-7.085-3.716-11.921-11.138-11.921-19.693c0-12.277,9.953-22.23,22.23-22.23V273.804z"/>
</g>
<g>
	<g>
		<ellipse fill="#8A3483" cx="43.804" cy="281.403" rx="22.229" ry="19.258"/>
		<path fill="#8A3483" d="M77.376,322.839H10.231c2.017-14.516,16.273-25.77,33.573-25.77
			C61.103,297.069,75.36,308.323,77.376,322.839z"/>
	</g>
	<g>
		<path fill="#9B4399" d="M44.168,322.792H10.595c1.598-11.5,10.878-20.941,23.264-24.375c-7.084-3.221-11.92-9.648-11.92-17.061
			c0-10.637,9.952-19.258,22.229-19.258V322.792z"/>
	</g>
</g>
<g>
	<g>
		<circle fill="#4C5870" cx="398.678" cy="220.681" r="22.23"/>
		<path fill="#4C5870" d="M432.252,268.513h-67.148c2.018-16.758,16.274-29.748,33.574-29.748S430.234,251.755,432.252,268.513z"/>
	</g>
	<path fill="#5B697F" d="M398.679,268.513h-33.575c1.598-13.273,10.879-24.176,23.265-28.139
		c-7.084-3.717-11.92-11.139-11.92-19.693c0-12.277,9.953-22.229,22.23-22.229V268.513z"/>
</g>
<g>
	<g>
		<circle fill="#3AA047" cx="163.243" cy="231.58" r="22.229"/>
		<path fill="#3AA047" d="M196.816,279.409H129.67c2.018-16.758,16.273-29.746,33.572-29.746
			C180.542,249.663,194.799,262.651,196.816,279.409z"/>
	</g>
	<path fill="#55B65D" d="M163.228,279.409h-33.571c1.598-13.273,10.877-24.176,23.264-28.137
		c-7.084-3.717-11.92-11.139-11.92-19.694c0-12.277,9.951-22.229,22.228-22.229V279.409z"/>
</g>
<g>
	<g>
		<circle fill="#4A68B1" cx="146.443" cy="294.542" r="22.23"/>
		<path fill="#4A68B1" d="M180.016,342.37h-67.146c2.018-16.754,16.274-29.744,33.574-29.744
			C163.742,312.626,177.999,325.616,180.016,342.37z"/>
	</g>
	<path fill="#5F80C0" d="M146.442,342.372H112.87c1.597-13.273,10.877-24.174,23.264-28.137
		c-7.085-3.717-11.921-11.139-11.921-19.693c0-12.277,9.952-22.229,22.229-22.229V342.372z"/>
</g>
<g>
	<g>
		<circle fill="#EA9C4E" cx="371.018" cy="259.512" r="22.229"/>
		<path fill="#EA9C4E" d="M404.591,307.342h-67.146c2.017-16.758,16.273-29.746,33.572-29.746
			C388.317,277.596,402.573,290.584,404.591,307.342z"/>
	</g>
	<path fill="#F6AA66" d="M371.018,307.342h-33.572c1.597-13.273,10.877-24.174,23.264-28.137
		c-7.085-3.717-11.921-11.139-11.921-19.693c0-12.277,9.952-22.229,22.229-22.229V307.342z"/>
</g>
<line fill="none" stroke="#FFFFFF" stroke-width="5" stroke-miterlimit="10" x1="88.228" y1="61.833" x2="181.235" y2="61.833"/>
<line fill="none" stroke="#FFFFFF" stroke-width="5" stroke-miterlimit="10" x1="219.651" y1="71.233" x2="312.659" y2="71.233"/>
<line fill="none" stroke="#FFFFFF" stroke-width="5" stroke-miterlimit="10" x1="94.488" y1="117.165" x2="187.495" y2="117.165"/>
<line fill="none" stroke="#FFFFFF" stroke-width="5" stroke-miterlimit="10" x1="112.521" y1="92.331" x2="169.506" y2="92.331"/>
<line fill="none" stroke="#FFFFFF" stroke-width="5" stroke-miterlimit="10" x1="249.996" y1="104.365" x2="282.313" y2="104.365"/>
</svg>
