<?xml version="1.0" encoding="utf-8"?>
<!-- Generator: Adobe Illustrator 16.0.4, SVG Export Plug-In . SVG Version: 6.00 Build 0)  -->
<!DOCTYPE svg PUBLIC "-//W3C//DTD SVG 1.1//EN" "http://www.w3.org/Graphics/SVG/1.1/DTD/svg11.dtd">
<svg version="1.1" id="Layer_1" xmlns="http://www.w3.org/2000/svg" xmlns:xlink="http://www.w3.org/1999/xlink" x="0px" y="0px"
	 width="332px" height="52px" viewBox="0 0 332 52" enable-background="new 0 0 332 52" xml:space="preserve">
<polyline fill="#FFFFFF" points="108.728,45.79 113.764,35.302 118.799,24.814 113.657,14.489 108.621,4.377 108.621,4 5.47,4 
	5.47,4.164 10.612,14.489 15.755,24.814 10.72,35.302 5.684,45.79 5.577,24.977 5.47,4.164 5.47,46 108.621,46 "/>
<polyline fill="#FFFFFF" points="315.398,45.79 320.434,35.302 325.471,24.814 320.328,14.489 315.291,4.377 315.291,4 212.141,4 
	212.141,4.164 217.283,14.489 222.425,24.814 217.391,35.302 212.354,45.79 212.248,24.977 212.141,4.164 212.141,46 315.291,46 "/>
<text transform="matrix(1 0 0 1 58.1079 31.8599)" fill="#ABABAB" font-family="'Lato-Bold'" font-size="20">1</text>
<polyline fill="#EAEAEA" points="212.063,45.79 217.099,35.302 222.135,24.814 216.993,14.489 211.956,4.377 211.956,4 108.806,4 
	108.806,4.164 113.948,14.489 119.09,24.814 114.055,35.302 109.019,45.79 108.912,24.977 108.806,4.164 108.806,46 211.956,46 "/>
<g>
	<text transform="matrix(1 0 0 1 157.605 31.8599)" fill="#515251" font-family="'Lato-Bold'" font-size="20">2</text>
</g>
<g>
	<text transform="matrix(1 0 0 1 261.8003 31.8599)" fill="#515251" font-family="'Lato-Bold'" font-size="20">3</text>
</g>
</svg>
