<?xml version="1.0" encoding="utf-8"?>
<!-- Generator: Adobe Illustrator 16.0.4, SVG Export Plug-In . SVG Version: 6.00 Build 0)  -->
<!DOCTYPE svg PUBLIC "-//W3C//DTD SVG 1.1//EN" "http://www.w3.org/Graphics/SVG/1.1/DTD/svg11.dtd">
<svg version="1.1" id="Layer_1" xmlns="http://www.w3.org/2000/svg" xmlns:xlink="http://www.w3.org/1999/xlink" x="0px" y="0px"
	 width="44px" height="48px" viewBox="0 0 44 48" enable-background="new 0 0 44 48" xml:space="preserve">
<g id="Info_5_">
	<g>
		<path fill="#CCCCCC" d="M34.359,5.18H9.778c-1.507,0-2.734,1.222-2.734,2.731c0,1.51,1.227,2.731,2.734,2.731h24.582
			c1.508,0,2.731-1.222,2.731-2.731C37.091,6.402,35.867,5.18,34.359,5.18z"/>
	</g>
</g>
<g id="Arrow_20_">
	<g>
		<path fill="#CCCCCC" d="M32.148,26.089l-7.978-8.001c-0.537-0.538-1.233-0.81-1.936-0.825c-0.07-0.005-0.137-0.021-0.209-0.021
			c-0.767,0-1.457,0.316-1.952,0.824c-0.024,0.021-0.052,0.034-0.076,0.057l-8.01,7.984c-1.106,1.103-1.106,2.89,0,3.99
			c1.107,1.103,2.899,1.103,4.004,0l3.302-3.289v15.016c0,1.509,1.221,2.73,2.731,2.73c1.509,0,2.731-1.222,2.731-2.73V26.68
			l3.401,3.413c1.101,1.104,2.888,1.104,3.989,0C33.25,28.988,33.25,27.191,32.148,26.089z"/>
	</g>
</g>
</svg>
