<?xml version="1.0" encoding="utf-8"?>
<!-- Generator: Adobe Illustrator 16.0.4, SVG Export Plug-In . SVG Version: 6.00 Build 0)  -->
<!DOCTYPE svg PUBLIC "-//W3C//DTD SVG 1.1//EN" "http://www.w3.org/Graphics/SVG/1.1/DTD/svg11.dtd">
<svg version="1.1" id="master_signature" xmlns="http://www.w3.org/2000/svg" xmlns:xlink="http://www.w3.org/1999/xlink" x="0px"
	 y="0px" width="504px" height="122.941px" viewBox="0 0 504 122.941" enable-background="new 0 0 504 122.941"
	 xml:space="preserve">
<g>
	<polygon fill="#FFFFFF" points="116.095,37.835 126.827,37.835 136.238,68.625 146.447,37.704 155.016,37.704 165.221,68.625 
		174.64,37.835 185.102,37.835 169.566,83.64 160.87,83.64 150.611,53.887 140.335,83.64 131.63,83.64 	"/>
	<path fill="#FFFFFF" d="M211.476,64.594l-6.038-14.743l-6.042,14.743H211.476z M200.946,37.826h9.231L229.66,83.64h-10.453
		l-4.159-10.209h-19.23l-4.163,10.209H181.45L200.946,37.826z"/>
	<polygon fill="#FFFFFF" points="240.569,47.38 226.731,47.38 226.731,38.156 264.425,38.156 264.425,47.38 250.593,47.38 
		250.593,83.64 240.569,83.64 	"/>
	<polygon fill="#FFFFFF" points="272.035,38.156 306.343,38.156 306.343,47.044 281.976,47.044 281.976,56.275 303.425,56.275 
		303.425,65.188 281.976,65.188 281.976,74.737 306.664,74.737 306.664,83.64 272.035,83.64 	"/>
	<path fill="#FFFFFF" d="M337.574,60.249c4.878,0,7.671-2.601,7.671-6.434v-0.128c0-4.289-2.997-6.5-7.867-6.5h-9.936v13.061h10.132
		V60.249z M317.429,38.156h20.802c5.777,0,10.257,1.62,13.251,4.617c2.531,2.529,3.896,6.095,3.896,10.382v0.139
		c0,7.345-3.957,11.96-9.743,14.103l11.104,16.243H345.04l-9.743-14.557h-7.854V83.64h-10.012V38.156H317.429z"/>
	<polygon fill="#FFFFFF" points="366.42,38.156 376.423,38.156 376.423,74.542 397.718,74.542 397.718,83.64 366.42,83.64 	"/>
	<path fill="#FFFFFF" d="M437.141,61.026V60.89c0-7.783-5.712-14.293-13.767-14.293c-8.061,0-13.651,6.373-13.651,14.17v0.126
		c0,7.799,5.719,14.303,13.782,14.303C431.556,75.195,437.141,68.831,437.141,61.026 M399.257,61.026V60.89
		c0-12.917,10.2-23.52,24.249-23.52c14.026,0,24.106,10.465,24.106,23.395v0.125c0,12.938-10.205,23.529-24.237,23.529
		C409.344,84.419,399.257,73.957,399.257,61.026"/>
	<path fill="#FFFFFF" d="M488.303,61.026V60.89c0-7.783-5.717-14.293-13.781-14.293c-8.049,0-13.643,6.373-13.643,14.17v0.126
		c0,7.799,5.721,14.303,13.767,14.303C482.706,75.195,488.303,68.831,488.303,61.026 M450.416,61.026V60.89
		c0-12.917,10.199-23.52,24.228-23.52c14.044,0,24.116,10.465,24.116,23.395v0.125c0,12.938-10.2,23.529-24.238,23.529
		C460.487,84.419,450.416,73.957,450.416,61.026"/>
	<g>
		<path fill="#FFFFFF" d="M141.486,15.14V3.165h4.612v11.857c0,3.411,1.707,5.176,4.519,5.176c2.813,0,4.521-1.704,4.521-5.028
			V3.165h4.612v11.825c0,6.348-3.564,9.46-9.191,9.46C144.928,24.451,141.486,21.307,141.486,15.14z"/>
		<path fill="#FFFFFF" d="M172.009,3.165h4.252l9.82,12.904V3.165h4.549v20.956h-3.922l-10.15-13.321v13.321h-4.549V3.165z"/>
		<path fill="#FFFFFF" d="M203.743,3.165h4.612v20.956h-4.612V3.165z"/>
		<path fill="#FFFFFF" d="M219.669,3.165h5.087l5.48,14.76l5.481-14.76h4.967l-8.47,21.106h-4.072L219.669,3.165z"/>
		<path fill="#FFFFFF" d="M251.791,3.165h15.811v4.103h-11.228v4.251h9.879v4.101h-9.879v4.402h11.374v4.099h-15.956V3.165H251.791z
			"/>
		<path fill="#FFFFFF" d="M279.726,3.165h9.581c2.662,0,4.73,0.747,6.105,2.128c1.164,1.166,1.795,2.814,1.795,4.789v0.06
			c0,3.382-1.827,5.508-4.492,6.497l5.122,7.483h-5.391l-4.488-6.706h-3.623v6.706h-4.61L279.726,3.165L279.726,3.165z
			 M289.008,13.345c2.242,0,3.531-1.198,3.531-2.965v-0.059c0-1.976-1.378-2.994-3.621-2.994h-4.58v6.019h4.67V13.345z"/>
		<path fill="#FFFFFF" d="M307.808,21.068l2.724-3.263c1.889,1.557,3.861,2.544,6.258,2.544c1.886,0,3.022-0.749,3.022-1.975v-0.06
			c0-1.167-0.718-1.766-4.221-2.666c-4.221-1.077-6.945-2.246-6.945-6.407V9.184c0-3.802,3.054-6.319,7.333-6.319
			c3.055,0,5.66,0.96,7.783,2.666l-2.395,3.474c-1.854-1.286-3.682-2.066-5.447-2.066s-2.696,0.808-2.696,1.826v0.061
			c0,1.376,0.9,1.824,4.521,2.754c4.25,1.108,6.646,2.635,6.646,6.288v0.06c0,4.161-3.176,6.497-7.696,6.497
			C313.524,24.421,310.318,23.314,307.808,21.068z"/>
		<path fill="#FFFFFF" d="M336.487,3.165h4.609v20.956h-4.609V3.165z"/>
		<path fill="#FFFFFF" d="M359.09,7.417h-6.378V3.165h17.361v4.252h-6.377v16.704h-4.608V7.417H359.09z"/>
		<path fill="#FFFFFF" d="M387.379,15.857l-8.052-12.693h5.39l4.999,8.412l5.089-8.412h5.237l-8.051,12.604v8.352h-4.612V15.857z"/>
		<path fill="#FFFFFF" d="M426.24,13.703v-0.059c0-5.959,4.703-10.838,11.168-10.838c6.466,0,11.105,4.82,11.105,10.778v0.06
			c0,5.957-4.7,10.836-11.167,10.836C430.882,24.481,426.24,19.663,426.24,13.703z M443.695,13.703v-0.059
			c0-3.592-2.635-6.586-6.347-6.586s-6.287,2.933-6.287,6.526v0.06c0,3.591,2.635,6.586,6.349,6.586
			C441.12,20.229,443.695,17.297,443.695,13.703z"/>
		<path fill="#FFFFFF" d="M458.418,3.165h15.956v4.192h-11.348v4.459h10v4.191h-10v8.113h-4.608V3.165z"/>
	</g>
</g>
<g>
	<path fill="#FFFFFF" d="M12.056,9.432c0.057,0.049,0.035,0.002-0.057-0.063C11.981,9.361,11.99,9.376,12.056,9.432z"/>
	<path fill="#FFFFFF" d="M70.899,44.082C70.962,44.169,70.899,44.05,70.899,44.082L70.899,44.082z"/>
	<path fill="#FFFFFF" d="M58.452,103.946c-0.029,0.026-0.056,0.053-0.086,0.079c-0.015,0.018-0.028,0.032-0.043,0.048
		L58.452,103.946z"/>
	<path fill="#FFFFFF" d="M79.514,10.464c-0.001,0-0.004,0-0.005,0.001C79.465,10.517,79.614,10.404,79.514,10.464z"/>
	<path fill="#FFFFFF" d="M26.751,10.829c0.498-1.226,1.681-1.363,2.662,0.011c0.014,0.016-0.043,0.097-0.156,0.145
		C28.387,11.391,26.413,11.657,26.751,10.829z M99.845,3.12l-0.023,0.939c-0.052,2.151-0.096,4.296-0.142,6.437
		c-0.581,27.784-1.129,54.027-17.559,79.236c-6.766,10.387-17.155,19.047-30.044,25.036l-0.386,0.181l-0.386-0.178
		c-12.909-5.979-23.315-14.635-30.095-25.039C4.777,64.517,4.231,38.263,3.651,10.469c-0.043-2.132-0.088-4.269-0.142-6.41
		L3.487,3.12H99.845z M84.47,14.127c-0.028-0.085-0.497-1.603-0.698-0.994c-1.038,3.124-3.582,4.147-6.101,5.421
		c-1.733,0.883-6.397,4.83-4.781,6.323c-0.198-0.18,2.526,0.642,3.472,1.601c0.197,0.195,1.015-1.906,4.474-1.807
		c0.973,0.03,1.97,0.404,2.856,0.945C83.147,21.727,85.803,17.942,84.47,14.127z M72.875,11.873
		c1.238,0.063,3.039-1.339,3.792,0.095c0.129,0.242,0.255,0.484,0.277,0.744c0.004,0.05,0.012,0.105,0.021,0.156
		c0.063,0.335,0.038,0.675,0.009,1.002c-0.029,0.442-0.242,0.776-0.522,1.118c-0.089,0.11-0.224,0.159-0.322,0.253
		c-0.048,0.047-0.101,0.085-0.147,0.125c-0.134,0.109-0.295,0.15-0.443,0.223c-0.115,0.056-0.225,0.082-0.354,0.099
		c-0.073,0.013-0.157,0.014-0.225,0.017c-0.016,0-0.427-0.037-0.439-0.033c-0.301,0.027-0.342-0.134-0.544,0.044
		c-0.158,0.13-0.18,0.342-0.204,0.54c0.191,0.004,0.38,0.04,0.559,0.099c0.267,0.091,0.539,0.169,0.823,0.211
		c0.491,0.078,0.577,0.045,1.068,0.056c0.206,0.004,0.846-0.013,1.053-0.015c0.209,0,0.308-0.009,0.515-0.041
		c0.348-0.043,0.268,0,0.644-0.097c0.138-0.035,0.51-0.199,0.634-0.277c0.266-0.16,0.498-0.35,0.755-0.529
		c0.421-0.286,1.039-0.276,1.409-0.597l-0.168,0.137c1.095-0.522,1.161-1.981,1.579-3.019c0.288-0.706,1.103-0.666,1.397-1.453
		c0.089-0.228,0.091-1.353-0.081-1.279c-0.708,0.302-1.777,0.771-2.521,0.565C78.952,9.33,78.32,8.058,75.94,9.819
		c-0.706,0.523-2.071-0.036-2.953,1.101C72.85,11.095,72.875,11.598,72.875,11.873z M69.57,12.772
		c1.198,1.872,3.478,2.386,5.352,0.871c0.191-0.154,0.554-0.101,0.868,0.051c-1.695-1.989-3.212-0.814-4.743-0.7
		C70.648,13.024,70.057,12.696,69.57,12.772z M62.064,13.498c0.126-0.012,0.523,0.018,0.59,0.121
		c0.117,0.18,0.119,0.386,0.255,0.555c0.167,0.213,0.31,0.221,0.555,0.323c0.378,0.163,0.719,0.234,1.141,0.199l0.091,0.05
		c0.19,0.121-0.013,0.461-0.229,0.525c-0.255,0.069-0.61-0.037-0.834,0.048c-0.997,0.367-1,2.821-0.863,2.538
		c0.148-0.315,0.886-0.109,1.362-0.017c0.769,0.157,1.351-1.408,1.857-1.362c1.197,0.109,2.319,1.598,2.774,2.576
		c0.083,0.181-0.5,0.188-0.54,0.791c1.63-0.155,3.01,0.906,4.189,1.873c0.575-0.997,1.155-1.616,1.807-2.269
		c-2.456-2.387-7.335-3.126-6.582-7.478c0.099-0.561-0.532-1.052-0.812-1.325c-0.318-0.304-1.04-0.322-1.483-0.427
		c0.467,0.965-0.376,1.058-0.256,2.589c0.001,0.048-0.139,0.017-0.189-0.004c-0.294-0.126-0.543-0.309-0.824-0.483
		c-0.253-0.157-0.487-0.114-0.768-0.074c-0.17,0.023-0.324,0.101-0.469,0.203c-0.231,0.167-0.352,0.379-0.511,0.616
		c-0.031,0.043-0.064,0.093-0.101,0.13C62.178,13.25,62.071,13.416,62.064,13.498z M58.727,25.292
		c0.984-0.502,1.127,0.862,1.754,0.489c0.547-0.321,1.009-0.702,1.562-0.447c0.334,0.155,0.234,0.77-0.035,0.871
		c-2.831,1.007-0.551,2.866-1.004,3.253c0.393-0.339,1.568-0.33,2.684-2.01c0.231-0.348,1.592-0.381,2.101-0.23
		c0.774,0.234-0.053,1.414,0.293,1.354c0.847-0.143,2.596,0.825,3.349,1.537c1.68,1.594,2.971,1.371,4.91,2.425
		c-1.332-1.216-1.336-3.345-0.922-5.024c-1.723,0.029-3.413-0.49-5.092-0.908c-3.224-0.795-3.027-4.107-3.607-5.455l-0.195-0.224
		c-0.151-0.559-0.851-0.811-1.405-0.883c-0.056-0.007-0.115-0.022-0.173-0.033c-0.146-0.034-0.296-0.03-0.439-0.041
		c0.175,0.057,0.17,0.264,0.08,0.383c-0.011,0.011-0.014,0.056-0.045,0.041c0.027,0.056-0.05,0.056-0.064,0.1
		c-0.012,0.04-0.081,0.06-0.103,0.106c-0.009,0.021-0.005,0.048-0.023,0.062c-0.454,0.335-0.529,0.933-0.383,1.432
		c0.028,0.106,0.064,0.21,0.136,0.285c0.047,0.052,0.086,0.106,0.132,0.155c0.146,0.134,0.218,0.46,0.431,0.598l0.363,0.633
		c0.18,0.157-0.254,0.319-0.363,0.183C61.119,22.13,58.525,22.381,58.727,25.292z M79.13,38.001
		c0.379-0.987-1.622-2.941-3.128-2.396c-1.922,0.687-1.123,3.115-1.483,4.812c-0.202,0.938-1.365,1.625-2.331,1.291
		c-1.59-0.546-2.229-2.028-2.62-3.691c-0.266-1.108-2.42-1.24-2.885-0.334c-1.322,2.573,0.787-0.298,0.65,1.655
		c-0.025,0.331-1.544,0.083-1.885,1.24c-0.232,0.788,0.514,1.317,1.456,1.593c0.173,0.051-0.182-0.389,0.055-0.485
		c0.169-0.068,0.86,0.303,0.777,0.351c-0.903,0.549-1.138,1.836,0.483,2.397c0.013,0.003-0.117-0.464,0.006-0.552
		c1.264-0.946,2.585,0.072,2.587,0.04h-0.024c0.056,0.086,0.088,0.135,0.11,0.161c0,0.027,0.031,0.126,0.169,0.443
		c1.823-0.764,3.708-1.635,5.725-0.817C75.9,39.61,78.893,38.615,79.13,38.001z M33.419,27.217c-2.096,1.807-5.97,0.315-7.77,2.079
		c-1.713,1.675,2.668,2.811,4.372,3.602c0.628,0.294,1.258,0.937,1.153,1.731c-2.669-1.57-5.886,0.207-5.727,3.062
		c0.118,2.131,2.728,3.458,4.902,3.637c0.904,0.074,1.449,1.083,0.349,1.771c-1.931,1.209-4.083,2.552-6.163,0.369
		c-0.349-0.362-1.594-0.136-1.84,0.528c-0.123,0.32-0.16,0.816-0.109,1.141c0.112-0.198,0.245-0.476,0.42-0.455
		c0.204,0.03,0.455,0.243,0.426,0.396c-0.18,1.068-1.584,0.377-2.019,1.207c-0.011,0.021-0.032,0.037-0.042,0.056
		c-0.028,0.069-0.065,0.127-0.097,0.189c-0.285,0.564-0.675,0.922,0.026,1.36c-0.018-0.104,0.347,0.45,0.341,0.545
		c0.034-0.511,0.568-0.502,0.568-0.502l0.309,0.034l0.31,0.137c0.342,0.077,0.087,0.359-0.046,0.447
		c-0.281,0.187-0.475,0.416-0.65,0.695c-0.136,0.207-0.23,0.431-0.178,0.69c0.034,0.187,0.098,0.355,0.169,0.528
		c0.045,0.106,0.143,0.162,0.222,0.253c0.034,0.032,0.156,0.187,0.16,0.199c-0.078-0.266,0.3-0.533,0.386-0.482
		c1.742,1.011,1.844-1.037,2.887-1.733c0.443-0.296,1.447,0.044,1.187,0.953c1.041-0.553,1.345-1.958,2.158-2.833
		c1.79-1.941,4.301-3.232,6.684-4.287c-0.861-0.917-2.131-1.683-2.774-2.731c-0.318-0.518-0.7-1.536,0.005-1.349
		c2.929,0.765,4.573-1.022,4.898-3.329c4.339,0.56,5.467-3.541,6.052-6.64c0.282-1.504,1.107-1.635,0.207-4.199
		c-0.373-1.07,1.924-1.42,1.534-3.271c-0.109-0.511-0.74-1.025-1.114-1.086c0.356,0.997-1.315,1.25-1.498,1.656
		c-0.281,0.638-0.694,1.15-0.75,1.82c-1.414-1.956-0.269-4.312,1.056-6.143c1.939-2.668,5.953-1.265,7.645,0.454
		c0.03-0.863-0.64-1.96-1.19-2.491c1.581-0.202,3.297,0.761,5.454-0.381c1.243-0.664,2.503-1.229,3.086-2.7
		c-2.646,0.365-6.236-1.675-8.619-2.09c-4.449-0.77-7.432,2.262-9.024,5.88c-1.584,3.611-0.568,6.31,1.152,9.009
		c0.432,0.682-1.525,0.233-2.3,0.634c-0.754,0.389-1.061,1.317-0.891,2.138c0.951-1.019,3.464-0.392,3.689,1.351
		c0.311,2.355-2.06,5.776-4.35,4.749C35.622,32.714,34.233,30.128,33.419,27.217z M33.521,11.783
		c0.102,2.287-0.761,4.635-2.779,5.836c-2.812,1.667-6.32,2.702-7.282,6.194c-0.354,1.273-0.812,4.139-0.196,5.397
		c0.214-0.66,0.608-1.269,1.363-1.295c2.72-0.101,3.513-0.644,5.343-1.959c0.647-0.465,2.372,1.433,2.333,1.163
		c-0.049-0.318-0.127-1.861,0.226-1.577c0.63,0.511,1.705,0.826,2.611,0.84c-2.218-2.514,0.517-5.364,0.554-8.006
		C35.73,16.134,34.953,13.573,33.521,11.783z M22.876,12.005c1.295-0.506,3.021-1.189,3.852,0.271
		c0.501,0.883,0.314,1.675-0.066,2.746c-0.31,0.868-1.837,1.119-2.985,0.971c0.195,0.132,0.417,0.602,0.237,0.921
		c2.59-0.651,6.383,0.321,8.12-2.617c0.591-1-0.217-1.98,0.062-2.984c0.132-0.492,0.81-0.807,1.077-1.336
		c0.214-0.421-0.365-0.98-0.33-1.375c-0.446,0.473-0.964,0.908-1.667,0.924c-1.141,0.03-2.154-0.949-3.27-0.529
		c-1.279,0.477-2.523,1.071-3.894,1.43C23.52,10.55,22.673,11.101,22.876,12.005z M18.753,13.897
		c1.675,2.517,5.516,0.46,6.814,0.935C23.809,11.749,20.779,14.363,18.753,13.897z M11.202,12.022
		c-0.641,0.649-1.355,0.124-1.892,1.328c0.809-0.347,0.897,0.882,1.241,0.929c1.542,0.21,2.716,0.483,3.562,2.046
		c0.517,0.954-0.927,0.998,0.379,1.222c0.663,0.116,1.107,0.449,1.443,0.92c0.351,0.494,0.399,1.155,0.775,1.616
		c0.273,0.33,0.376,0.396,0.708,0.671c0.148,0.123,0.622,0.247,0.8,0.293c0.177,0.046,0.284,0.137,0.454,0.198
		c0.18,0.065,0.369,0.129,0.523,0.255c0.128,0.106,0.454,0.218,0.531,0.37c0.134,0.26,0.027,0.527,0.167,0.791
		c0.044,0.074,0.247,0.008,0.333,0.037c0.079,0.03,0.26,0.039,0.312,0.03c0.312-0.073,0.388-0.094,0.622-0.12
		c0.357-0.042,0.315,0.069,0.777,0.048c0.097,0,0.138,0.073,0.27,0.073c0.088,0,0.245,0.094,0.271,0.014
		c0.138-0.439,0.369-0.862,0.628-1.292c0.256-0.427,0.235-0.467,0.562-0.915c-0.038,0.012,0.421-0.31,0.38-0.313
		c-4.785-1.017-9.043-4.573-8.017-9.088c0.011-0.042-0.184-1.164-0.597-1.319c-0.031-0.015-0.099-0.143-0.169-0.16
		c-0.183-0.046-0.335-0.127-0.488-0.237C14.723,9.376,14.5,9.304,14.5,9.222c-0.085,0.187-0.068,0.357-0.197,0.522
		c-0.043,0.059-0.113,0.154-0.181,0.19c-0.086,0.044-0.091,0.125-0.16,0.184c-0.358,0.363-0.166,0.907-0.111,1.32
		c0.017,0.104,0.06,0.232-0.066,0.255c-0.152,0.026-0.029-0.04-0.207-0.151c-0.042-0.026-0.103-0.092-0.148-0.114
		c-0.073-0.034-0.372-0.075-0.422-0.148c-0.055-0.078-0.032-0.105-0.104-0.169c-0.167-0.148-0.181-0.444-0.301-0.75
		c-0.023-0.056-0.072-0.322-0.072-0.382c0-0.238-0.468-0.584-0.534-0.608c-0.074-0.052-0.193-0.117-0.376-0.164
		c-0.264-0.067-0.57-0.053-0.866-0.013c-0.062,0.008-0.12,0.059-0.165,0.091C10.3,9.511,10.026,9.773,9.656,9.808
		C9.642,9.807,9.628,9.815,9.612,9.817c0.017-0.001,0.03-0.009,0.046-0.01c0.038,0.009,0.063,0.057,0.086,0.084
		c0.188,0.242,0.05,0.542,0.162,0.811c0.112,0.263,0.303,0.464,0.526,0.646c0.218,0.17,0.597-0.056,0.766,0.243
		C11.197,11.578,11.554,11.672,11.202,12.022z M11.988,27.766c0.87-0.429,0.628-0.907,1.209-0.971
		c0.899-0.104,1.041,0.053,1.213,0.593c0.077,0.236-0.05,0.621-0.106,0.75c1.111,0.133,1.927-1.363,2.933-0.962
		c1.46,0.579,3.741,1.295,4.492,0.692c0.234-0.188-0.355-1.577,0.175-3.238c-2.388,1.172-5.07,0.438-7.318-0.634
		c-1.261-0.601-1.071-2.464-2.475-3.219c-0.562-0.304-1.099-0.274-1.647-0.197c-0.208,0.025-0.389,0.313-0.312,0.576
		c0.229-0.245,0.565,0.113,0.54,0.206c-0.209,0.686-0.313,0.787,0.585,1.363c-3.338-0.184-2.206,2.656-1.825,1.987
		c0.16-0.285,1.392,0.169,1.459,0.506c0.04,0.22-0.075,0.458-0.645,1.479c-0.123,0.228,0.488,1.591,0.539,1.287
		C10.91,27.33,11.645,27.561,11.988,27.766z M11.504,38.42c0.281,0.252,0.625,0.498,0.989,0.527
		c-0.053-0.035-0.083-0.161-0.099-0.224c-0.034-0.123,0.004-0.241,0.069-0.35c0.106-0.176,0.315-0.093,0.488-0.172
		c0.274-0.123,0.56-0.228,0.835-0.141l-0.068-0.04c0.212,0.03,0.423,0.305,0.245,0.479c-0.184,0.191-0.462,0.278-0.599,0.554
		c-0.14,0.282-0.056,0.792,0.067,0.995c0.124,0.202,0.352,0.333,0.546,0.481c0.031,0.025,0.25,0.199,0.282,0.227
		c0.003-0.08-0.158-0.181,0.009-0.384c0.034-0.046,0.224-0.127,0.28-0.09c0.31,0.203,0.524,0.233,0.873,0.142
		c0.254-0.067,0.361-0.102,0.555-0.289c0.344-0.341,0.366-0.706,0.645-1.059l0.583-0.403c0.482-0.245,2.404,0.86,1.039,2.227
		c1.47-0.938,4.106-2.319,6.199-1.498c-1.299-2.07-0.19-5.207,2.182-5.995c-2.651-2.542-4.877-2.404-5.881,0.237
		c-0.497,1.309,1.041,2.856-0.5,3.511c-0.859,0.364-1.736,0.138-2.566-0.16c-1.594-0.562-0.619-2.604-1.915-3.647
		c-0.877-0.701-2.973-0.584-2.968,1.18c0.088-0.092,0.299-0.3,0.457-0.12c0.341,0.922,0.337,1.167,1.248,1.391
		c0.208,0.052-0.081,0.495-0.234,0.454c-0.291-0.08-0.615-0.067-0.891-0.184c-0.345-0.153-0.739-0.186-1.101-0.075
		c-0.247,0.073-0.456,0.21-0.644,0.39c-0.066,0.065-0.126,0.125-0.188,0.2c-0.077,0.093-0.129,0.203-0.181,0.311
		c-0.113,0.23-0.108,0.492-0.098,0.743c0.003,0.088-0.015,0.187,0.026,0.27c0.036,0.084,0.029,0.189,0.086,0.251
		C11.356,38.242,11.413,38.337,11.504,38.42z M34.829,83.972c0.079-0.55,0.24-1.469,1.04-1.137c0.728,0.302,0.88,1.129,0.71,1.948
		c1.165-0.376,3.208-1.57,4.43-0.689c1.641,1.184,4.334,1.673,6.254,2.267c-1.275-0.882-1.679-3.19-1.466-4.693
		c-3.022,0.592-6.196,0.498-8.999-0.802c-0.766-0.361-0.664-1.244-0.894-1.972c-0.262-0.821-1.295-1.577-2.233-1.507
		c-0.503,0.035-1.712,1.093-1.483,1.146c-0.08-0.017-0.077,0.158-0.116,0.229c0.228-0.143,0.517,0,0.619,0.247
		c0.073,0.173,0.145,0.359,0.291,0.499c0.17,0.168,0.467,0.207,0.562,0.392c0.537,1.045-2.111-0.628-3.104,0.916
		c-0.316,0.495-0.146,1.615-0.146,2.246c0.608-0.553,1.213,0.492,2.351-0.509c0.125,0.114,0.26,0.185,0.087,0.358
		c-0.42,0.427-0.653,0.949-0.431,1.46c0.138,0.33,1.082,0.996,1.089,0.94C33.482,84.626,34.646,85.311,34.829,83.972z
		 M41.524,74.407c-1.173-0.341-1.335-1.696-2.404-2.114c-0.777-0.301-1.896,0.304-2.015,1.486c0.263-0.075,0.536,0.027,0.586,0.245
		c0.288,1.19,2.034,0.483,2.075,1.318c0.031,0.549-1.308-0.095-1.835,0.258c-0.701,0.466-0.796,1.811-0.179,2.588
		c0.637-0.607,1.427,0.282,2.045-0.157c0.432-0.309,0.585-0.748,1.028-0.945c1.343-0.591,1.737,0.646,1.441,1.891
		c0.725-0.334,2.432-0.692,2.823-0.801c0.708-0.192,0.738-1.819,1.604-2.417c-1.229-0.008-2.746-0.542-3.09-1.74
		c-0.031-0.125,0.056-0.271,0.068-0.422c0.029-0.455-0.012-0.896-0.186-1.315c-0.018-0.042-0.063-0.098-0.095-0.152
		c-0.047-0.066-0.088-0.14-0.138-0.209c-0.121-0.173-0.301-0.242-0.477-0.358c-0.08-0.049-0.173-0.066-0.23-0.143l0.016,0.018
		c-0.091-0.1-0.224-0.143-0.346-0.196c-0.125-0.056-0.256-0.097-0.401-0.117c-0.034-0.005-0.286-0.064-0.325-0.08
		c-0.009,0.085,0.108,0.322,0.041,0.381c-0.16,0.149-0.216,0.115-0.345,0.304c-0.046,0.074-0.096,0.149-0.116,0.237
		c-0.036,0.176-0.113,0.37-0.134,0.573c-0.007,0.098,0.034,0.338,0.057,0.429c0.015,0.05,0.121,0.266,0.15,0.322
		c0,0.005,0.242,0.259,0.229,0.248c0.281,0.29,0.05,0.123,0.396,0.466C41.951,74.167,41.695,74.458,41.524,74.407z M58.733,70.817
		c-0.009-0.685-0.27-1.806-1.089-2.303c-0.649,3.006-3.654,4.415-6.36,5.174c-2.647,0.729-4.162,3.121-4.968,5.485
		c-0.056,0.157-0.12,0.341-0.176,0.937c-0.027,0.241,1.522-1.605,2.599-1.066c0.05,0.237-0.229,1.358-0.542,1.634
		c1.372-0.209,3.222-0.416,4.122-1.402c0.147-0.16,0.056,0.956,0.279,1.475c0.579,1.38,1.835,2.45,3.024,3.177
		c0.315,0.184,0.273-0.626,0.929-1.14c0.524-0.417,1.477,0.48,1.925,0.678c0.371,0.167-0.444-1.232-0.533-1.679
		C57.144,77.842,58.793,74.59,58.733,70.817z M57.716,65.34c-0.715,0.964-1.915,0.933-3.017,0.668
		c-1.664-0.389-2.981-0.802-4.183,0.025c0.042-0.031-0.916,1.008-0.868,1.01c-1.84-0.1-3.015,1.146-2.73,1.897
		c0.682-0.298,1.331-0.896,2.07-0.509c0.641,0.338,0.948,2.057,0.679,2.757c-0.195,0.517-0.866,1.152-1.725,1.19
		c-0.394,0.02-0.187,0.567-0.205,0.872c2.454-0.198,5.133-1.564,7.273-2.709c1.073-0.574,1.05-1.683,1.435-2.794
		C56.698,67.025,58.064,66.835,57.716,65.34z M43.378,69.844c1.296,2.734,3.726,0.994,5.722,0.684
		c-0.324-0.374-1.447-1.109-1.726-1.059C45.382,69.79,44.892,70.541,43.378,69.844z M42.625,97.515
		c2.404-1.161,4.693-2.817,7.512-2.213c-1.64-1.717-1.059-5.405,1.262-5.858c0.005,0-1.499-0.245-1.656-0.344
		c-2.018-1.283-4.487-2.506-5.843,0.179c-0.675,1.331,0.564,2.407,1.492,3.509c0.168,0.197-0.103,0.322-0.319,0.378
		c-2.207,0.564-6.274,0.895-6.456-2.406c-0.021-0.332-0.874-0.611-1.423-0.595c-1.634,0.05-1.609,2.133-1.422,1.989
		c0.357-0.273,1.451-0.176,1.318,0.655c-0.122,0.783-1.645-0.405-2.253,0.378c-0.51,0.655-0.492,1.731-0.133,2.453
		c-0.072-0.267,0.236-0.463,0.4-0.49c1.695-0.279,1.79,0.311,1.289,1.949c-0.038,0.126,0.499,1.164,0.856,1.256
		c-0.027-0.01-0.022-0.236,0.027-0.313c0.048-0.083,0.132-0.141,0.217-0.17c0.184-0.059,0.371-0.051,0.557-0.096
		c0.089-0.028,0.155-0.085,0.24-0.139c0.132-0.083,0.224-0.197,0.318-0.319c0.396-0.494,0.743-1.129,1.406-1.193
		c0.306-0.028,0.501,0.106,0.765,0.277l0.007,0.005c0.587-0.715,1.075-0.335,1.332-0.326C42.73,96.104,42.688,96.966,42.625,97.515z
		 M73.073,82.45c-0.53-0.198-1.21-0.635-1.803-0.523c-0.723,0.127-1.035,1.106-1.86,1.258c1.298-4.376-1.212-10.482-6.03-10.374
		c-0.901,0.02-2.072,0.744-2.366,1.732c-0.278,0.928-0.421,2.101,0.249,2.9c1.579,1.887,2.716,3.948,2.219,6.44
		c1.125-0.972,2.164-2.399,2.125-3.922c-0.008-0.379,0.682-0.103,0.789-0.262c1.318-1.931-0.836-3.124-1.979-4.342
		c-0.314-0.323,0.488-0.835,0.59-0.799c4.134,1.231,4.524,6.326,2.754,9.63c-0.47-0.588-2.219-0.396-2.811-0.596
		c1.931,0.977,1.432,1.11,1.35,1.435c-0.146,0.583-1.881,0.328-2.215,0.751c-0.583,0.749-1.018,1.07-1.062,3.528
		c0.801-0.863,1.852-2.176,2.991-1.59c2.432,1.251-0.122,5.456-2.415,6.155c-1.959,0.59-3.773-0.031-4.985-1.74
		c-1.756-2.467-0.483-5.453-1.729-7.96c-1.037,0.257-0.803,1.612-1.343,1.37c-1.907-0.884-2.992-2.926-4.379-4.636
		c-0.571,0.201-0.825,0.735-1.377,0.71c-0.82-0.033-2.361-0.291-2.692,0.121c-0.379,0.479-0.659,3.953,2.717,5.205
		c2.291,0.857,4.108,1.62,5.549,3.408c-0.968,0.081-1.304-0.392-2.094-0.422c-0.778-0.028-1.271,0.277-1.859,0.578
		c-0.561,0.288-1.22,1.396-1.11,2.274c0.531,4.199,5.466,4.255,7.735,6.913c0.39,0.453-0.596,2.282-1.524,3.018
		c-0.792,0.634-2.693-0.951-2.383-2.293c0.252-1.07-2.339-1.787-3.247-0.562c0.363-0.037,0.451,0.197,0.418,0.368
		c-0.161,0.986,1.067,1.029,1.027,1.525c-0.055,0.692-0.655-0.29-1.13-0.379c-1.046-0.211-2.083,0.155-2.696,0.994
		c-0.186,0.248-0.596,0.655-0.415,1.081c0.801-0.389,1.218,0.857,1.96,0.472c0.453-0.231,0.824-0.634,1.371-0.494
		c0.216,0.056,0.441,0.355,0.245,0.483c-1.455,0.935-2.62,2.243-1.565,3.731c0.027-0.346,0.301-0.595,0.522-0.653
		c0.427-0.122,0.988,0.173,1.401,0.034c0.678-0.226,0.326-0.896,0.588-1.383c0.403-0.761,1.779-2.012,2.551-1.102
		c0.142,0.168,0.032,0.78-0.385,0.789c0.428-0.009,0.81,0.407,1.172,0.332c0.104-0.021,0.212-0.021,0.306-0.066
		c0.083-0.042,0.174-0.059,0.237-0.128c0.17-0.173,0.368-0.352,0.394-0.623c0.312,0.024,0.708,0.059,0.914-0.213
		c0.171-0.229,0.381-0.413,0.579-0.597c-0.016,0.017-0.029,0.031-0.044,0.048l0.129-0.127c-0.028,0.026-0.056,0.052-0.085,0.079
		c1.525-1.533,2.642-3.56,4.28-5.043c-1.815-1.073-4.067-2.186-4.305-4.588c-0.018-0.163,0.254-0.346,0.315-0.314
		c2.526,1.419,5.934,1.528,7.755-1.049c1.467-2.087,2.106-5.469,4.973-5.664C70.433,85.532,71.504,83.417,73.073,82.45z
		 M86.3,78.625L51.76,51.202l-34.689,27.51c0.811,1.666,1.68,3.322,2.614,4.97l32.074-25.423l31.929,25.349
		C84.623,81.951,85.489,80.293,86.3,78.625z M91.436,65.726L51.76,34.228l-39.836,31.59c0.585,1.841,1.228,3.677,1.932,5.507
		l37.903-30.043l37.744,29.965C90.204,69.411,90.849,67.574,91.436,65.726z M90.906,7.919c-2.356-0.783-4.627,1.408-4.881,3.658
		c-0.237,2.065,0.405,4.543,0.894,6.232c0.142,0.495,0.057,1.058,0.164,1.488c0.419-1.708,0.467-3.493,0.44-5.296
		c-0.006-0.442,0.342-1.031,0.793-1.162c1.531-0.443,2.321,0.663,2.218,1.522c-0.335,2.706-0.882,4.778-1.528,7.464
		c-0.739,3.067,0.361,6.111,0.683,9.092c-1.175-0.69-2.457-0.725-2.911,1.109C86.53,33,87.411,34.024,87.68,34.887
		c0.029-1.172,1.134-2.772,2.208-2.06c1.319,0.878,1.366,5.085,1.076,5.643c-0.642,1.22-1.691,2.091-3.153,1.659
		c-0.823-0.24-0.489-1.457-0.982-1.973c-2.626-2.714-3.821-5.958-4.044-9.708c-0.035-0.548,0.252-1.986,0.172-2.02
		c-3.432-1.414-5.01-0.004-6.435,2.02c-0.247-0.612-1.556-1.468-1.661-1.278c-0.653,1.209-0.463,3.4,0.513,4.25
		c2.645,2.288,5.266,3.821,6.753,7.094c-1.586,0.207-3.137,0.666-3.745,2.326c-0.635,1.731-0.419,4.139,1.413,4.845
		c1.49,0.572,4.05-0.069,4.612,0.002c1.583,0.208,3.356,1.571,3.11,3.074c-0.016,0.074-0.681,3.57-2.197,2.705
		c-0.822-0.469-0.358-2.389-1.608-2.69c-1.684-0.408-2.098,1.947-1.885,1.744c0.537-0.511,0.908,0.33,1.951,0.907
		c-3.525-0.767-2.43,2.466-2.303,2.112c0.183-0.503,0.821,0.02,2.083-0.064c0.047-0.003-0.273,0.263-0.292,0.291
		c-0.199,0.321-0.297,0.482-0.438,0.825c-0.074,0.16-0.062,0.335-0.04,0.506c0.017,0.17,0.078,0.324,0.17,0.474
		c0.018,0.032,0.049,0.062,0.088,0.08c0.015,0.006,0.064,0.086,0.075,0.086c0.078,0.009-0.069-0.248,0.136-0.263
		c0.048-0.003,0.198-0.027,0.237-0.014c0.092,0.035,0.214,0.099,0.311,0.126c0.09,0.022,0.187,0.039,0.286,0.056
		c0.242,0.031,0.326,0.039,0.539-0.037c0.158-0.053,0.315-0.098,0.471-0.189c-0.018,0.019-0.008,0.019,0.052-0.024
		c-0.018,0.01-0.035,0.014-0.052,0.024c0.047-0.048,0.297-0.243,0.282-0.21c0.218-0.472,0.354-0.333,0.4-0.418
		c0.375-0.713,0.701-0.783,1.529-0.679c0.082,0.008,0.233,0.176,0.284,0.249c0.057,0.09,0.23,0.539,0.199,0.37
		c0.059,0.332,0.263,0.54,0.292,0.86c-0.034-0.36,0.872-1.444,0.893-2.237c0.085-2.696,1.708-3.964,1.756-6.844
		c0.011-0.751-3.1-1.458-3.238-3.076c-0.062-0.804-0.327-1.966,0.476-1.947c1.033,0.018,2.046-0.167,2.776-0.809
		c3.254-2.867,0.505-6.78,0.114-10.235c-0.087-0.758,1.315-2.391,1.273-2.926c-0.224-2.933-0.766-5.607,0.276-8.485
		c-0.819,0.731-1.064,1.94-1.749,2.558c-0.335,0.31-0.501-0.372-0.478-0.48c0.41-2.533,1.422-4.751,2.592-7.16
		C94.169,11.089,93.475,8.771,90.906,7.919z M79.514,10.464c-0.001,0-0.004,0-0.005,0.001c0.005-0.004,0.001-0.003,0.008-0.01
		 M53.853,66.88c0.005-0.012-0.01-0.038-0.028-0.04c-0.363-0.079-0.69-0.103-1.044-0.143c-0.267-0.03-0.463-0.214-0.73-0.26
		c-0.068-0.017-0.132-0.008-0.204,0.018c-0.101,0.039-0.138,0.112-0.22,0.153c-0.126,0.059-0.31,0.059-0.424,0.16
		c-0.118,0.108-0.219,0.211-0.255,0.362c-0.048,0.18-0.009,0.434,0.113,0.584c0.095,0.12,0.238,0.17,0.37,0.221
		c0.427,0.156,1.686-0.539,2.142-0.793C53.686,67.076,53.763,66.972,53.853,66.88z"/>
	<path fill="#FFFFFF" d="M85.152,55.39c-0.018,0.01-0.035,0.013-0.052,0.024C85.082,55.432,85.091,55.432,85.152,55.39z"/>
</g>
<path fill="#FFFFFF" d="M79.517,10.456c-1.073-0.536-2.468-1.241-2.958,0.192c-0.359,1.047,2.018,0.315,2.95-0.183
	c-0.044,0.05,0.104-0.062,0.005-0.001"/>
</svg>
