<?xml version="1.0" encoding="utf-8"?>
<!-- Generator: Adobe Illustrator 16.0.0, SVG Export Plug-In . SVG Version: 6.00 Build 0)  -->
<!DOCTYPE svg PUBLIC "-//W3C//DTD SVG 1.1//EN" "http://www.w3.org/Graphics/SVG/1.1/DTD/svg11.dtd">
<svg version="1.1" id="Layer_1" xmlns="http://www.w3.org/2000/svg" xmlns:xlink="http://www.w3.org/1999/xlink" x="0px" y="0px"
	 width="755.368px" height="228.93px" viewBox="0 0 755.368 228.93" enable-background="new 0 0 755.368 228.93"
	 xml:space="preserve">
<g>
	<g>
		<g>
			
				<line fill="none" stroke="#BBBBBC" stroke-width="6" stroke-miterlimit="10" x1="241.776" y1="103.75" x2="483.127" y2="103.75"/>
			<g>
				<polygon fill="#BBBBBC" points="476.911,124.992 513.697,103.75 476.911,82.509 				"/>
			</g>
		</g>
	</g>
	<polygon fill="#A9DEF0" points="245.219,185.935 0,185.935 41.54,13.935 197.044,13.935 	"/>
	<path fill="#4C5870" d="M62.436,216.205c3.204-1.68,5.39-5.035,5.39-8.903c0-5.552-4.5-10.054-10.052-10.054
		c-5.552,0-10.052,4.502-10.052,10.054c0,3.868,2.187,7.225,5.39,8.903c-5.601,1.793-9.797,6.724-10.52,12.725h30.364
		C72.232,222.927,68.036,217.998,62.436,216.205z"/>
	<g>
		<path fill="#EA9B4D" d="M103.324,216.207c3.203-1.682,5.39-5.037,5.39-8.905c0-5.552-4.501-10.054-10.053-10.054
			c-5.551,0-10.052,4.502-10.052,10.054c0,3.868,2.186,7.225,5.39,8.905c1.47-0.472,3.036-0.729,4.662-0.729
			S101.854,215.735,103.324,216.207z"/>
		<path fill="#EA9B4D" d="M103.324,216.207c-1.395,0.73-2.979,1.146-4.663,1.146s-3.269-0.416-4.662-1.146
			c-5.602,1.791-9.797,6.722-10.52,12.724h30.363C113.12,222.927,108.924,217.998,103.324,216.207z"/>
		<path fill="#EA9B4D" d="M103.324,216.207c-1.471-0.472-3.037-0.729-4.663-0.729s-3.192,0.257-4.662,0.729
			c1.394,0.73,2.979,1.146,4.662,1.146C100.344,217.353,101.93,216.937,103.324,216.207z"/>
	</g>
	<g>
		<path fill="#893382" d="M145.689,216.207c3.203-1.682,5.389-5.037,5.389-8.905c0-5.552-4.5-10.054-10.052-10.054
			c-5.552,0-10.053,4.502-10.053,10.054c0,3.868,2.186,7.225,5.39,8.905c1.471-0.472,3.037-0.729,4.663-0.729
			C142.653,215.478,144.219,215.735,145.689,216.207z"/>
		<path fill="#893382" d="M145.689,216.207c-1.395,0.73-2.979,1.146-4.663,1.146c-1.683,0-3.269-0.416-4.663-1.146
			c-5.6,1.791-9.796,6.722-10.519,12.724h30.364C155.485,222.927,151.29,217.998,145.689,216.207z"/>
		<path fill="#893382" d="M145.689,216.207c-1.471-0.472-3.036-0.729-4.663-0.729c-1.626,0-3.192,0.257-4.663,0.729
			c1.395,0.73,2.98,1.146,4.663,1.146C142.71,217.353,144.295,216.937,145.689,216.207z"/>
	</g>
	<g>
		<path fill="#588C92" d="M186.921,216.207c3.204-1.682,5.39-5.037,5.39-8.905c0-5.552-4.5-10.054-10.053-10.054
			c-5.552,0-10.051,4.502-10.051,10.054c0,3.868,2.186,7.225,5.389,8.905c1.47-0.472,3.035-0.729,4.662-0.729
			S185.45,215.735,186.921,216.207z"/>
		<path fill="#588C92" d="M186.921,216.207c-1.394,0.73-2.979,1.146-4.663,1.146c-1.683,0-3.268-0.416-4.662-1.146
			c-5.6,1.791-9.797,6.722-10.519,12.724h30.363C196.717,222.927,192.521,217.998,186.921,216.207z"/>
		<path fill="#588C92" d="M186.921,216.207c-1.471-0.472-3.036-0.729-4.663-0.729s-3.192,0.257-4.662,0.729
			c1.394,0.73,2.979,1.146,4.662,1.146C183.941,217.353,185.527,216.937,186.921,216.207z"/>
	</g>
	<polyline fill="#CDEBF6" points="42,13.935 197.496,13.935 245.674,186.223 	"/>
	<polygon fill="none" stroke="#FFFFFF" stroke-width="6" stroke-miterlimit="10" points="227.949,169.935 17.159,169.935 
		52.867,21.935 186.538,21.935 	"/>
	<line fill="none" stroke="#FFFFFF" stroke-width="6" stroke-miterlimit="10" x1="74.089" y1="21.53" x2="42.865" y2="169.722"/>
	<line fill="none" stroke="#FFFFFF" stroke-width="6" stroke-miterlimit="10" x1="166.57" y1="21.53" x2="197.794" y2="169.722"/>
	<line fill="none" stroke="#FFFFFF" stroke-width="6" stroke-miterlimit="10" x1="70.547" y1="38.341" x2="169.331" y2="38.341"/>
	<line fill="none" stroke="#FFFFFF" stroke-width="6" stroke-miterlimit="10" x1="50.53" y1="136.34" x2="190.732" y2="136.34"/>
	<line fill="none" stroke="#FFFFFF" stroke-width="6" stroke-miterlimit="10" x1="120.632" y1="38.341" x2="120.632" y2="136.34"/>
	<polyline fill="#FFFFFF" fill-opacity="0.3" stroke="#49A6B6" stroke-width="6" stroke-miterlimit="10" points="36.171,91.135 
		36.171,70.824 205.839,70.824 205.839,91.135 	"/>
	<g>
		<path fill="#DB3A74" d="M84.763,49.145c3.204-1.681,5.39-5.037,5.39-8.905c0-5.552-4.5-10.053-10.052-10.053
			c-5.552,0-10.052,4.5-10.052,10.053c0,3.868,2.186,7.225,5.39,8.905c1.47-0.47,3.035-0.728,4.662-0.728
			S83.292,48.675,84.763,49.145z"/>
		<path fill="#DB3A74" d="M84.763,49.145c-1.394,0.732-2.979,1.147-4.662,1.147s-3.269-0.415-4.662-1.147
			c-5.602,1.792-9.797,6.722-10.52,12.724h30.364C94.56,55.867,90.363,50.937,84.763,49.145z"/>
		<path fill="#DB3A74" d="M84.763,49.145c-1.47-0.47-3.035-0.728-4.662-0.728s-3.192,0.257-4.662,0.728
			c1.394,0.732,2.979,1.147,4.662,1.147S83.369,49.877,84.763,49.145z"/>
	</g>
	<path fill="#399F48" d="M155.153,19.034c3.204-1.68,5.391-5.037,5.391-8.905c0-5.551-4.501-10.052-10.053-10.052
		c-5.552,0-10.052,4.5-10.052,10.052c0,3.869,2.187,7.225,5.39,8.905c-5.6,1.792-9.797,6.721-10.52,12.724h30.363
		C164.951,25.755,160.754,20.827,155.153,19.034z"/>
	<g>
		<path fill="#4B68B0" d="M94.209,145.938c3.203-1.681,5.39-5.036,5.39-8.905c0-5.551-4.501-10.051-10.053-10.051
			c-5.552,0-10.052,4.5-10.052,10.051c0,3.869,2.187,7.226,5.39,8.905c1.47-0.47,3.036-0.728,4.662-0.728
			C91.173,145.21,92.738,145.468,94.209,145.938z"/>
		<path fill="#4B68B0" d="M94.209,145.938c-1.395,0.731-2.979,1.147-4.663,1.147s-3.269-0.416-4.662-1.147
			c-5.601,1.792-9.797,6.722-10.519,12.724h30.363C104.005,152.66,99.809,147.73,94.209,145.938z"/>
		<path fill="#4B68B0" d="M94.209,145.938c-1.471-0.47-3.036-0.728-4.663-0.728c-1.626,0-3.192,0.258-4.662,0.728
			c1.394,0.731,2.979,1.147,4.662,1.147S92.814,146.669,94.209,145.938z"/>
	</g>
	<g>
		<path fill="#F7D02D" d="M161.487,99.056c3.204-1.681,5.391-5.037,5.391-8.905c0-5.551-4.5-10.052-10.053-10.052
			c-5.551,0-10.052,4.501-10.052,10.052c0,3.869,2.187,7.226,5.39,8.905c1.47-0.47,3.036-0.729,4.662-0.729
			C158.452,98.328,160.018,98.585,161.487,99.056z"/>
		<path fill="#F7D02D" d="M161.487,99.056c-1.394,0.731-2.979,1.146-4.662,1.146c-1.683,0-3.268-0.415-4.662-1.146
			c-5.601,1.792-9.797,6.722-10.519,12.724h30.362C171.285,105.777,167.088,100.848,161.487,99.056z"/>
		<path fill="#F7D02D" d="M161.487,99.056c-1.47-0.47-3.035-0.729-4.662-0.729c-1.625,0-3.191,0.258-4.662,0.729
			c1.394,0.731,2.979,1.146,4.662,1.146C158.508,100.203,160.094,99.788,161.487,99.056z"/>
	</g>
	<path fill="#55B65D" d="M150.491,31.758h15.182c-0.723-6.002-4.919-10.931-10.52-12.724c3.204-1.68,5.39-5.037,5.39-8.905
		c0-5.551-4.5-10.052-10.052-10.052V31.758L150.491,31.758z"/>
	<path fill="#E74B8A" d="M80.101,61.869h15.182c-0.723-6.002-4.919-10.932-10.52-12.723c3.203-1.681,5.39-5.037,5.39-8.905
		c0-5.552-4.5-10.052-10.052-10.052V61.869z"/>
	<path fill="#F8DB61" d="M157.113,112.129h15.181c-0.722-6.002-4.918-10.932-10.52-12.724c3.204-1.68,5.391-5.037,5.391-8.904
		c0-5.553-4.501-10.053-10.052-10.053V112.129z"/>
	<path fill="#5F80BF" d="M89.713,158.49h15.182c-0.722-6.002-4.918-10.931-10.52-12.723c3.204-1.68,5.391-5.037,5.391-8.905
		c0-5.552-4.5-10.052-10.052-10.052L89.713,158.49L89.713,158.49z"/>
	<path fill="#5B697F" d="M57.78,228.929h15.182c-0.723-6.003-4.919-10.933-10.52-12.725c3.203-1.681,5.39-5.036,5.39-8.904
		c0-5.553-4.5-10.054-10.052-10.054V228.929z"/>
	<path fill="#F6AA66" d="M98.662,228.928h15.181c-0.722-6.002-4.919-10.931-10.52-12.725c3.204-1.68,5.391-5.035,5.391-8.903
		c0-5.552-4.501-10.053-10.052-10.053V228.928z"/>
	<path fill="#9A4398" d="M141.026,228.928h15.182c-0.723-6.002-4.919-10.931-10.52-12.725c3.203-1.68,5.39-5.035,5.39-8.903
		c0-5.552-4.5-10.053-10.052-10.053V228.928L141.026,228.928z"/>
	<path fill="#63A3A7" d="M182.183,228.928h15.182c-0.723-6.002-4.919-10.931-10.521-12.725c3.204-1.68,5.391-5.035,5.391-8.903
		c0-5.552-4.5-10.053-10.052-10.053V228.928z"/>
	<g>
		<polygon fill="#A9DEF0" points="755.368,185.935 510.149,185.935 551.689,13.935 707.193,13.935 		"/>
		<g>
			<circle fill="#399F48" cx="567.923" cy="207.223" r="10.053"/>
			<path fill="#399F48" d="M552.741,228.851h30.362c-0.91-7.576-7.358-13.451-15.182-13.451
				C560.1,215.4,553.653,221.275,552.741,228.851z"/>
		</g>
		<g>
			<circle fill="#F7D02D" cx="608.811" cy="207.223" r="10.052"/>
			<path fill="#F7D02D" d="M593.629,228.851h30.362c-0.911-7.576-7.358-13.451-15.181-13.451
				C600.987,215.4,594.54,221.275,593.629,228.851z"/>
		</g>
		<g>
			<circle fill="#4B68B0" cx="651.175" cy="207.223" r="10.052"/>
			<path fill="#4B68B0" d="M635.994,228.851h30.363c-0.912-7.576-7.359-13.451-15.183-13.451S636.905,221.275,635.994,228.851z"/>
		</g>
		<g>
			<circle fill="#DB3A74" cx="692.407" cy="207.223" r="10.052"/>
			<path fill="#DB3A74" d="M677.226,228.851h30.363c-0.912-7.576-7.357-13.451-15.181-13.451
				C684.584,215.4,678.139,221.275,677.226,228.851z"/>
		</g>
		<polyline fill="#CDEBF6" points="551,13.935 707.124,13.935 754.989,186.223 		"/>
		<polygon fill="none" stroke="#FFFFFF" stroke-width="6" stroke-miterlimit="10" points="738.099,169.935 527.308,169.935 
			563.016,21.935 696.688,21.935 		"/>
		
			<line fill="none" stroke="#FFFFFF" stroke-width="6" stroke-miterlimit="10" x1="584.237" y1="21.453" x2="553.014" y2="169.646"/>
		<line fill="none" stroke="#FFFFFF" stroke-width="6" stroke-miterlimit="10" x1="676.72" y1="21.453" x2="707.944" y2="169.646"/>
		<line fill="none" stroke="#FFFFFF" stroke-width="6" stroke-miterlimit="10" x1="580.695" y1="38.264" x2="679.48" y2="38.264"/>
		
			<line fill="none" stroke="#FFFFFF" stroke-width="6" stroke-miterlimit="10" x1="560.678" y1="136.263" x2="700.882" y2="136.263"/>
		<line fill="none" stroke="#FFFFFF" stroke-width="6" stroke-miterlimit="10" x1="630.78" y1="38.264" x2="630.78" y2="136.263"/>
		<polyline fill="#FFFFFF" fill-opacity="0.3" stroke="#49A6B6" stroke-width="6" stroke-miterlimit="10" points="546.32,91.058 
			546.32,70.748 715.987,70.748 715.987,91.058 		"/>
		<g>
			<circle fill="#588C92" cx="590.25" cy="40.163" r="10.053"/>
			<path fill="#588C92" d="M575.068,61.792h30.362c-0.912-7.577-7.358-13.451-15.182-13.451
				C582.427,48.341,575.979,54.215,575.068,61.792z"/>
		</g>
		<g>
			<circle fill="#EA9B4D" cx="660.64" cy="10.052" r="10.052"/>
			<path fill="#EA9B4D" d="M645.458,31.681h30.364c-0.912-7.577-7.36-13.451-15.183-13.451
				C652.817,18.229,646.371,24.103,645.458,31.681z"/>
		</g>
		<g>
			<circle fill="#893382" cx="666.974" cy="90.073" r="10.052"/>
			<path fill="#893382" d="M651.793,111.702h30.363c-0.912-7.576-7.359-13.45-15.183-13.45
				C659.151,98.251,652.705,104.125,651.793,111.702z"/>
		</g>
		<g>
			<circle fill="#4C5870" cx="599.695" cy="136.956" r="10.052"/>
			<path fill="#4C5870" d="M584.514,158.584h30.362c-0.911-7.577-7.358-13.451-15.18-13.451
				C591.872,145.133,585.426,151.007,584.514,158.584z"/>
		</g>
		<path fill="#63A3A7" d="M590.25,61.792h15.181c-0.722-6.002-4.919-10.933-10.52-12.724c3.204-1.681,5.392-5.037,5.392-8.906
			c0-5.552-4.501-10.052-10.053-10.052V61.792L590.25,61.792z"/>
		<path fill="#F6AA66" d="M660.64,31.681h15.183c-0.723-6.002-4.919-10.932-10.521-12.723c3.203-1.681,5.392-5.037,5.392-8.905
			c0-5.552-4.5-10.052-10.054-10.052V31.681z"/>
		<path fill="#9A4398" d="M666.811,111.677h15.183c-0.724-6.002-4.92-10.933-10.521-12.725c3.203-1.68,5.391-5.035,5.391-8.904
			c0-5.553-4.5-10.053-10.052-10.053V111.677z"/>
		<path fill="#5B697F" d="M599.695,158.584h15.181c-0.722-6.003-4.918-10.933-10.521-12.724c3.204-1.681,5.392-5.037,5.392-8.906
			c0-5.552-4.501-10.052-10.052-10.052V158.584L599.695,158.584z"/>
		<path fill="#55B65D" d="M567.93,228.851h15.183c-0.724-6.002-4.919-10.932-10.521-12.723c3.203-1.682,5.392-5.037,5.392-8.905
			c0-5.552-4.5-10.052-10.053-10.052V228.851z"/>
		<path fill="#E74B8A" d="M692.408,228.852h15.182c-0.723-6.003-4.92-10.932-10.521-12.724c3.204-1.681,5.39-5.037,5.39-8.905
			c0-5.552-4.5-10.052-10.051-10.052V228.852z"/>
		<path fill="#F8DB61" d="M608.843,228.851h15.183c-0.723-6.002-4.919-10.932-10.521-12.723c3.203-1.682,5.392-5.037,5.392-8.905
			c0-5.552-4.502-10.052-10.054-10.052V228.851z"/>
		<path fill="#5F80BF" d="M651.176,228.852h15.183c-0.724-6.003-4.919-10.932-10.521-12.724c3.204-1.681,5.392-5.037,5.392-8.905
			c0-5.552-4.5-10.052-10.053-10.052V228.852z"/>
	</g>
	<g>
		<g>
			<g enable-background="new    ">
				<path fill="#474748" d="M313.744,60.516h1.59v-4.574c0-0.178,0.005-0.364,0.016-0.56l-1.129,0.944
					c-0.047,0.04-0.095,0.067-0.144,0.082c-0.049,0.014-0.097,0.021-0.144,0.021c-0.072,0-0.138-0.016-0.198-0.046
					c-0.06-0.031-0.104-0.066-0.133-0.106l-0.423-0.58l2.393-2.035h1.102v6.854h1.411v1.004h-4.341V60.516z"/>
				<path fill="#474748" d="M325.943,54.244c0,0.191-0.061,0.347-0.182,0.466c-0.122,0.12-0.323,0.18-0.605,0.18h-2.16l-0.282,1.639
					c0.354-0.072,0.678-0.108,0.971-0.108c0.413,0,0.775,0.062,1.088,0.185s0.576,0.293,0.79,0.51s0.375,0.472,0.483,0.763
					s0.163,0.604,0.163,0.941c0,0.416-0.073,0.796-0.22,1.14c-0.146,0.344-0.35,0.638-0.61,0.882
					c-0.26,0.244-0.569,0.433-0.925,0.566c-0.356,0.134-0.744,0.201-1.164,0.201c-0.246,0-0.479-0.025-0.7-0.076
					s-0.428-0.118-0.621-0.203c-0.194-0.085-0.373-0.183-0.538-0.293s-0.312-0.228-0.442-0.351l0.412-0.569
					c0.087-0.123,0.203-0.185,0.347-0.185c0.091,0,0.182,0.029,0.274,0.087s0.2,0.121,0.323,0.189
					c0.123,0.069,0.266,0.133,0.429,0.19c0.163,0.058,0.36,0.087,0.591,0.087c0.246,0,0.463-0.04,0.651-0.12
					c0.188-0.079,0.345-0.19,0.469-0.333c0.125-0.144,0.219-0.313,0.282-0.511c0.063-0.196,0.095-0.411,0.095-0.643
					c0-0.427-0.124-0.761-0.372-1.001c-0.248-0.241-0.612-0.361-1.093-0.361c-0.38,0-0.762,0.069-1.145,0.206l-0.835-0.238
					l0.651-3.81h3.875V54.244z"/>
				<path fill="#474748" d="M337.862,58.625c0.052,0.124,0.104,0.25,0.155,0.377c0.05-0.131,0.103-0.259,0.157-0.386
					c0.054-0.126,0.112-0.247,0.173-0.363l2.323-4.347c0.029-0.055,0.059-0.098,0.089-0.13c0.031-0.033,0.065-0.057,0.103-0.071
					c0.038-0.014,0.081-0.023,0.128-0.026c0.047-0.004,0.103-0.006,0.168-0.006h1.102v7.847h-1.286v-5.068
					c0-0.094,0.003-0.197,0.008-0.31c0.005-0.111,0.014-0.226,0.024-0.342l-2.372,4.45c-0.054,0.102-0.125,0.18-0.211,0.235
					c-0.087,0.057-0.188,0.085-0.304,0.085h-0.201c-0.116,0-0.217-0.028-0.304-0.085c-0.087-0.056-0.157-0.134-0.211-0.235
					L335,55.785c0.014,0.119,0.024,0.235,0.03,0.35s0.008,0.22,0.008,0.317v5.068h-1.286v-7.847h1.102
					c0.065,0,0.121,0.002,0.168,0.006c0.047,0.003,0.089,0.013,0.127,0.026c0.038,0.015,0.073,0.038,0.106,0.071
					c0.033,0.032,0.063,0.075,0.092,0.13l2.344,4.357C337.752,58.38,337.809,58.5,337.862,58.625z"/>
				<path fill="#474748" d="M347.485,61.52h-1.465v-7.847h1.465V61.52z"/>
				<path fill="#474748" d="M352.174,53.681c0.043,0.006,0.082,0.017,0.117,0.033c0.034,0.016,0.068,0.04,0.1,0.07
					c0.033,0.031,0.069,0.071,0.109,0.122l4.119,5.247c-0.015-0.126-0.024-0.25-0.03-0.371c-0.006-0.121-0.008-0.234-0.008-0.34
					v-4.77h1.286v7.847h-0.754c-0.116,0-0.211-0.018-0.288-0.055c-0.076-0.036-0.15-0.101-0.223-0.195l-4.102-5.226
					c0.011,0.116,0.019,0.231,0.024,0.345c0.005,0.114,0.008,0.218,0.008,0.313v4.818h-1.286v-7.847h0.765
					C352.076,53.673,352.13,53.676,352.174,53.681z"/>
				<path fill="#474748" d="M364.605,60.342c0.282,0,0.535-0.047,0.757-0.141c0.222-0.095,0.411-0.227,0.564-0.396
					c0.153-0.17,0.271-0.376,0.353-0.618s0.122-0.514,0.122-0.814v-4.699h1.459v4.699c0,0.467-0.075,0.898-0.225,1.294
					c-0.15,0.396-0.366,0.738-0.648,1.026c-0.282,0.287-0.624,0.512-1.025,0.673c-0.402,0.16-0.854,0.241-1.357,0.241
					c-0.502,0-0.955-0.081-1.356-0.241c-0.401-0.161-0.743-0.386-1.023-0.673c-0.28-0.288-0.496-0.63-0.646-1.026
					c-0.15-0.396-0.225-0.827-0.225-1.294v-4.699h1.459v4.694c0,0.3,0.041,0.571,0.122,0.813s0.198,0.449,0.35,0.621
					s0.339,0.305,0.562,0.399C364.071,60.295,364.323,60.342,364.605,60.342z"/>
				<path fill="#474748" d="M376.875,53.673v1.199h-2.36v6.647h-1.46v-6.647h-2.371v-1.199H376.875z"/>
				<path fill="#474748" d="M384.748,53.673v1.161h-3.479v2.176h2.74v1.124h-2.74v2.219h3.479v1.167h-4.949v-7.847H384.748z"/>
				<path fill="#474748" d="M392.214,55.101c-0.04,0.079-0.086,0.135-0.138,0.168c-0.053,0.032-0.115,0.049-0.187,0.049
					c-0.073,0-0.154-0.028-0.245-0.084c-0.09-0.057-0.197-0.119-0.32-0.188s-0.267-0.131-0.432-0.188
					c-0.165-0.056-0.359-0.084-0.583-0.084c-0.203,0-0.379,0.024-0.529,0.073c-0.15,0.049-0.277,0.117-0.38,0.203
					c-0.103,0.087-0.18,0.191-0.23,0.313c-0.051,0.121-0.076,0.254-0.076,0.398c0,0.185,0.052,0.339,0.155,0.462
					s0.24,0.228,0.41,0.314s0.364,0.165,0.581,0.233c0.217,0.068,0.438,0.142,0.665,0.22s0.448,0.168,0.665,0.271
					c0.217,0.103,0.411,0.233,0.581,0.391s0.307,0.35,0.41,0.578c0.103,0.228,0.155,0.504,0.155,0.83
					c0,0.354-0.061,0.687-0.182,0.995c-0.121,0.31-0.298,0.579-0.532,0.809c-0.233,0.23-0.518,0.411-0.854,0.543
					s-0.722,0.198-1.156,0.198c-0.25,0-0.496-0.024-0.738-0.073c-0.242-0.049-0.475-0.118-0.697-0.209
					c-0.222-0.091-0.43-0.199-0.624-0.325c-0.193-0.127-0.366-0.269-0.518-0.424l0.423-0.7c0.04-0.05,0.087-0.093,0.144-0.127
					s0.119-0.052,0.188-0.052c0.09,0,0.188,0.037,0.293,0.111s0.229,0.156,0.372,0.247c0.143,0.09,0.311,0.173,0.505,0.247
					c0.193,0.074,0.426,0.11,0.697,0.11c0.416,0,0.738-0.098,0.966-0.295s0.342-0.48,0.342-0.85c0-0.206-0.051-0.374-0.155-0.505
					c-0.103-0.13-0.24-0.239-0.41-0.328s-0.363-0.164-0.581-0.226c-0.217-0.061-0.438-0.128-0.662-0.2
					c-0.224-0.072-0.445-0.159-0.662-0.261c-0.217-0.102-0.411-0.233-0.581-0.396c-0.17-0.163-0.306-0.367-0.41-0.611
					c-0.103-0.244-0.154-0.545-0.154-0.903c0-0.285,0.057-0.564,0.171-0.836c0.114-0.271,0.28-0.512,0.499-0.722
					c0.219-0.209,0.487-0.378,0.806-0.504c0.318-0.127,0.682-0.19,1.091-0.19c0.463,0,0.89,0.072,1.281,0.217
					c0.391,0.146,0.724,0.348,0.999,0.608L392.214,55.101z"/>
				<path fill="#474748" d="M401.38,60.315h3.142v1.205h-4.602v-7.847h1.459V60.315z"/>
				<path fill="#474748" d="M414.425,61.52h-1.129c-0.126,0-0.23-0.031-0.312-0.095s-0.14-0.143-0.176-0.236l-0.586-1.601h-3.25
					l-0.586,1.601c-0.029,0.083-0.086,0.159-0.171,0.228c-0.085,0.069-0.189,0.104-0.312,0.104h-1.134l3.082-7.847h1.492
					L414.425,61.52z M409.346,58.557h2.502l-0.955-2.61c-0.043-0.115-0.091-0.252-0.144-0.409c-0.052-0.157-0.104-0.328-0.154-0.513
					c-0.051,0.185-0.101,0.356-0.149,0.516s-0.097,0.298-0.144,0.417L409.346,58.557z"/>
				<path fill="#474748" d="M421.962,53.673v1.199h-2.36v6.647h-1.46v-6.647h-2.371v-1.199H421.962z"/>
				<path fill="#474748" d="M429.836,53.673v1.161h-3.479v2.176h2.74v1.124h-2.74v2.219h3.479v1.167h-4.949v-7.847H429.836z"/>
				<path fill="#474748" d="M434.605,58.455v3.065h-1.459v-7.847h2.393c0.535,0,0.994,0.056,1.375,0.166
					c0.381,0.11,0.694,0.265,0.938,0.464c0.244,0.198,0.423,0.437,0.538,0.713c0.114,0.277,0.171,0.582,0.171,0.915
					c0,0.264-0.039,0.514-0.117,0.748c-0.078,0.235-0.19,0.449-0.336,0.641c-0.146,0.192-0.328,0.36-0.543,0.505
					s-0.46,0.261-0.735,0.348c0.185,0.104,0.344,0.255,0.478,0.45l1.964,2.897h-1.313c-0.126,0-0.234-0.025-0.323-0.076
					c-0.089-0.051-0.164-0.123-0.225-0.217l-1.65-2.513c-0.062-0.094-0.129-0.161-0.204-0.2c-0.074-0.04-0.184-0.06-0.328-0.06
					H434.605z M434.605,57.407h0.912c0.275,0,0.515-0.034,0.719-0.104c0.204-0.068,0.373-0.163,0.504-0.284s0.23-0.266,0.296-0.432
					c0.065-0.166,0.098-0.349,0.098-0.548c0-0.398-0.131-0.704-0.394-0.917c-0.262-0.214-0.663-0.32-1.202-0.32h-0.934V57.407z"/>
			</g>
		</g>
		<g>
			<path fill="#595A5A" d="M376.229,139.453c-19.515,0-35.391-15.876-35.391-35.391s15.876-35.392,35.391-35.392
				c19.516,0,35.393,15.877,35.393,35.392S395.744,139.453,376.229,139.453z"/>
			<path fill="none" stroke="#FFFFFF" stroke-width="6" stroke-miterlimit="10" d="M376.229,139.453
				c-19.515,0-35.391-15.876-35.391-35.391s15.876-35.392,35.391-35.392c19.516,0,35.393,15.877,35.393,35.392
				S395.744,139.453,376.229,139.453z"/>
		</g>
		<g enable-background="new    ">
			<path fill="#474748" d="M301.5,151.814v2.762h-1.459v-7.847h2.556c0.524,0,0.979,0.062,1.361,0.185
				c0.384,0.123,0.7,0.295,0.95,0.516c0.249,0.221,0.434,0.484,0.554,0.792c0.119,0.308,0.179,0.645,0.179,1.01
				c0,0.38-0.063,0.728-0.19,1.044c-0.126,0.317-0.316,0.589-0.569,0.817c-0.253,0.228-0.569,0.405-0.949,0.531
				c-0.38,0.127-0.825,0.19-1.335,0.19H301.5z M301.5,150.674h1.097c0.268,0,0.501-0.033,0.7-0.101
				c0.198-0.067,0.363-0.163,0.493-0.288c0.131-0.124,0.229-0.276,0.293-0.455c0.065-0.18,0.098-0.379,0.098-0.6
				c0-0.21-0.032-0.4-0.098-0.57c-0.064-0.17-0.162-0.314-0.293-0.434c-0.13-0.12-0.295-0.211-0.493-0.274
				c-0.199-0.063-0.433-0.095-0.7-0.095H301.5V150.674z"/>
			<path fill="#474748" d="M310.231,153.371h3.142v1.205h-4.602v-7.847h1.46V153.371z"/>
			<path fill="#474748" d="M323.276,154.576h-1.129c-0.126,0-0.23-0.031-0.312-0.095c-0.082-0.063-0.141-0.143-0.177-0.236
				l-0.586-1.601h-3.25l-0.587,1.601c-0.028,0.083-0.086,0.159-0.171,0.228c-0.085,0.069-0.188,0.104-0.312,0.104h-1.134
				l3.082-7.847h1.492L323.276,154.576z M318.197,151.613h2.502l-0.955-2.61c-0.044-0.115-0.092-0.252-0.145-0.409
				c-0.052-0.157-0.104-0.328-0.154-0.513c-0.051,0.185-0.101,0.356-0.149,0.516s-0.097,0.298-0.144,0.417L318.197,151.613z"/>
			<path fill="#474748" d="M328.583,151.526v3.05h-1.459v-3.05l-2.86-4.797h1.286c0.127,0,0.228,0.031,0.302,0.093
				s0.136,0.139,0.187,0.233l1.438,2.62c0.083,0.156,0.155,0.304,0.217,0.442c0.062,0.14,0.117,0.276,0.168,0.41
				c0.048-0.138,0.101-0.276,0.16-0.415c0.06-0.14,0.132-0.285,0.215-0.438l1.427-2.62c0.04-0.08,0.1-0.154,0.18-0.223
				c0.079-0.069,0.181-0.104,0.304-0.104h1.291L328.583,151.526z"/>
			<path fill="#474748" d="M339.144,146.729v1.161h-3.479v2.176h2.74v1.124h-2.74v2.219h3.479v1.167h-4.949v-7.847H339.144z"/>
			<path fill="#474748" d="M343.913,151.51v3.065h-1.46v-7.847h2.394c0.535,0,0.993,0.056,1.375,0.166s0.694,0.265,0.938,0.464
				c0.244,0.198,0.424,0.437,0.538,0.713c0.113,0.277,0.171,0.582,0.171,0.915c0,0.264-0.039,0.514-0.117,0.748
				c-0.078,0.235-0.189,0.449-0.336,0.641c-0.146,0.192-0.328,0.36-0.543,0.505c-0.216,0.145-0.461,0.261-0.735,0.348
				c0.185,0.104,0.344,0.255,0.478,0.45l1.964,2.897h-1.313c-0.127,0-0.234-0.025-0.323-0.076s-0.164-0.123-0.225-0.217l-1.65-2.513
				c-0.062-0.094-0.129-0.161-0.203-0.2c-0.074-0.04-0.184-0.06-0.328-0.06H343.913z M343.913,150.462h0.911
				c0.275,0,0.515-0.034,0.72-0.104c0.204-0.068,0.372-0.163,0.504-0.284s0.23-0.266,0.296-0.432s0.098-0.349,0.098-0.548
				c0-0.398-0.131-0.704-0.394-0.917c-0.262-0.214-0.663-0.32-1.201-0.32h-0.934V150.462z"/>
			<path fill="#474748" d="M355.715,148.157c-0.039,0.079-0.086,0.135-0.138,0.168c-0.053,0.032-0.115,0.049-0.188,0.049
				s-0.153-0.028-0.244-0.084c-0.091-0.057-0.197-0.119-0.32-0.188s-0.267-0.131-0.432-0.188c-0.164-0.056-0.358-0.084-0.583-0.084
				c-0.202,0-0.379,0.024-0.529,0.073s-0.276,0.117-0.38,0.203c-0.103,0.087-0.18,0.191-0.23,0.313s-0.076,0.254-0.076,0.398
				c0,0.185,0.052,0.339,0.155,0.462c0.103,0.123,0.239,0.228,0.409,0.314s0.364,0.165,0.581,0.233s0.438,0.142,0.664,0.22
				c0.227,0.078,0.448,0.168,0.665,0.271c0.217,0.103,0.411,0.233,0.581,0.391s0.307,0.35,0.409,0.578
				c0.104,0.228,0.155,0.504,0.155,0.83c0,0.354-0.061,0.687-0.183,0.995c-0.121,0.31-0.298,0.579-0.531,0.809
				c-0.233,0.23-0.519,0.411-0.854,0.543c-0.337,0.132-0.722,0.198-1.156,0.198c-0.249,0-0.495-0.024-0.738-0.073
				c-0.242-0.049-0.475-0.118-0.697-0.209c-0.222-0.091-0.43-0.199-0.624-0.325c-0.193-0.127-0.366-0.269-0.518-0.424l0.423-0.7
				c0.04-0.05,0.088-0.093,0.144-0.127c0.057-0.034,0.119-0.052,0.188-0.052c0.091,0,0.188,0.037,0.293,0.111
				c0.105,0.074,0.229,0.156,0.372,0.247c0.143,0.09,0.311,0.173,0.505,0.247c0.193,0.074,0.426,0.11,0.697,0.11
				c0.416,0,0.737-0.098,0.966-0.295c0.228-0.197,0.342-0.48,0.342-0.85c0-0.206-0.052-0.374-0.155-0.505
				c-0.103-0.13-0.239-0.239-0.409-0.328s-0.363-0.164-0.581-0.226c-0.217-0.061-0.438-0.128-0.662-0.2
				c-0.224-0.072-0.444-0.159-0.661-0.261c-0.218-0.102-0.411-0.233-0.581-0.396c-0.17-0.163-0.307-0.367-0.41-0.611
				c-0.103-0.244-0.154-0.545-0.154-0.903c0-0.285,0.057-0.564,0.171-0.836c0.114-0.271,0.28-0.512,0.499-0.722
				c0.219-0.209,0.487-0.378,0.806-0.504c0.318-0.127,0.683-0.19,1.091-0.19c0.463,0,0.891,0.072,1.281,0.217
				c0.391,0.146,0.724,0.348,0.998,0.608L355.715,148.157z"/>
			<path fill="#474748" d="M370.317,154.576h-1.129c-0.126,0-0.23-0.031-0.312-0.095c-0.082-0.063-0.141-0.143-0.177-0.236
				l-0.586-1.601h-3.25l-0.587,1.601c-0.028,0.083-0.086,0.159-0.171,0.228c-0.085,0.069-0.188,0.104-0.312,0.104h-1.134
				l3.082-7.847h1.492L370.317,154.576z M365.238,151.613h2.502l-0.955-2.61c-0.044-0.115-0.092-0.252-0.145-0.409
				c-0.052-0.157-0.104-0.328-0.154-0.513c-0.051,0.185-0.101,0.356-0.149,0.516s-0.097,0.298-0.144,0.417L365.238,151.613z"/>
			<path fill="#474748" d="M374.632,151.51v3.065h-1.46v-7.847h2.394c0.535,0,0.993,0.056,1.375,0.166s0.694,0.265,0.938,0.464
				c0.244,0.198,0.424,0.437,0.538,0.713c0.113,0.277,0.171,0.582,0.171,0.915c0,0.264-0.039,0.514-0.117,0.748
				c-0.078,0.235-0.189,0.449-0.336,0.641c-0.146,0.192-0.328,0.36-0.543,0.505c-0.216,0.145-0.461,0.261-0.735,0.348
				c0.185,0.104,0.344,0.255,0.478,0.45l1.964,2.897h-1.313c-0.127,0-0.234-0.025-0.323-0.076s-0.164-0.123-0.225-0.217l-1.65-2.513
				c-0.062-0.094-0.129-0.161-0.203-0.2c-0.074-0.04-0.184-0.06-0.328-0.06H374.632z M374.632,150.462h0.911
				c0.275,0,0.515-0.034,0.72-0.104c0.204-0.068,0.372-0.163,0.504-0.284s0.23-0.266,0.296-0.432s0.098-0.349,0.098-0.548
				c0-0.398-0.131-0.704-0.394-0.917c-0.262-0.214-0.663-0.32-1.201-0.32h-0.934V150.462z"/>
			<path fill="#474748" d="M387.178,146.729v1.161h-3.479v2.176h2.74v1.124h-2.74v2.219h3.479v1.167h-4.949v-7.847H387.178z"/>
			<path fill="#474748" d="M396.038,151.51v3.065h-1.459v-7.847h2.393c0.535,0,0.994,0.056,1.376,0.166
				c0.381,0.11,0.694,0.265,0.938,0.464c0.244,0.198,0.423,0.437,0.537,0.713c0.114,0.277,0.171,0.582,0.171,0.915
				c0,0.264-0.039,0.514-0.116,0.748c-0.078,0.235-0.19,0.449-0.337,0.641c-0.146,0.192-0.327,0.36-0.543,0.505
				c-0.215,0.145-0.46,0.261-0.735,0.348c0.185,0.104,0.344,0.255,0.478,0.45l1.965,2.897h-1.313c-0.126,0-0.234-0.025-0.322-0.076
				c-0.089-0.051-0.164-0.123-0.226-0.217l-1.649-2.513c-0.062-0.094-0.13-0.161-0.204-0.2c-0.074-0.04-0.184-0.06-0.328-0.06
				H396.038z M396.038,150.462h0.912c0.274,0,0.515-0.034,0.719-0.104c0.204-0.068,0.373-0.163,0.505-0.284s0.23-0.266,0.296-0.432
				c0.064-0.166,0.098-0.349,0.098-0.548c0-0.398-0.132-0.704-0.394-0.917c-0.263-0.214-0.663-0.32-1.202-0.32h-0.934V150.462z"/>
			<path fill="#474748" d="M410.901,150.653c0,0.575-0.096,1.107-0.287,1.598c-0.192,0.49-0.462,0.914-0.809,1.272
				c-0.348,0.358-0.766,0.638-1.254,0.839c-0.488,0.2-1.029,0.301-1.622,0.301c-0.594,0-1.136-0.101-1.626-0.301
				c-0.49-0.201-0.909-0.48-1.259-0.839c-0.349-0.358-0.619-0.782-0.811-1.272c-0.192-0.49-0.288-1.022-0.288-1.598
				s0.096-1.108,0.288-1.599c0.191-0.49,0.462-0.914,0.811-1.272c0.35-0.358,0.769-0.638,1.259-0.838
				c0.49-0.201,1.032-0.302,1.626-0.302c0.593,0,1.134,0.102,1.622,0.304c0.488,0.203,0.906,0.482,1.254,0.839
				c0.347,0.356,0.616,0.779,0.809,1.27C410.806,149.544,410.901,150.078,410.901,150.653z M409.403,150.653
				c0-0.431-0.057-0.817-0.171-1.159c-0.113-0.342-0.277-0.632-0.49-0.871c-0.214-0.238-0.474-0.421-0.779-0.548
				c-0.306-0.126-0.65-0.189-1.033-0.189c-0.384,0-0.729,0.063-1.037,0.189c-0.308,0.127-0.568,0.31-0.784,0.548
				c-0.215,0.239-0.381,0.529-0.496,0.871c-0.116,0.342-0.174,0.729-0.174,1.159c0,0.43,0.058,0.816,0.174,1.158
				c0.115,0.342,0.281,0.631,0.496,0.868c0.216,0.237,0.477,0.419,0.784,0.545c0.308,0.127,0.653,0.19,1.037,0.19
				c0.383,0,0.728-0.063,1.033-0.19c0.306-0.126,0.565-0.308,0.779-0.545c0.213-0.237,0.377-0.526,0.49-0.868
				C409.347,151.469,409.403,151.083,409.403,150.653z"/>
			<path fill="#474748" d="M419.155,146.729v1.199h-2.36v6.647h-1.46v-6.647h-2.371v-1.199H419.155z"/>
			<path fill="#474748" d="M428.18,154.576h-1.129c-0.127,0-0.23-0.031-0.313-0.095c-0.081-0.063-0.14-0.143-0.176-0.236
				l-0.586-1.601h-3.251l-0.586,1.601c-0.029,0.083-0.086,0.159-0.171,0.228c-0.085,0.069-0.189,0.104-0.313,0.104h-1.134
				l3.082-7.847h1.492L428.18,154.576z M423.1,151.613h2.502l-0.955-2.61c-0.043-0.115-0.091-0.252-0.144-0.409
				s-0.104-0.328-0.154-0.513c-0.051,0.185-0.101,0.356-0.149,0.516s-0.097,0.298-0.145,0.417L423.1,151.613z"/>
			<path fill="#474748" d="M435.717,146.729v1.199h-2.36v6.647h-1.46v-6.647h-2.371v-1.199H435.717z"/>
			<path fill="#474748" d="M443.59,146.729v1.161h-3.479v2.176h2.74v1.124h-2.74v2.219h3.479v1.167h-4.948v-7.847H443.59z"/>
			<path fill="#474748" d="M453.819,150.653c0,0.575-0.096,1.103-0.288,1.584c-0.191,0.481-0.461,0.896-0.809,1.243
				c-0.347,0.347-0.765,0.616-1.253,0.808c-0.488,0.192-1.029,0.288-1.623,0.288h-2.995v-7.847h2.995
				c0.594,0,1.135,0.097,1.623,0.29c0.488,0.194,0.906,0.464,1.253,0.809c0.348,0.346,0.617,0.759,0.809,1.24
				C453.724,149.549,453.819,150.078,453.819,150.653z M452.327,150.653c0-0.431-0.059-0.817-0.174-1.159
				c-0.116-0.342-0.28-0.631-0.494-0.868c-0.213-0.236-0.473-0.419-0.778-0.545c-0.306-0.127-0.65-0.19-1.034-0.19h-1.524v5.524
				h1.524c0.384,0,0.729-0.063,1.034-0.19c0.306-0.126,0.565-0.308,0.778-0.545c0.214-0.237,0.378-0.526,0.494-0.868
				C452.269,151.469,452.327,151.083,452.327,150.653z"/>
		</g>
		<path fill="#676767" d="M396.449,127.41c6.72-5.708,10.987-14.215,10.987-23.722c0-17.188-13.934-31.122-31.12-31.122
			c-8.488,0-16.18,3.402-21.793,8.913L396.449,127.41z"/>
		<g>
			<g>
				
					<line fill="none" stroke="#99999A" stroke-width="4" stroke-miterlimit="10" x1="376.229" y1="74.821" x2="376.229" y2="77.821"/>
				
					<line fill="none" stroke="#99999A" stroke-width="4" stroke-miterlimit="10" stroke-dasharray="4.739,4.739" x1="376.229" y1="82.56" x2="376.229" y2="99.146"/>
				
					<line fill="none" stroke="#99999A" stroke-width="4" stroke-miterlimit="10" x1="376.229" y1="101.516" x2="376.229" y2="104.516"/>
			</g>
		</g>
		<g>
			<g>
				
					<line fill="none" stroke="#69BDE0" stroke-width="3" stroke-miterlimit="10" x1="374.619" y1="104.062" x2="396.281" y2="104.062"/>
				<g>
					<polygon fill="#69BDE0" points="394.619,109.748 404.463,104.062 394.619,98.377 					"/>
				</g>
			</g>
		</g>
		<g enable-background="new    ">
			<path fill="#DBDBDA" d="M358.775,118.105l-1.436,0.354l-0.376-1.482l2.365-0.706h1.235v8.294h-1.788V118.105z"/>
			<path fill="#DBDBDA" d="M362.148,123.47l1.094-1.307c0.624,0.565,1.235,0.895,1.964,0.895c0.847,0,1.376-0.412,1.376-1.142
				v-0.023c0-0.705-0.6-1.117-1.458-1.117c-0.518,0-0.988,0.141-1.376,0.306l-1.047-0.694l0.235-4.059h5.059v1.589h-3.506
				l-0.094,1.423c0.33-0.082,0.624-0.141,1.083-0.141c1.6,0,2.882,0.776,2.882,2.635v0.023c0,1.741-1.235,2.848-3.129,2.848
				C363.913,124.706,362.948,124.235,362.148,123.47z"/>
			<path fill="#DBDBDA" d="M373.564,116.329h1.953l2.165,3.482l2.165-3.482h1.953v8.235H380v-5.376l-2.317,3.518h-0.047
				l-2.294-3.482v5.341h-1.776V116.329z"/>
			<path fill="#DBDBDA" d="M383.852,116.329h1.812v8.235h-1.812V116.329z"/>
			<path fill="#DBDBDA" d="M387.72,116.329h1.67l3.859,5.07v-5.07h1.788v8.235h-1.541l-3.988-5.235v5.235h-1.788V116.329z"/>
		</g>
	</g>
</g>
</svg>
